<svg width="55" height="54" viewBox="0 0 55 54" fill="none" xmlns="http://www.w3.org/2000/svg">
<path d="M28.0789 50C40.6308 50 50.8062 39.8246 50.8062 27.2727C50.8062 14.7208 40.6308 4.54541 28.0789 4.54541C15.5269 4.54541 5.35156 14.7208 5.35156 27.2727C5.35156 39.8246 15.5269 50 28.0789 50Z" stroke="#121212" stroke-width="3.38" stroke-linecap="round" stroke-linejoin="round"/>
<path d="M8.3894 15.9131H13.8743C15.3812 15.9131 16.8264 16.5117 17.8919 17.5773C18.9575 18.6428 19.5561 20.088 19.5561 21.5949V24.2464C19.5561 25.1818 19.7871 26.1027 20.2285 26.9273C20.6699 27.752 21.3081 28.4549 22.0864 28.9737L25.7152 31.3942C26.4434 31.8781 27.0406 32.5346 27.4537 33.3051C27.8669 34.0757 28.083 34.9365 28.083 35.8108C28.083 36.6852 27.8669 37.5459 27.4537 38.3165C27.0406 39.0871 26.4434 39.7436 25.7152 40.2275L16.147 46.6063" stroke="#121212" stroke-width="3.38" stroke-linecap="round" stroke-linejoin="round"/>
<path d="M47.7683 15.9131H45.1167C44.148 15.9128 43.1953 16.1602 42.3492 16.6318C41.503 17.1033 40.7914 17.7834 40.282 18.6074C39.7727 19.4314 39.4825 20.3719 39.439 21.3397C39.3954 22.3074 39.6001 23.2702 40.0334 24.1366C41.6508 27.3714 42.022 27.5267 43.0258 28.129L50.2228 32.4396" stroke="#121212" stroke-width="3.38" stroke-linecap="round" stroke-linejoin="round"/>
</svg>
