<svg width="55" height="54" viewBox="0 0 55 54" fill="none" xmlns="http://www.w3.org/2000/svg">
<path d="M27.8857 38.8125C38.1375 38.8125 46.4482 30.5018 46.4482 20.25C46.4482 9.99821 38.1375 1.6875 27.8857 1.6875C17.634 1.6875 9.32324 9.99821 9.32324 20.25C9.32324 30.5018 17.634 38.8125 27.8857 38.8125Z" stroke="#121212" stroke-width="3.375" stroke-linecap="round" stroke-linejoin="round"/>
<path d="M36.3232 36.7856L39.6982 52.3129L27.8857 45.5629L16.0732 52.3129L19.4482 36.7856" stroke="#121212" stroke-width="3.375" stroke-linecap="round" stroke-linejoin="round"/>
<path d="M29.0805 9.65682L31.8885 15.1873H36.6743C36.9377 15.1809 37.197 15.2541 37.4182 15.3974C37.6394 15.5406 37.8122 15.7473 37.914 15.9904C38.0159 16.2334 38.042 16.5016 37.989 16.7597C37.936 17.0179 37.8064 17.254 37.617 17.4373L33.225 21.7528L35.6573 27.3441C35.7646 27.6001 35.7888 27.8835 35.7264 28.154C35.664 28.4246 35.5182 28.6687 35.3096 28.8519C35.101 29.0352 34.8401 29.1483 34.5638 29.1753C34.2875 29.2022 34.0096 29.1417 33.7695 29.0023L27.8858 25.6926L22.002 29.0023C21.7619 29.1417 21.4841 29.2022 21.2077 29.1753C20.9314 29.1483 20.6705 29.0352 20.4619 28.8519C20.2533 28.6687 20.1075 28.4246 20.0452 28.154C19.9828 27.8835 20.007 27.6001 20.1143 27.3441L22.5488 21.7528L18.1545 17.4283C17.9652 17.245 17.8355 17.0089 17.7825 16.7507C17.7296 16.4926 17.7557 16.2244 17.8575 15.9814C17.9594 15.7383 18.1322 15.5316 18.3534 15.3884C18.5746 15.2451 18.8338 15.1719 19.0973 15.1783H23.883L26.6933 9.65682C26.808 9.4397 26.9798 9.25798 27.1901 9.13123C27.4004 9.00448 27.6413 8.9375 27.8869 8.9375C28.1325 8.9375 28.3734 9.00448 28.5837 9.13123C28.794 9.25798 28.9658 9.4397 29.0805 9.65682V9.65682Z" stroke="#121212" stroke-width="3.375" stroke-linecap="round" stroke-linejoin="round"/>
</svg>
