<svg width="114" height="26" viewBox="0 0 114 26" fill="none" xmlns="http://www.w3.org/2000/svg">
<path d="M109.735 20.7148C110.045 20.235 110.223 19.7086 110.269 19.1359C110.316 18.5631 110.339 17.9981 110.339 17.4408C109.89 18.0136 109.341 18.416 108.69 18.6482C108.04 18.8804 107.336 18.9965 106.577 18.9965C105.695 18.9965 104.929 18.865 104.279 18.6018C103.644 18.3386 103.141 17.9362 102.769 17.3943C102.398 16.899 102.142 16.3185 102.003 15.6528C101.864 14.9717 101.794 14.2364 101.794 13.4469V6.57373H105.068V13.0522C105.068 13.4701 105.099 13.8804 105.161 14.2828C105.238 14.6698 105.393 14.9949 105.625 15.2581C105.997 15.8154 106.67 16.094 107.645 16.094C108.11 16.094 108.543 16.0011 108.946 15.8154C109.348 15.6141 109.666 15.3045 109.898 14.8866C110.099 14.5305 110.223 14.159 110.269 13.772C110.316 13.3695 110.339 12.9361 110.339 12.4717V6.57373H113.636V16.6281C113.636 17.1854 113.629 17.7581 113.613 18.3464C113.613 18.9191 113.567 19.4842 113.474 20.0415C113.396 20.5987 113.249 21.1405 113.033 21.6669C112.816 22.1932 112.514 22.6808 112.127 23.1297C111.585 23.7489 110.873 24.2443 109.991 24.6158C109.124 24.9874 108.079 25.1654 106.856 25.1499C105.958 25.1654 105.068 25.0415 104.186 24.7784C103.303 24.5307 102.491 24.1669 101.748 23.687L102.792 20.9006C103.195 21.1947 103.729 21.4656 104.395 21.7133C105.076 21.961 105.873 22.0848 106.786 22.0848C107.529 22.0848 108.133 21.961 108.598 21.7133C109.077 21.4811 109.457 21.1483 109.735 20.7148Z" fill="#A3A3A3"/>
<path d="M94.633 16.0941C95.2522 16.0941 95.7398 15.947 96.0959 15.6529C96.4674 15.3588 96.6919 15.0259 96.7693 14.6544H100.206C100.098 15.4439 99.873 16.1095 99.5325 16.6514C99.1919 17.1932 98.7662 17.6421 98.2554 17.9981C97.76 18.3542 97.195 18.6096 96.5603 18.7644C95.9256 18.9192 95.2677 18.9966 94.5866 18.9966C93.5649 18.9966 92.6748 18.8573 91.9162 18.5786C91.1732 18.2845 90.554 17.8665 90.0586 17.3247C89.5633 16.7675 89.184 16.1018 88.9208 15.3278C88.6732 14.5383 88.5493 13.6559 88.5493 12.6807C88.5493 11.7364 88.6886 10.8695 88.9673 10.08C89.2459 9.29055 89.6407 8.61716 90.1515 8.05988C90.6778 7.50259 91.3203 7.07689 92.0788 6.78276C92.8373 6.47316 93.7042 6.31836 94.6795 6.31836C95.3915 6.31836 96.0572 6.4035 96.6764 6.57378C97.3111 6.74406 97.8684 7.00723 98.3482 7.36327C98.8436 7.71931 99.2461 8.17598 99.5557 8.73326C99.8808 9.27507 100.098 9.92523 100.206 10.6838H96.7693C96.6919 10.3122 96.4597 9.97941 96.0727 9.68529C95.7011 9.39117 95.2135 9.24411 94.6098 9.24411C94.0989 9.24411 93.6578 9.33699 93.2862 9.52275C92.9147 9.70851 92.6206 9.96393 92.4039 10.289C92.1871 10.6141 92.0323 10.9856 91.9395 11.4036C91.8466 11.8215 91.8001 12.2627 91.8001 12.7271C91.8001 13.2225 91.8543 13.6792 91.9627 14.0971C92.071 14.4996 92.2336 14.8557 92.4503 15.1653C92.667 15.4594 92.9534 15.6916 93.3095 15.8619C93.681 16.0167 94.1222 16.0941 94.633 16.0941Z" fill="#A3A3A3"/>
<path d="M78.581 8.12978C79.5717 6.93781 80.7946 6.33409 82.2498 6.3186C83.0392 6.30312 83.7358 6.43471 84.3396 6.71335C84.9433 6.97651 85.4309 7.3403 85.8024 7.8047C86.2514 8.3465 86.561 8.98119 86.7313 9.70876C86.9015 10.4208 86.9867 11.2181 86.9867 12.1004V18.8111H83.6894V12.3559C83.6894 11.9224 83.643 11.5122 83.5501 11.1252C83.4727 10.7227 83.3334 10.3821 83.1321 10.1035C82.9309 9.80938 82.66 9.59265 82.3194 9.45333C81.9943 9.31401 81.6228 9.24435 81.2048 9.24435C80.6785 9.25983 80.2296 9.37593 79.8581 9.59266C79.502 9.80938 79.2311 10.088 79.0454 10.4286C78.8596 10.7537 78.728 11.1252 78.6506 11.5432C78.5887 11.9456 78.5577 12.3559 78.5577 12.7738V18.8111H75.2837V6.57403H78.4184L78.581 8.12978Z" fill="#A3A3A3"/>
<path d="M67.9194 16.3263C68.3838 16.3263 68.7785 16.2566 69.1036 16.1173C69.4442 15.9625 69.7228 15.7148 69.9395 15.3742H73.3761C73.2058 16.0089 72.9427 16.5585 72.5866 17.0229C72.2461 17.4873 71.8281 17.8665 71.3327 18.1607C70.8529 18.4548 70.3188 18.6715 69.7305 18.8108C69.1423 18.9347 68.5231 18.9966 67.8729 18.9966C65.8915 18.9966 64.3899 18.4393 63.3682 17.3247C62.362 16.2102 61.8589 14.6467 61.8589 12.6343C61.8589 11.7209 61.9905 10.8773 62.2536 10.1033C62.5323 9.32925 62.9193 8.6636 63.4146 8.10632C63.91 7.53355 64.5215 7.09237 65.249 6.78276C65.9921 6.47316 66.8358 6.31836 67.78 6.31836C68.8791 6.31836 69.8312 6.51186 70.6361 6.89887C71.4411 7.28587 72.0758 7.81993 72.5402 8.50106C73.0201 9.16671 73.3374 9.94845 73.4922 10.8463C73.6625 11.7441 73.6625 12.7039 73.4922 13.7256H65.1329C65.1949 14.4532 65.4503 15.0724 65.8992 15.5832C66.3481 16.0786 67.0215 16.3263 67.9194 16.3263ZM70.4504 11.4732C70.4504 11.0862 70.3807 10.7457 70.2414 10.4516C70.1021 10.142 69.9163 9.89427 69.6841 9.70851C69.4519 9.50727 69.1733 9.36021 68.8482 9.26733C68.5386 9.17445 68.2135 9.12801 67.8729 9.12801C67.0525 9.14349 66.41 9.36795 65.9456 9.80139C65.4967 10.2194 65.2336 10.7766 65.1562 11.4732H70.4504Z" fill="#A3A3A3"/>
<path d="M56.9213 17.557C56.4569 18.0833 55.8996 18.4548 55.2495 18.6716C54.5993 18.8883 53.895 18.9966 53.1364 18.9966C52.3779 18.9966 51.6349 18.8805 50.9073 18.6483C50.1952 18.4006 49.576 18.0059 49.0497 17.4641C48.4614 16.8449 48.0512 16.1328 47.819 15.3278C47.5868 14.5229 47.4707 13.6947 47.4707 12.8433C47.4707 10.8309 48.028 9.22092 49.1426 8.01347C49.6224 7.48715 50.2416 7.07692 51.0002 6.7828C51.7742 6.48868 52.6024 6.34936 53.4847 6.36484C54.0575 6.33388 54.6767 6.4345 55.3424 6.6667C56.008 6.8989 56.5808 7.28591 57.0606 7.82771L57.409 6.57382H60.2418V18.0446C60.2418 18.54 60.2109 19.0276 60.1489 19.5075C60.1025 20.0028 60.0174 20.475 59.8935 20.9239C59.7697 21.3883 59.5839 21.8295 59.3362 22.2475C59.0576 22.7583 58.717 23.1918 58.3145 23.5478C57.9275 23.9038 57.4941 24.198 57.0142 24.4302C56.5343 24.6778 56.0235 24.8559 55.4817 24.9642C54.9399 25.0726 54.3903 25.1268 53.833 25.1268C53.121 25.1268 52.4398 25.0416 51.7897 24.8713C51.1395 24.7165 50.5435 24.4534 50.0017 24.0819C49.4754 23.7258 49.0342 23.2692 48.6782 22.7119C48.3376 22.1546 48.1131 21.4889 48.0048 20.7149H51.4878C51.5497 21.0865 51.7974 21.4193 52.2308 21.7134C52.6643 22.0075 53.1906 22.1546 53.8098 22.1546C54.4755 22.1546 55.0173 22.023 55.4352 21.7598C55.8687 21.4967 56.1938 21.1484 56.4105 20.7149C56.6272 20.2815 56.7665 19.7861 56.8284 19.2288C56.8904 18.6715 56.9213 18.1143 56.9213 17.557ZM53.8795 16.0941C54.3903 16.0941 54.8393 16.0012 55.2263 15.8155C55.6287 15.6297 55.9538 15.382 56.2015 15.0724C56.4492 14.7473 56.6349 14.3758 56.7588 13.9578C56.8826 13.5244 56.9445 13.0677 56.9445 12.5879C56.9445 11.6281 56.6736 10.8386 56.1318 10.2194C55.6055 9.58471 54.847 9.25963 53.8563 9.24414C53.3454 9.24414 52.8888 9.33703 52.4863 9.52279C52.0993 9.70855 51.7742 9.95623 51.511 10.2658C51.2633 10.5754 51.0776 10.9392 50.9537 11.3572C50.8299 11.7751 50.768 12.2241 50.768 12.704C50.768 13.2148 50.8299 13.6792 50.9537 14.0972C51.0931 14.4997 51.2943 14.8557 51.5575 15.1653C51.8206 15.4594 52.1457 15.6916 52.5327 15.8619C52.9197 16.0167 53.3686 16.0941 53.8795 16.0941Z" fill="#A3A3A3"/>
<path d="M42.7975 17.3015C42.3331 17.9207 41.7681 18.3619 41.1024 18.6251C40.4368 18.8882 39.6628 19.0121 38.7804 18.9966C37.6503 18.9656 36.706 18.6483 35.9475 18.0446C35.545 17.704 35.2277 17.3015 34.9955 16.8371C34.7788 16.3572 34.6704 15.7922 34.6704 15.142C34.6859 14.4764 34.833 13.8881 35.1116 13.3773C35.4057 12.851 35.8469 12.4175 36.4351 12.077C36.9305 11.8138 37.4878 11.628 38.107 11.5197C38.7417 11.4113 39.4306 11.3571 40.1736 11.3571H42.6814C42.7278 10.5986 42.5498 10.0336 42.1473 9.66207C41.7603 9.27507 41.2108 9.07382 40.4987 9.05834C40.2665 9.05834 40.0265 9.07383 39.7789 9.10479C39.5312 9.13575 39.299 9.19767 39.0823 9.29055C38.881 9.38343 38.703 9.51501 38.5482 9.68529C38.4089 9.84009 38.316 10.0336 38.2695 10.2658H34.9026C34.98 9.52275 35.1813 8.90354 35.5063 8.40818C35.8469 7.89733 36.2726 7.48711 36.7834 7.17751C37.2943 6.86791 37.8593 6.65118 38.4785 6.52734C39.1132 6.38802 39.7634 6.31836 40.429 6.31836C40.8005 6.31836 41.1798 6.34158 41.5668 6.38802C41.9538 6.41898 42.3331 6.49638 42.7046 6.62022C43.0761 6.72858 43.4244 6.88339 43.7495 7.08463C44.0901 7.27039 44.4074 7.51807 44.7015 7.82767C45.2279 8.4314 45.5529 9.12801 45.6768 9.91749C45.8161 10.6915 45.878 11.45 45.8626 12.1931V18.8108H42.8671L42.7975 17.3015ZM42.6814 13.4005H40.2897C40.0575 13.4005 39.7943 13.4237 39.5002 13.4702C39.2061 13.5166 38.9507 13.6018 38.7339 13.7256C38.5172 13.8494 38.3315 14.012 38.1767 14.2132C38.0373 14.4145 37.9677 14.6622 37.9677 14.9563C37.9677 15.204 38.0141 15.4207 38.107 15.6064C38.2154 15.7922 38.3469 15.947 38.5017 16.0708C38.672 16.1947 38.8733 16.2953 39.1055 16.3727C39.3377 16.4346 39.5699 16.4656 39.8021 16.4656C40.251 16.4811 40.669 16.4037 41.056 16.2334C41.4585 16.0631 41.8068 15.8232 42.1009 15.5136C42.2866 15.2659 42.426 14.9872 42.5188 14.6776C42.6272 14.3526 42.6814 13.9268 42.6814 13.4005Z" fill="#A3A3A3"/>
<path fill-rule="evenodd" clip-rule="evenodd" d="M25.7792 13.6372C25.648 15.9296 24.9068 18.1504 23.6262 20.067C22.2087 22.1884 20.194 23.8418 17.8368 24.8182C15.4796 25.7946 12.8858 26.05 10.3834 25.5523C7.88106 25.0545 5.58248 23.8259 3.77836 22.0218C1.97425 20.2177 0.745632 17.9191 0.247878 15.4167C-0.249876 12.9144 0.00558941 10.3206 0.981969 7.96338C1.95835 5.60619 3.61179 3.59147 5.7332 2.17399C7.64979 0.89336 9.87058 0.15218 12.163 0.0209961V6.49224C11.1482 6.60897 10.1719 6.96559 9.31666 7.53701C8.25596 8.24575 7.42923 9.25312 6.94105 10.4317C6.45286 11.6103 6.32512 12.9072 6.574 14.1584C6.82288 15.4096 7.43719 16.5589 8.33924 17.4609C9.2413 18.363 10.3906 18.9773 11.6418 19.2262C12.893 19.475 14.1899 19.3473 15.3685 18.8591C16.547 18.3709 17.5544 17.5442 18.2631 16.4835C18.8346 15.6283 19.1912 14.652 19.3079 13.6372H25.7792Z" fill="#A3A3A3"/>
<path fill-rule="evenodd" clip-rule="evenodd" d="M19.3467 0H14.0698V6.45005H19.3467V11.7271H25.7968L25.7968 6.45005H25.7972V0H24.6168H19.3467Z" fill="#A3A3A3"/>
</svg>
