<svg width="161" height="36" viewBox="0 0 161 36" fill="none" xmlns="http://www.w3.org/2000/svg">
<path d="M149.514 13.6767H152.389L152.501 15.1813C152.875 14.6124 153.339 14.1782 153.893 13.8788C154.462 13.5644 155.091 13.4072 155.779 13.4072C158.579 13.4072 159.971 15.1214 159.956 18.5497V19.156H159.979V24.9048H156.947V19.156H156.925C156.925 18.0781 156.738 17.3296 156.363 16.9104C156.004 16.4762 155.48 16.2592 154.791 16.2592C154.058 16.2592 153.496 16.4987 153.107 16.9778C152.733 17.4419 152.546 18.1155 152.546 18.9988V24.9048H149.514V13.6767Z" fill="#A3A3A3"/>
<path d="M141.743 25.1743C140.606 25.1743 139.588 24.9272 138.689 24.4332C137.791 23.9242 137.087 23.2281 136.578 22.3448C136.084 21.4465 135.837 20.4285 135.837 19.2907C135.837 18.153 136.084 17.1424 136.578 16.2592C137.087 15.3609 137.784 14.6648 138.667 14.1707C139.55 13.6617 140.561 13.4072 141.698 13.4072C142.836 13.4072 143.847 13.6617 144.73 14.1707C145.628 14.6648 146.324 15.3609 146.818 16.2592C147.327 17.1424 147.582 18.153 147.582 19.2907C147.582 20.4285 147.335 21.4465 146.841 22.3448C146.347 23.2281 145.651 23.9242 144.753 24.4332C143.869 24.9272 142.866 25.1743 141.743 25.1743ZM138.959 19.2907C138.959 20.204 139.213 20.9525 139.722 21.5364C140.246 22.1053 140.92 22.3897 141.743 22.3897C142.552 22.3897 143.211 22.1053 143.72 21.5364C144.229 20.9525 144.483 20.204 144.483 19.2907C144.483 18.3775 144.221 17.6365 143.697 17.0676C143.188 16.4837 142.522 16.1918 141.698 16.1918C140.905 16.1918 140.246 16.4837 139.722 17.0676C139.213 17.6365 138.959 18.3775 138.959 19.2907Z" fill="#A3A3A3"/>
<path d="M130.702 13.6766H133.734V24.9047H130.702V13.6766ZM132.229 11.9026C131.75 11.9026 131.338 11.7304 130.994 11.3861C130.65 11.0418 130.478 10.6376 130.478 10.1735C130.478 9.69439 130.65 9.2827 130.994 8.93837C131.353 8.59404 131.765 8.42188 132.229 8.42188C132.693 8.42188 133.097 8.59404 133.442 8.93837C133.786 9.2827 133.958 9.69439 133.958 10.1735C133.958 10.6376 133.786 11.0418 133.442 11.3861C133.112 11.7304 132.708 11.9026 132.229 11.9026Z" fill="#A3A3A3"/>
<path d="M126.115 25.1741C124.872 25.1741 123.921 24.8672 123.263 24.2534C122.619 23.6396 122.297 22.7563 122.297 21.6035V16.2365H120.5V13.6765H122.297V10.1733H125.329V13.6765H128.113V16.2365H125.329V20.9298C125.329 21.4239 125.426 21.7907 125.62 22.0302C125.83 22.2548 126.144 22.367 126.564 22.367C126.863 22.367 127.2 22.2323 127.574 21.9628L128.652 24.2309C128.278 24.5154 127.866 24.7399 127.417 24.9046C126.968 25.0842 126.534 25.1741 126.115 25.1741Z" fill="#A3A3A3"/>
<path d="M116.185 23.6248C115.556 24.6578 114.523 25.1743 113.086 25.1743C111.739 25.1743 110.691 24.8748 109.942 24.276C109.209 23.6772 108.842 22.8313 108.842 21.7385C108.842 20.5558 109.239 19.6575 110.032 19.0437C110.825 18.4299 111.948 18.123 113.4 18.123H116.073C115.863 16.7307 115.182 16.0346 114.029 16.0346C113.041 16.0346 112.293 16.4538 111.784 17.2921L109.111 16.3714C109.471 15.5331 110.054 14.8295 110.863 14.2606C111.686 13.6917 112.742 13.4072 114.029 13.4072C115.706 13.4072 116.978 13.8788 117.847 14.822C118.715 15.7502 119.134 17.0376 119.104 18.6844L119.059 24.9048H116.23L116.185 23.6248ZM111.941 21.6486C111.941 21.963 112.09 22.2175 112.39 22.4122C112.689 22.5918 113.101 22.6816 113.625 22.6816C114.089 22.6816 114.508 22.5693 114.883 22.3448C115.272 22.1202 115.579 21.8283 115.803 21.469C116.028 21.1097 116.14 20.7354 116.14 20.3462H114.478C113.565 20.3462 112.914 20.4585 112.525 20.683C112.135 20.8926 111.941 21.2145 111.941 21.6486Z" fill="#A3A3A3"/>
<path d="M102.624 25.1743C101.456 25.1743 100.416 24.9272 99.5023 24.4332C98.5891 23.9242 97.8705 23.2281 97.3465 22.3448C96.8375 21.4465 96.583 20.4285 96.583 19.2907C96.583 18.153 96.8375 17.1424 97.3465 16.2592C97.8555 15.3609 98.5666 14.6648 99.4799 14.1707C100.393 13.6617 101.426 13.4072 102.579 13.4072C103.732 13.4072 104.765 13.6917 105.678 14.2606C106.606 14.8295 107.28 15.6304 107.699 16.6634L104.847 17.6739C104.637 17.2397 104.315 16.8954 103.881 16.6409C103.447 16.3864 102.968 16.2592 102.444 16.2592C101.636 16.2592 100.977 16.5436 100.468 17.1125C99.9589 17.6664 99.7044 18.3925 99.7044 19.2907C99.7044 20.174 99.9589 20.9001 100.468 21.469C100.992 22.0379 101.666 22.3223 102.489 22.3223C103.013 22.3223 103.492 22.1876 103.926 21.9181C104.36 21.6337 104.682 21.2594 104.892 20.7953L107.766 21.8058C107.332 22.8688 106.658 23.6996 105.745 24.2985C104.832 24.8823 103.791 25.1743 102.624 25.1743Z" fill="#A3A3A3"/>
<path d="M91.4482 13.6766H94.4798V24.9047H91.4482V13.6766ZM92.9752 11.9026C92.4961 11.9026 92.0845 11.7304 91.7401 11.3861C91.3958 11.0418 91.2236 10.6376 91.2236 10.1735C91.2236 9.69439 91.3958 9.2827 91.7401 8.93837C92.0994 8.59404 92.5111 8.42188 92.9752 8.42188C93.4393 8.42188 93.8435 8.59404 94.1879 8.93837C94.5322 9.2827 94.7043 9.69439 94.7043 10.1735C94.7043 10.6376 94.5322 11.0418 94.1879 11.3861C93.8585 11.7304 93.4543 11.9026 92.9752 11.9026Z" fill="#A3A3A3"/>
<path d="M85.6982 8.73633H88.7298V24.9048H85.6982V8.73633Z" fill="#A3A3A3"/>
<path d="M72.3237 13.6767H75.1981L75.3104 15.2262C75.6847 14.6423 76.1563 14.1932 76.7251 13.8788C77.309 13.5644 77.9752 13.4072 78.7237 13.4072C79.7418 13.4072 80.6325 13.6468 81.396 14.1258C82.1745 14.6049 82.7659 15.2861 83.1701 16.1693C83.5892 17.0526 83.7988 18.0931 83.7988 19.2907C83.7988 20.4734 83.5892 21.5139 83.1701 22.4122C82.7659 23.2954 82.1745 23.9766 81.396 24.4557C80.6325 24.9347 79.7418 25.1743 78.7237 25.1743C77.9902 25.1743 77.3389 25.0246 76.7701 24.7251C76.2012 24.4108 75.7296 23.9691 75.3553 23.4002V29.396H72.3237V13.6767ZM75.3553 19.2907C75.3553 20.204 75.5948 20.9525 76.0739 21.5364C76.5679 22.1053 77.1967 22.3897 77.9602 22.3897C78.7387 22.3897 79.3825 22.0978 79.8915 21.5139C80.4005 20.93 80.655 20.189 80.655 19.2907C80.655 18.3925 80.4005 17.6589 79.8915 17.09C79.3974 16.5062 78.7612 16.2142 77.9827 16.2142C77.2042 16.2142 76.5679 16.4987 76.0739 17.0676C75.5948 17.6365 75.3553 18.3775 75.3553 19.2907Z" fill="#A3A3A3"/>
<path d="M58.8369 13.6767H61.7113L61.8236 15.2262C62.1979 14.6423 62.6694 14.1932 63.2383 13.8788C63.8222 13.5644 64.4884 13.4072 65.2369 13.4072C66.2549 13.4072 67.1457 13.6468 67.9092 14.1258C68.6877 14.6049 69.279 15.2861 69.6832 16.1693C70.1024 17.0526 70.312 18.0931 70.312 19.2907C70.312 20.4734 70.1024 21.5139 69.6832 22.4122C69.279 23.2954 68.6877 23.9766 67.9092 24.4557C67.1457 24.9347 66.2549 25.1743 65.2369 25.1743C64.5034 25.1743 63.8521 25.0246 63.2832 24.7251C62.7143 24.4108 62.2428 23.9691 61.8685 23.4002V29.396H58.8369V13.6767ZM61.8685 19.2907C61.8685 20.204 62.108 20.9525 62.5871 21.5364C63.0811 22.1053 63.7099 22.3897 64.4734 22.3897C65.2519 22.3897 65.8956 22.0978 66.4046 21.5139C66.9137 20.93 67.1682 20.189 67.1682 19.2907C67.1682 18.3925 66.9137 17.6589 66.4046 17.09C65.9106 16.5062 65.2744 16.2142 64.4959 16.2142C63.7174 16.2142 63.0811 16.4987 62.5871 17.0676C62.108 17.6365 61.8685 18.3775 61.8685 19.2907Z" fill="#A3A3A3"/>
<path d="M53.4657 23.6248C52.837 24.6578 51.804 25.1743 50.3668 25.1743C49.0194 25.1743 47.9715 24.8748 47.2229 24.276C46.4893 23.6772 46.1226 22.8313 46.1226 21.7385C46.1226 20.5558 46.5193 19.6575 47.3127 19.0437C48.1062 18.4299 49.229 18.123 50.6812 18.123H53.3534C53.1439 16.7307 52.4627 16.0346 51.3099 16.0346C50.3219 16.0346 49.5733 16.4538 49.0643 17.2921L46.392 16.3714C46.7513 15.5331 47.3352 14.8295 48.1436 14.2606C48.967 13.6917 50.0224 13.4072 51.3099 13.4072C52.9867 13.4072 54.2592 13.8788 55.1275 14.822C55.9958 15.7502 56.415 17.0376 56.385 18.6844L56.3401 24.9048H53.5106L53.4657 23.6248ZM49.2215 21.6486C49.2215 21.963 49.3712 22.2175 49.6706 22.4122C49.97 22.5918 50.3817 22.6816 50.9057 22.6816C51.3698 22.6816 51.789 22.5693 52.1633 22.3448C52.5525 22.1202 52.8594 21.8283 53.084 21.469C53.3085 21.1097 53.4208 20.7354 53.4208 20.3462H51.7591C50.8458 20.3462 50.1946 20.4585 49.8054 20.683C49.4161 20.8926 49.2215 21.2145 49.2215 21.6486Z" fill="#A3A3A3"/>
<path fill-rule="evenodd" clip-rule="evenodd" d="M15.4391 28.7266V22.0113H15.4391V28.7266H25.7454C32.0392 28.7266 37.1413 23.6245 37.1413 17.3307C37.1413 11.6387 32.527 7.02441 26.835 7.02441H26.2902C23.8385 7.02441 21.5767 7.8375 19.7598 9.20873C18.4045 7.85883 16.5355 7.02441 14.4716 7.02441H14.2321C10.3953 7.02441 7.25433 10.0031 6.99537 13.774C3.32269 14.1312 0.452148 17.2272 0.452148 20.9936C0.452148 25.2644 3.91432 28.7266 8.18513 28.7266H15.4391Z" fill="#A3A3A3"/>
</svg>
