<svg width="136" height="29" viewBox="0 0 136 29" fill="none" xmlns="http://www.w3.org/2000/svg">
<path d="M134.672 14.3166L131.456 14.5145C131.401 14.2397 131.283 13.9923 131.102 13.7724C130.92 13.547 130.681 13.3684 130.384 13.2364C130.093 13.099 129.744 13.0303 129.337 13.0303C128.793 13.0303 128.334 13.1457 127.96 13.3766C127.586 13.602 127.399 13.9043 127.399 14.2836C127.399 14.586 127.52 14.8416 127.762 15.0505C128.004 15.2594 128.419 15.4271 129.007 15.5535L131.3 16.0153C132.531 16.2681 133.449 16.6749 134.054 17.2356C134.658 17.7964 134.961 18.533 134.961 19.4455C134.961 20.2756 134.716 21.004 134.227 21.6307C133.743 22.2573 133.078 22.7466 132.231 23.0984C131.39 23.4447 130.42 23.6179 129.321 23.6179C127.644 23.6179 126.308 23.2688 125.313 22.5707C124.324 21.867 123.744 20.9105 123.573 19.7011L127.028 19.5197C127.133 20.031 127.386 20.4213 127.787 20.6906C128.188 20.9545 128.702 21.0864 129.329 21.0864C129.945 21.0864 130.439 20.9682 130.813 20.7319C131.192 20.49 131.385 20.1794 131.39 19.8001C131.385 19.4812 131.25 19.2201 130.986 19.0167C130.722 18.8078 130.316 18.6484 129.766 18.5385L127.572 18.1014C126.336 17.8541 125.415 17.4253 124.81 16.8151C124.211 16.2049 123.911 15.4271 123.911 14.4815C123.911 13.668 124.131 12.9671 124.571 12.3789C125.016 11.7907 125.64 11.3371 126.443 11.0183C127.251 10.6995 128.196 10.54 129.279 10.54C130.879 10.54 132.138 10.8781 133.056 11.5543C133.979 12.2304 134.518 13.1512 134.672 14.3166Z" fill="#A3A3A3"/>
<path d="M121.634 14.3166L118.418 14.5145C118.363 14.2397 118.244 13.9923 118.063 13.7724C117.882 13.547 117.643 13.3684 117.346 13.2364C117.054 13.099 116.705 13.0303 116.298 13.0303C115.754 13.0303 115.295 13.1457 114.921 13.3766C114.548 13.602 114.361 13.9043 114.361 14.2836C114.361 14.586 114.482 14.8416 114.724 15.0505C114.965 15.2594 115.38 15.4271 115.969 15.5535L118.261 16.0153C119.492 16.2681 120.41 16.6749 121.015 17.2356C121.62 17.7964 121.922 18.533 121.922 19.4455C121.922 20.2756 121.678 21.004 121.188 21.6307C120.705 22.2573 120.039 22.7466 119.193 23.0984C118.352 23.4447 117.381 23.6179 116.282 23.6179C114.605 23.6179 113.27 23.2688 112.275 22.5707C111.285 21.867 110.705 20.9105 110.535 19.7011L113.99 19.5197C114.094 20.031 114.347 20.4213 114.748 20.6906C115.15 20.9545 115.664 21.0864 116.29 21.0864C116.906 21.0864 117.401 20.9682 117.774 20.7319C118.154 20.49 118.346 20.1794 118.352 19.8001C118.346 19.4812 118.212 19.2201 117.948 19.0167C117.684 18.8078 117.277 18.6484 116.727 18.5385L114.534 18.1014C113.297 17.8541 112.376 17.4253 111.772 16.8151C111.172 16.2049 110.873 15.4271 110.873 14.4815C110.873 13.668 111.093 12.9671 111.532 12.3789C111.978 11.7907 112.602 11.3371 113.404 11.0183C114.212 10.6995 115.158 10.54 116.241 10.54C117.84 10.54 119.099 10.8781 120.017 11.5543C120.941 12.2304 121.48 13.1512 121.634 14.3166Z" fill="#A3A3A3"/>
<path d="M102.989 23.6179C101.687 23.6179 100.565 23.354 99.6251 22.8263C98.6905 22.2931 97.9704 21.54 97.4647 20.5669C96.9589 19.5884 96.7061 18.4313 96.7061 17.0955C96.7061 15.7926 96.9589 14.6492 97.4647 13.6652C97.9704 12.6812 98.6823 11.9143 99.6003 11.3646C100.524 10.8149 101.607 10.54 102.849 10.54C103.685 10.54 104.463 10.6747 105.183 10.9441C105.908 11.2079 106.541 11.6065 107.079 12.1397C107.624 12.673 108.047 13.3436 108.349 14.1517C108.651 14.9543 108.803 15.8943 108.803 16.9718V17.9365H98.1078V15.7596H105.496C105.496 15.2539 105.386 14.8059 105.166 14.4156C104.946 14.0253 104.641 13.7202 104.251 13.5003C103.866 13.2749 103.418 13.1622 102.907 13.1622C102.374 13.1622 101.901 13.2859 101.489 13.5333C101.082 13.7751 100.763 14.1022 100.532 14.5145C100.301 14.9213 100.183 15.3748 100.178 15.8751V17.9448C100.178 18.5715 100.293 19.1129 100.524 19.5692C100.76 20.0255 101.093 20.3773 101.522 20.6247C101.95 20.872 102.459 20.9957 103.047 20.9957C103.437 20.9957 103.795 20.9408 104.119 20.8308C104.443 20.7209 104.721 20.556 104.952 20.3361C105.183 20.1162 105.359 19.8468 105.48 19.528L108.728 19.7424C108.564 20.523 108.225 21.2046 107.714 21.7873C107.208 22.3645 106.554 22.8153 105.752 23.1396C104.955 23.4585 104.034 23.6179 102.989 23.6179Z" fill="#A3A3A3"/>
<path d="M86.2857 16.0482V23.3705H82.7729V10.705H86.1208V12.9396H86.2692C86.5495 12.2029 87.0195 11.6202 87.6792 11.1915C88.3389 10.7572 89.1387 10.54 90.0787 10.54C90.9583 10.54 91.7252 10.7324 92.3793 11.1172C93.0335 11.502 93.542 12.0518 93.9048 12.7664C94.2676 13.4755 94.449 14.3221 94.449 15.3061V23.3705H90.9363V15.9328C90.9418 15.1577 90.7439 14.553 90.3426 14.1187C89.9413 13.6789 89.3888 13.4591 88.6852 13.4591C88.2124 13.4591 87.7947 13.5608 87.4318 13.7642C87.0745 13.9675 86.7942 14.2644 86.5908 14.6547C86.3929 15.0395 86.2912 15.504 86.2857 16.0482Z" fill="#A3A3A3"/>
<path d="M76.4464 23.3703V10.7047H79.9591V23.3703H76.4464ZM78.211 9.07201C77.6888 9.07201 77.2407 8.89885 76.8669 8.55253C76.4986 8.2007 76.3145 7.78017 76.3145 7.29092C76.3145 6.80716 76.4986 6.39212 76.8669 6.0458C77.2407 5.69398 77.6888 5.51807 78.211 5.51807C78.7332 5.51807 79.1785 5.69398 79.5468 6.0458C79.9206 6.39212 80.1075 6.80716 80.1075 7.29092C80.1075 7.78017 79.9206 8.2007 79.5468 8.55253C79.1785 8.89885 78.7332 9.07201 78.211 9.07201Z" fill="#A3A3A3"/>
<path d="M73.946 14.3166L70.7302 14.5145C70.6752 14.2397 70.557 13.9923 70.3756 13.7724C70.1942 13.547 69.9551 13.3684 69.6582 13.2364C69.3669 13.099 69.0178 13.0303 68.611 13.0303C68.0668 13.0303 67.6078 13.1457 67.2339 13.3766C66.8601 13.602 66.6732 13.9043 66.6732 14.2836C66.6732 14.586 66.7942 14.8416 67.036 15.0505C67.2779 15.2594 67.693 15.4271 68.2812 15.5535L70.5735 16.0153C71.8049 16.2681 72.7229 16.6749 73.3276 17.2356C73.9323 17.7964 74.2346 18.533 74.2346 19.4455C74.2346 20.2756 73.99 21.004 73.5008 21.6307C73.017 22.2573 72.3518 22.7466 71.5053 23.0984C70.6642 23.4447 69.6939 23.6179 68.5945 23.6179C66.9179 23.6179 65.582 23.2688 64.587 22.5707C63.5975 21.867 63.0176 20.9105 62.8472 19.7011L66.3022 19.5197C66.4066 20.031 66.6595 20.4213 67.0608 20.6906C67.4621 20.9545 67.9761 21.0864 68.6027 21.0864C69.2184 21.0864 69.7132 20.9682 70.087 20.7319C70.4663 20.49 70.6587 20.1794 70.6642 19.8001C70.6587 19.4812 70.524 19.2201 70.2602 19.0167C69.9963 18.8078 69.5895 18.6484 69.0398 18.5385L66.8464 18.1014C65.6095 17.8541 64.6887 17.4253 64.084 16.8151C63.4848 16.2049 63.1852 15.4271 63.1852 14.4815C63.1852 13.668 63.4051 12.9671 63.8449 12.3789C64.2902 11.7907 64.9141 11.3371 65.7167 11.0183C66.5248 10.6995 67.4703 10.54 68.5533 10.54C70.153 10.54 71.4118 10.8781 72.3299 11.5543C73.2534 12.2304 73.7921 13.1512 73.946 14.3166Z" fill="#A3A3A3"/>
<path d="M57.0855 17.9774V10.7046H60.5982V23.3702H57.2257V21.0696H57.0937C56.8079 21.8117 56.3324 22.4081 55.6672 22.8589C55.0076 23.3097 54.2022 23.5351 53.2512 23.5351C52.4046 23.5351 51.6598 23.3427 51.0166 22.9579C50.3734 22.5731 49.8704 22.0261 49.5076 21.317C49.1503 20.6078 48.9689 19.7585 48.9634 18.769V10.7046H52.4761V18.1423C52.4816 18.8899 52.6822 19.4809 53.078 19.9152C53.4738 20.3494 54.0043 20.5666 54.6695 20.5666C55.0928 20.5666 55.4886 20.4704 55.8569 20.278C56.2252 20.0801 56.522 19.7887 56.7474 19.4039C56.9783 19.0191 57.091 18.5436 57.0855 17.9774Z" fill="#A3A3A3"/>
<path d="M34.2671 23.3703V6.48291H37.7798V12.8322H37.887C38.0409 12.4914 38.2636 12.145 38.5549 11.7932C38.8518 11.4359 39.2366 11.139 39.7093 10.9027C40.1876 10.6608 40.7813 10.5399 41.4904 10.5399C42.414 10.5399 43.266 10.7817 44.0466 11.2655C44.8272 11.7437 45.4512 12.4666 45.9184 13.4341C46.3857 14.3961 46.6193 15.6028 46.6193 17.054C46.6193 18.4668 46.3912 19.6597 45.9349 20.6327C45.4841 21.6002 44.8685 22.3341 44.0879 22.8344C43.3127 23.3291 42.4442 23.5765 41.4822 23.5765C40.8005 23.5765 40.2206 23.4638 39.7423 23.2384C39.2696 23.013 38.882 22.7299 38.5797 22.3891C38.2773 22.0428 38.0464 21.6937 37.887 21.3419H37.7303V23.3703H34.2671ZM37.7056 17.0376C37.7056 17.7907 37.81 18.4476 38.0189 19.0083C38.2278 19.569 38.5302 20.006 38.926 20.3194C39.3218 20.6272 39.8028 20.7812 40.369 20.7812C40.9407 20.7812 41.4245 20.6245 41.8203 20.3111C42.2161 19.9923 42.5157 19.5525 42.719 18.9918C42.9279 18.4256 43.0324 17.7742 43.0324 17.0376C43.0324 16.3064 42.9307 15.6632 42.7273 15.108C42.5239 14.5528 42.2243 14.1185 41.8285 13.8052C41.4327 13.4919 40.9462 13.3352 40.369 13.3352C39.7973 13.3352 39.3135 13.4864 38.9177 13.7887C38.5274 14.091 38.2278 14.5198 38.0189 15.075C37.81 15.6303 37.7056 16.2844 37.7056 17.0376Z" fill="#A3A3A3"/>
<path fill-rule="evenodd" clip-rule="evenodd" d="M14.2084 11.086L18.0082 14.8858L14.3902 18.5038L10.5904 14.704L14.2084 11.086ZM10.3125 7.19017L7.93021 4.80784C7.79432 4.67195 7.79432 4.45163 7.93021 4.31574L11.334 0.911977C11.4699 0.776086 11.6902 0.776086 11.8261 0.911977L23.4624 12.5483C24.7534 13.8393 24.7534 15.9324 23.4624 17.2233L18.2861 22.3997L20.6684 24.782C20.8043 24.9179 20.8043 25.1382 20.6684 25.2741L17.2646 28.6779C17.1287 28.8138 16.9084 28.8138 16.7725 28.6779L5.1362 17.0415C3.84523 15.7506 3.84522 13.6575 5.1362 12.3665L10.3125 7.19017Z" fill="#A3A3A3"/>
</svg>
