<svg width="55" height="54" viewBox="0 0 55 54" fill="none" xmlns="http://www.w3.org/2000/svg">
<g clip-path="url(#clip0_2048_26521)">
<path d="M39.0961 47.25V42.75C39.0961 40.3631 38.1479 38.0739 36.46 36.386C34.7722 34.6982 32.483 33.75 30.0961 33.75H12.0961C9.70912 33.75 7.41994 34.6982 5.73211 36.386C4.04428 38.0739 3.09607 40.3631 3.09607 42.75V47.25" stroke="#121212" stroke-width="3.38" stroke-linecap="round" stroke-linejoin="round"/>
<path d="M21.0959 24.75C26.0665 24.75 30.0959 20.7206 30.0959 15.75C30.0959 10.7794 26.0665 6.75 21.0959 6.75C16.1254 6.75 12.0959 10.7794 12.0959 15.75C12.0959 20.7206 16.1254 24.75 21.0959 24.75Z" stroke="#121212" stroke-width="3.38" stroke-linecap="round" stroke-linejoin="round"/>
<path d="M52.5959 47.25V42.75C52.5945 40.7559 51.9307 38.8187 50.709 37.2427C49.4873 35.6667 47.7767 34.541 45.8459 34.0425" stroke="#121212" stroke-width="3.38" stroke-linecap="round" stroke-linejoin="round"/>
<path d="M36.8461 7.04248C38.782 7.53816 40.4979 8.66406 41.7233 10.2427C42.9486 11.8213 43.6137 13.7628 43.6137 15.7612C43.6137 17.7596 42.9486 19.7012 41.7233 21.2798C40.4979 22.8584 38.782 23.9843 36.8461 24.48" stroke="#121212" stroke-width="3.38" stroke-linecap="round" stroke-linejoin="round"/>
</g>
<defs>
<clipPath id="clip0_2048_26521">
<rect width="54" height="54" fill="white" transform="translate(0.845947)"/>
</clipPath>
</defs>
</svg>
