<svg width="144" height="29" viewBox="0 0 144 29" fill="none" xmlns="http://www.w3.org/2000/svg">
<path d="M138.403 9.82764H141.786L137.325 22.0827C136.05 25.6122 133.967 27.1564 130.854 26.9848V24.0436C132.595 24.0681 133.477 23.3328 134.065 21.6906L129.041 9.82764H132.496L135.683 18.0631L138.403 9.82764Z" fill="#A3A3A3"/>
<path d="M123.344 9.48438C125.942 9.48438 127.977 11.2981 127.977 14.558V22.0826H124.815V14.9502C124.815 13.2835 123.81 12.4256 122.388 12.4256C120.844 12.4256 119.692 13.3325 119.692 15.4649V22.0826H116.53V9.82752H119.692V11.2001C120.427 10.0971 121.702 9.48438 123.344 9.48438Z" fill="#A3A3A3"/>
<path d="M110.501 9.82752H113.663V22.0826H110.501V20.6365C109.619 21.7395 108.296 22.4258 106.506 22.4258C103.246 22.4258 100.55 19.6071 100.55 15.9551C100.55 12.303 103.246 9.48438 106.506 9.48438C108.296 9.48438 109.619 10.1707 110.501 11.2736V9.82752ZM107.095 19.411C109.055 19.411 110.501 18.0139 110.501 15.9551C110.501 13.8962 109.055 12.4991 107.095 12.4991C105.158 12.4991 103.712 13.8962 103.712 15.9551C103.712 18.0139 105.158 19.411 107.095 19.411Z" fill="#A3A3A3"/>
<path d="M92.9772 9.48438C96.2616 9.48438 98.9577 12.3031 98.9577 15.9551C98.9577 19.6071 96.2616 22.4258 92.9772 22.4258C91.188 22.4258 89.8889 21.764 89.0065 20.6365V26.9847H85.8447V9.82752H89.0065V11.2736C89.8889 10.1461 91.188 9.48438 92.9772 9.48438ZM92.389 19.411C94.3498 19.411 95.7959 18.0139 95.7959 15.9551C95.7959 13.8962 94.3498 12.4991 92.389 12.4991C90.4527 12.4991 89.0065 13.8962 89.0065 15.9551C89.0065 18.0139 90.4527 19.411 92.389 19.411Z" fill="#A3A3A3"/>
<path d="M78.5268 9.48438C81.321 9.48438 83.1592 11.4697 83.1592 14.5335V22.0826H79.9974V14.7541C79.9974 13.308 79.2621 12.4256 77.9386 12.4256C76.5415 12.4256 75.6591 13.357 75.6591 15.1953V22.0826H72.4973V14.7541C72.4973 13.308 71.762 12.4256 70.4384 12.4256C69.0904 12.4256 68.1345 13.357 68.1345 15.1953V22.0826H64.9727V9.82752H68.1345V11.1266C68.8208 10.0971 69.9727 9.48438 71.5414 9.48438C73.061 9.48438 74.1885 10.1216 74.8748 11.2491C75.6346 10.1462 76.8601 9.48438 78.5268 9.48438Z" fill="#A3A3A3"/>
<path d="M56.2534 22.4258C52.6504 22.4258 49.7827 19.6071 49.7827 15.9551C49.7827 12.303 52.6504 9.48438 56.2534 9.48438C59.8564 9.48438 62.7486 12.303 62.7486 15.9551C62.7486 19.6071 59.8564 22.4258 56.2534 22.4258ZM56.2534 19.3375C58.1407 19.3375 59.5868 17.9404 59.5868 15.9551C59.5868 13.9697 58.1407 12.5727 56.2534 12.5727C54.3906 12.5727 52.9445 13.9697 52.9445 15.9551C52.9445 17.9404 54.3906 19.3375 56.2534 19.3375Z" fill="#A3A3A3"/>
<path d="M43.3999 22.4258C39.6743 22.4258 36.9292 19.6071 36.9292 15.9551C36.9292 12.303 39.6743 9.48438 43.3999 9.48438C45.8019 9.48438 47.8853 10.7589 48.8902 12.6462L46.1696 14.2394C45.6793 13.2344 44.6254 12.5972 43.3754 12.5972C41.4881 12.5972 40.091 13.9943 40.091 15.9551C40.091 17.8914 41.4881 19.2885 43.3754 19.2885C44.6499 19.2885 45.7039 18.6757 46.1941 17.6708L48.9392 19.2394C47.8853 21.1512 45.8019 22.4258 43.3999 22.4258Z" fill="#A3A3A3"/>
<path fill-rule="evenodd" clip-rule="evenodd" d="M9.94608 3.12598C8.88856 3.12598 8.03127 3.98327 8.03127 5.04079V11.0216H1.9402C0.882681 11.0216 0.0253906 11.8789 0.0253906 12.9364V27.0544C0.0253906 28.1119 0.88268 28.9692 1.9402 28.9692H15.8904C16.9479 28.9692 17.8052 28.1119 17.8052 27.0544V21.0735H23.8963C24.9538 21.0735 25.8111 20.2163 25.8111 19.1587V5.04079C25.8111 3.98327 24.9538 3.12598 23.8963 3.12598H9.94608ZM17.8052 21.0735V12.9364C17.8052 11.8789 16.9479 11.0216 15.8904 11.0216H8.03127V19.1587C8.03127 20.2163 8.88856 21.0735 9.94608 21.0735H17.8052Z" fill="#A3A3A3"/>
</svg>
