<svg width="255" height="44" viewBox="0 0 255 44" fill="none" xmlns="http://www.w3.org/2000/svg">
<path d="M33.1031 26.3111C33.1031 27.0166 32.8031 27.6931 32.2692 28.1919C31.7353 28.6907 31.0111 28.9709 30.256 28.9709H13.1735C12.4184 28.9709 11.6942 28.6907 11.1603 28.1919C10.6264 27.6931 10.3264 27.0166 10.3264 26.3111C10.3264 25.6057 10.6264 24.9292 11.1603 24.4304C11.6942 23.9316 12.4184 23.6514 13.1735 23.6514H30.256C31.0111 23.6514 31.7353 23.9316 32.2692 24.4304C32.8031 24.9292 33.1031 25.6057 33.1031 26.3111Z" stroke="white" stroke-width="2.77741" stroke-linecap="round" stroke-linejoin="round"/>
<path d="M21.7151 28.9707V42.2696" stroke="white" stroke-width="2.77741" stroke-linecap="round" stroke-linejoin="round"/>
<path d="M9.30786 42.27C10.1854 39.8721 11.8656 37.8015 14.1 36.3646C16.3344 34.9276 19.0045 34.2005 21.7155 34.2907C24.4263 34.2011 27.0961 34.9284 29.3304 36.3653C31.5647 37.8022 33.245 39.8724 34.123 42.27" stroke="white" stroke-width="2.77741" stroke-linecap="round" stroke-linejoin="round"/>
<path d="M4.63257 18.332V23.6516C4.63257 25.0624 5.23249 26.4155 6.30035 27.4131C7.36822 28.4107 8.81655 28.9711 10.3267 28.9711H13.1738" stroke="white" stroke-width="2.77741" stroke-linecap="round" stroke-linejoin="round"/>
<path d="M1.7854 18.332H7.47957" stroke="white" stroke-width="2.77741" stroke-linecap="round" stroke-linejoin="round"/>
<path d="M38.7976 18.332V23.6516C38.7976 25.0624 38.1977 26.4155 37.1298 27.4131C36.062 28.4107 34.6136 28.9711 33.1034 28.9711H30.2563" stroke="white" stroke-width="2.77741" stroke-linecap="round" stroke-linejoin="round"/>
<path d="M41.6444 18.332H35.9502" stroke="white" stroke-width="2.77741" stroke-linecap="round" stroke-linejoin="round"/>
<path d="M30.2558 10.3524C30.2558 8.23613 29.356 6.20655 27.7542 4.71014C26.1524 3.21372 23.9799 2.37305 21.7146 2.37305C19.4493 2.37305 17.2768 3.21372 15.675 4.71014C14.0732 6.20655 13.1733 8.23613 13.1733 10.3524V23.6513H30.2558V10.3524Z" stroke="white" stroke-width="2.77741" stroke-linecap="round" stroke-linejoin="round"/>
<path d="M72.1678 31.1851C75.329 31.1851 78.2167 29.8172 80.2532 27.6895L77.0008 24.7715C75.8154 26.1697 74.0828 27.112 72.1678 27.112C68.6418 27.112 65.663 24.0115 65.663 20.364C65.663 16.7468 68.6418 13.6464 72.1678 13.6464C74.0524 13.6464 75.8154 14.5887 77.0008 15.9869L80.2532 13.0689C78.2167 10.9107 75.329 9.57331 72.1678 9.57331C66.1493 9.57331 61.0428 14.4975 61.0428 20.364C61.0428 26.2305 66.1493 31.1851 72.1678 31.1851ZM90.8299 31.1851C95.5414 31.1851 99.4017 27.4767 99.4017 22.9477C99.4017 18.4186 95.5414 14.7407 90.8299 14.7407C86.1185 14.7407 82.2582 18.4186 82.2582 22.9477C82.2582 27.4767 86.1185 31.1851 90.8299 31.1851ZM90.8299 27.4463C88.459 27.4463 86.5137 25.4098 86.5137 22.9477C86.5137 20.4856 88.459 18.4794 90.8299 18.4794C93.2008 18.4794 95.1158 20.4856 95.1158 22.9477C95.1158 25.4098 93.2008 27.4463 90.8299 27.4463ZM106.206 30.8203H110.188L113.137 20.9415L116.085 30.8203H120.067L125.386 15.1054H121.04L118.091 24.893L114.96 15.1054H111.282L108.182 24.893L105.203 15.1054H100.856L106.206 30.8203ZM135.445 31.1851C140.156 31.1851 144.017 27.4767 144.017 22.9477C144.017 18.4186 140.156 14.7407 135.445 14.7407C130.733 14.7407 126.873 18.4186 126.873 22.9477C126.873 27.4767 130.733 31.1851 135.445 31.1851ZM135.445 27.4463C133.074 27.4463 131.129 25.4098 131.129 22.9477C131.129 20.4856 133.074 18.4794 135.445 18.4794C137.816 18.4794 139.731 20.4856 139.731 22.9477C139.731 25.4098 137.816 27.4463 135.445 27.4463ZM151.581 18.0539V15.1054H147.143V30.8203H151.581V23.3124C151.581 20.364 153.678 18.4794 156.961 18.4794V14.7407C154.56 14.7407 152.614 16.0173 151.581 18.0539ZM160.204 30.8203H164.642V26.9904L166.526 24.9234L170.448 30.8203H175.524L169.475 22.0662L175.615 15.1054H170.508L164.642 21.9142V9.57331H160.204V30.8203ZM180.412 12.9473C181.719 12.9473 182.783 11.853 182.783 10.5156C182.783 9.26935 181.719 8.14469 180.412 8.14469C179.044 8.14469 177.98 9.26935 177.98 10.5156C177.98 11.853 179.044 12.9473 180.412 12.9473ZM178.163 30.8203H182.601V15.1054H178.163V30.8203ZM196.04 14.7407C194.003 14.7407 192.271 15.6222 191.298 17.0204V15.1054H186.86V30.8203H191.298V21.519C191.298 19.8169 192.727 18.4794 194.581 18.4794C196.344 18.4794 197.59 19.8169 197.59 21.7622V30.8203H201.845V20.8199C201.845 17.2332 199.444 14.7407 196.04 14.7407ZM216.893 15.1054V17.2332C215.829 15.7438 213.793 14.7407 211.695 14.7407C207.713 14.7407 204.704 17.8107 204.704 22.1878C204.704 26.5648 207.713 29.6653 211.695 29.6653C213.793 29.6653 215.647 28.7534 216.893 27.2032V28.9661C216.893 31.0027 215.069 32.3097 212.212 32.3097C210.388 32.3097 208.534 31.7322 207.501 30.8203L205.95 33.9511C207.531 35.167 210.115 36.0485 212.881 36.0485C217.835 36.0485 221.331 33.1912 221.331 29.1485V15.1054H216.893ZM213.094 25.9265C210.875 25.9265 209.294 24.3763 209.294 22.1878C209.294 19.9992 210.875 18.4794 213.094 18.4794C215.312 18.4794 216.893 19.9992 216.893 22.1878C216.893 24.3763 215.312 25.9265 213.094 25.9265ZM253.151 9.93807H247.922L242.907 16.7772L237.892 9.93807H232.572L240.232 20.4248L232.572 30.8203H237.8L242.816 23.9811L247.831 30.8203H253.151L245.491 20.3336L253.151 9.93807Z" fill="white"/>
</svg>
