<svg width="208" height="34" viewBox="0 0 208 34" fill="none" xmlns="http://www.w3.org/2000/svg">
<path d="M24.2519 20.1017C24.2519 20.6352 24.04 21.1467 23.6628 21.5239C23.2856 21.9011 22.7741 22.113 22.2406 22.113H10.1729C9.63948 22.113 9.1279 21.9011 8.75071 21.5239C8.37352 21.1467 8.16162 20.6352 8.16162 20.1017C8.16162 19.5683 8.37352 19.0567 8.75071 18.6795C9.1279 18.3024 9.63948 18.0905 10.1729 18.0905H22.2406C22.7741 18.0905 23.2856 18.3024 23.6628 18.6795C24.04 19.0567 24.2519 19.5683 24.2519 20.1017Z" stroke="#121212" stroke-width="2.8158" stroke-linecap="round" stroke-linejoin="round"/>
<path d="M16.2068 22.1129V32.1694" stroke="#121212" stroke-width="2.8158" stroke-linecap="round" stroke-linejoin="round"/>
<path d="M7.44141 32.1693C8.06132 30.356 9.24826 28.7903 10.8267 27.7037C12.4052 26.6171 14.2915 26.0672 16.2066 26.1354C18.1216 26.0676 20.0077 26.6177 21.5861 27.7042C23.1645 28.7908 24.3515 30.3562 24.9718 32.1693" stroke="#121212" stroke-width="2.8158" stroke-linecap="round" stroke-linejoin="round"/>
<path d="M4.13892 14.0677V18.0903C4.13892 19.1572 4.56272 20.1803 5.3171 20.9347C6.07148 21.6891 7.09464 22.1129 8.16149 22.1129H10.1728" stroke="#121212" stroke-width="2.8158" stroke-linecap="round" stroke-linejoin="round"/>
<path d="M2.12769 14.0677H6.15026" stroke="#121212" stroke-width="2.8158" stroke-linecap="round" stroke-linejoin="round"/>
<path d="M28.2743 14.0677V18.0903C28.2743 19.1572 27.8505 20.1803 27.0962 20.9347C26.3418 21.6891 25.3186 22.1129 24.2518 22.1129H22.2405" stroke="#121212" stroke-width="2.8158" stroke-linecap="round" stroke-linejoin="round"/>
<path d="M30.2858 14.0677H26.2632" stroke="#121212" stroke-width="2.8158" stroke-linecap="round" stroke-linejoin="round"/>
<path d="M22.2406 8.03387C22.2406 6.43359 21.6049 4.89885 20.4733 3.76728C19.3417 2.63571 17.807 2 16.2067 2C14.6064 2 13.0717 2.63571 11.9401 3.76728C10.8086 4.89885 10.1729 6.43359 10.1729 8.03387V18.0903H22.2406V8.03387Z" stroke="#121212" stroke-width="2.8158" stroke-linecap="round" stroke-linejoin="round"/>
<path d="M52.8924 27.1303C55.5698 27.1303 58.0155 25.9718 59.7404 24.1697L56.9858 21.6983C55.9817 22.8825 54.5143 23.6806 52.8924 23.6806C49.906 23.6806 47.3831 21.0546 47.3831 17.9653C47.3831 14.9017 49.906 12.2758 52.8924 12.2758C54.4885 12.2758 55.9817 13.0739 56.9858 14.2581L59.7404 11.7866C58.0155 9.95877 55.5698 8.82601 52.8924 8.82601C47.795 8.82601 43.4699 12.9966 43.4699 17.9653C43.4699 22.934 47.795 27.1303 52.8924 27.1303ZM68.6985 27.1303C72.6889 27.1303 75.9584 23.9895 75.9584 20.1536C75.9584 16.3177 72.6889 13.2026 68.6985 13.2026C64.7081 13.2026 61.4385 16.3177 61.4385 20.1536C61.4385 23.9895 64.7081 27.1303 68.6985 27.1303ZM68.6985 23.9638C66.6904 23.9638 65.0428 22.2389 65.0428 20.1536C65.0428 18.0683 66.6904 16.3691 68.6985 16.3691C70.7066 16.3691 72.3285 18.0683 72.3285 20.1536C72.3285 22.2389 70.7066 23.9638 68.6985 23.9638ZM81.7216 26.8214H85.0941L87.5913 18.4545L90.0885 26.8214H93.4611L97.9664 13.5115H94.2849L91.7877 21.8012L89.136 13.5115H86.0209L83.395 21.8012L80.872 13.5115H77.1905L81.7216 26.8214ZM106.486 27.1303C110.476 27.1303 113.746 23.9895 113.746 20.1536C113.746 16.3177 110.476 13.2026 106.486 13.2026C102.495 13.2026 99.2256 16.3177 99.2256 20.1536C99.2256 23.9895 102.495 27.1303 106.486 27.1303ZM106.486 23.9638C104.478 23.9638 102.83 22.2389 102.83 20.1536C102.83 18.0683 104.478 16.3691 106.486 16.3691C108.494 16.3691 110.116 18.0683 110.116 20.1536C110.116 22.2389 108.494 23.9638 106.486 23.9638ZM120.152 16.0087V13.5115H116.394V26.8214H120.152V20.4625C120.152 17.9653 121.929 16.3691 124.709 16.3691V13.2026C122.675 13.2026 121.028 14.2838 120.152 16.0087ZM127.456 26.8214H131.214V23.5776L132.811 21.827L136.132 26.8214H140.431L135.308 19.407L140.508 13.5115H136.183L131.214 19.2783V8.82601H127.456V26.8214ZM144.571 11.6836C145.678 11.6836 146.579 10.7568 146.579 9.62409C146.579 8.56856 145.678 7.61602 144.571 7.61602C143.413 7.61602 142.512 8.56856 142.512 9.62409C142.512 10.7568 143.413 11.6836 144.571 11.6836ZM142.666 26.8214H146.425V13.5115H142.666V26.8214ZM157.807 13.2026C156.082 13.2026 154.615 13.9492 153.791 15.1334V13.5115H150.032V26.8214H153.791V18.9436C153.791 17.5019 155.001 16.3691 156.571 16.3691C158.065 16.3691 159.12 17.5019 159.12 19.1496V26.8214H162.724V18.3515C162.724 15.3136 160.691 13.2026 157.807 13.2026ZM175.469 13.5115V15.3136C174.568 14.0521 172.843 13.2026 171.067 13.2026C167.694 13.2026 165.146 15.8028 165.146 19.51C165.146 23.2172 167.694 25.8431 171.067 25.8431C172.843 25.8431 174.414 25.0708 175.469 23.7578V25.251C175.469 26.9759 173.924 28.0829 171.504 28.0829C169.96 28.0829 168.389 27.5937 167.514 26.8214L166.201 29.4731C167.54 30.5029 169.728 31.2495 172.071 31.2495C176.267 31.2495 179.228 28.8295 179.228 25.4055V13.5115H175.469ZM172.251 22.6765C170.372 22.6765 169.033 21.3636 169.033 19.51C169.033 17.6564 170.372 16.3691 172.251 16.3691C174.13 16.3691 175.469 17.6564 175.469 19.51C175.469 21.3636 174.13 22.6765 172.251 22.6765ZM206.178 9.13494H201.75L197.502 14.9275L193.254 9.13494H188.749L195.237 18.0168L188.749 26.8214H193.177L197.425 21.0289L201.673 26.8214H206.178L199.69 17.9396L206.178 9.13494Z" fill="#121212"/>
</svg>
