<svg width="55" height="54" viewBox="0 0 55 54" fill="none" xmlns="http://www.w3.org/2000/svg">
<path d="M29.4607 27.9761L33.207 35.4439H39.6195C39.9659 35.4434 40.3046 35.5461 40.5924 35.739C40.8803 35.9318 41.1041 36.206 41.2354 36.5266C41.3667 36.8472 41.3996 37.1996 41.3298 37.539C41.26 37.8783 41.0907 38.1891 40.8435 38.4319L35.3692 42.1871L38.2177 49.8214C38.364 50.1621 38.4 50.54 38.3205 50.9022C38.2411 51.2644 38.0502 51.5926 37.7748 51.8408C37.4993 52.0889 37.153 52.2446 36.7845 52.286C36.4161 52.3273 36.0439 52.2523 35.7202 52.0714L27.8857 47.6636L20.031 52.0759C19.7073 52.2568 19.3352 52.3318 18.9667 52.2905C18.5982 52.2491 18.2519 52.0934 17.9765 51.8453C17.701 51.5971 17.5101 51.2689 17.4307 50.9067C17.3512 50.5445 17.3872 50.1666 17.5335 49.8259L21.1357 42.1871L14.9257 38.4544C14.6769 38.2098 14.5065 37.8966 14.4362 37.5548C14.366 37.213 14.3991 36.858 14.5314 36.5351C14.6636 36.2122 14.889 35.936 15.1788 35.7416C15.4687 35.5473 15.8098 35.4436 16.1587 35.4439H22.5375L26.2837 27.9761C26.4334 27.6836 26.6609 27.438 26.9412 27.2666C27.2215 27.0951 27.5437 27.0044 27.8722 27.0044C28.2008 27.0044 28.523 27.0951 28.8033 27.2666C29.0836 27.438 29.3111 27.6836 29.4607 27.9761V27.9761Z" stroke="#121212" stroke-width="3.375" stroke-linecap="round" stroke-linejoin="round"/>
<path d="M19.4482 1.6875C18.5531 1.6875 17.6947 2.04308 17.0618 2.67601C16.4288 3.30895 16.0732 4.16739 16.0732 5.0625V16.8255C16.0727 17.3632 16.2007 17.8933 16.4464 18.3715C16.6922 18.8498 17.0487 19.2624 17.4862 19.575L27.8857 27L38.2852 19.575C38.7225 19.2626 39.0788 18.8504 39.3245 18.3725C39.5703 17.8947 39.6984 17.3651 39.6982 16.8278V5.0625C39.6982 4.16739 39.3427 3.30895 38.7097 2.67601C38.0768 2.04308 37.2183 1.6875 36.3232 1.6875H19.4482Z" stroke="#121212" stroke-width="3.375" stroke-linecap="round" stroke-linejoin="round"/>
<path d="M27.8857 1.6875V27" stroke="#121212" stroke-width="3.375" stroke-linecap="round" stroke-linejoin="round"/>
</svg>
