<svg width="30" height="34" viewBox="0 0 30 34" fill="none" xmlns="http://www.w3.org/2000/svg">
<path d="M6.77347 25.1931C8.23726 25.1931 9.42387 24.0065 9.42387 22.5428C9.42387 21.079 8.23726 19.8923 6.77347 19.8923C5.30968 19.8923 4.12305 21.079 4.12305 22.5428C4.12305 24.0065 5.30968 25.1931 6.77347 25.1931Z" stroke="black" stroke-width="2.49" stroke-linecap="round" stroke-linejoin="round"/>
<path d="M2 32.0341C2.00843 31.226 2.22156 30.4332 2.61943 29.7298C3.45789 28.2476 5.0682 27.3064 6.77075 27.3027C8.4733 27.3064 10.0836 28.2476 10.9221 29.7298C11.3199 30.4332 11.533 31.226 11.5415 32.0341" stroke="black" stroke-width="2.49" stroke-linecap="round" stroke-linejoin="round"/>
<path d="M23.1319 25.1931C24.5957 25.1931 25.7824 24.0065 25.7824 22.5428C25.7824 21.079 24.5957 19.8923 23.1319 19.8923C21.6681 19.8923 20.4814 21.079 20.4814 22.5428C20.4814 24.0065 21.6681 25.1931 23.1319 25.1931Z" stroke="black" stroke-width="2.49" stroke-linecap="round" stroke-linejoin="round"/>
<path d="M18.3594 32.0341C18.3678 31.226 18.5809 30.4332 18.9788 29.7298C19.8173 28.2476 21.4276 27.3064 23.1301 27.3027C24.8326 27.3064 26.4431 28.2476 27.2814 29.7298C27.6794 30.4332 27.8925 31.226 27.9009 32.0341" stroke="black" stroke-width="2.49" stroke-linecap="round" stroke-linejoin="round"/>
<path d="M14.9438 10.1325C16.3101 10.1325 17.4178 9.02485 17.4178 7.65848C17.4178 6.29211 16.3101 5.18445 14.9438 5.18445C13.5774 5.18445 12.4697 6.29211 12.4697 7.65848C12.4697 9.02485 13.5774 10.1325 14.9438 10.1325Z" stroke="black" stroke-width="2.49" stroke-linecap="round" stroke-linejoin="round"/>
<path d="M10.3193 16.3354C10.3275 15.5519 10.5342 14.7832 10.9199 14.1012C11.7329 12.664 13.2943 11.7514 14.9451 11.7478C16.5959 11.7514 18.1572 12.664 18.9702 14.1012C19.356 14.7832 19.5626 15.5519 19.5708 16.3354" stroke="black" stroke-width="2.49" stroke-linecap="round" stroke-linejoin="round"/>
<path d="M26.0496 2H3.84166C2.92054 2 2.17383 2.74672 2.17383 3.66783V14.6675C2.17383 15.5886 2.92054 16.3353 3.84166 16.3353H26.0496C26.9706 16.3353 27.7174 15.5886 27.7174 14.6675V3.66783C27.7174 2.74672 26.9706 2 26.0496 2Z" stroke="black" stroke-width="2.49" stroke-linecap="round" stroke-linejoin="round"/>
</svg>
