<svg width="34" height="34" viewBox="0 0 34 34" fill="none" xmlns="http://www.w3.org/2000/svg">
<path d="M8.46882 32.1879V26.1445C4.60175 23.9075 2 19.7264 2 14.9377C2 7.79238 7.79238 2 14.9377 2C19.7264 2 23.9075 4.60175 26.1445 8.46882" stroke="black" stroke-width="2.49" stroke-linecap="round" stroke-linejoin="round"/>
<path d="M21.4062 32.1881V26.7974H25.7187C26.9098 26.7974 27.8751 25.8321 27.8751 24.6411V19.2505" stroke="black" stroke-width="2.49" stroke-linecap="round" stroke-linejoin="round"/>
<path d="M13.8572 13.8596H2.04199" stroke="black" stroke-width="2.49" stroke-linecap="round" stroke-linejoin="round"/>
<path d="M13.8594 13.8593C13.8594 10.8821 16.2729 8.46863 19.2501 8.46863H29.8655C31.148 8.46863 32.1876 9.5083 32.1876 10.7908V16.9279C32.1876 18.2104 31.148 19.25 29.8655 19.25H19.2501C16.2729 19.25 13.8594 16.8365 13.8594 13.8593Z" stroke="black" stroke-width="2.49" stroke-linecap="round" stroke-linejoin="round"/>
<path d="M22.4844 8.46863V19.25" stroke="black" stroke-width="2.49" stroke-linecap="round" stroke-linejoin="round"/>
</svg>
