<svg width="34" height="28" viewBox="0 0 34 28" fill="none" xmlns="http://www.w3.org/2000/svg">
<path d="M17.0938 26.367C18.7738 26.367 20.1358 25.0051 20.1358 23.325C20.1358 21.6449 18.7738 20.283 17.0938 20.283C15.4137 20.283 14.0518 21.6449 14.0518 23.325C14.0518 25.0051 15.4137 26.367 17.0938 26.367Z" stroke="black" stroke-width="2.49" stroke-linecap="round" stroke-linejoin="round"/>
<path d="M11.3584 16.4978C12.1135 15.7226 13.0162 15.1064 14.0133 14.6858C15.0103 14.2651 16.0816 14.0483 17.1638 14.0483C18.2459 14.0483 19.3172 14.2651 20.3142 14.6858C21.3113 15.1064 22.214 15.7226 22.9691 16.4978" stroke="black" stroke-width="2.49" stroke-linecap="round" stroke-linejoin="round"/>
<path d="M6.31934 12.5739C7.73285 11.1521 9.4135 10.0238 11.2646 9.25392C13.1157 8.48401 15.1008 8.08765 17.1057 8.08765C19.1105 8.08765 21.0956 8.48401 22.9467 9.25392C24.7978 10.0238 26.4786 11.1521 27.8921 12.5739" stroke="black" stroke-width="2.49" stroke-linecap="round" stroke-linejoin="round"/>
<path d="M2 8.25441C3.98179 6.27158 6.33484 4.69868 8.92472 3.62552C11.5146 2.55237 14.2905 2 17.0939 2C19.8973 2 22.6733 2.55237 25.2632 3.62552C27.8531 4.69868 30.2061 6.27158 32.1879 8.25441" stroke="black" stroke-width="2.49" stroke-linecap="round" stroke-linejoin="round"/>
</svg>
