<svg width="34" height="34" viewBox="0 0 34 34" fill="none" xmlns="http://www.w3.org/2000/svg">
<path d="M25.2214 26.3825H29.8657C30.4815 26.3825 31.0723 26.1377 31.5077 25.7023C31.9431 25.2669 32.1879 24.6762 32.1879 24.0604V13.6107C32.1879 12.9948 31.9431 12.4042 31.5077 11.9687C31.0723 11.5332 30.4815 11.2886 29.8657 11.2886H4.32214C3.70626 11.2886 3.11563 11.5332 2.68014 11.9687C2.24465 12.4042 2 12.9948 2 13.6107V24.0604C2 24.6762 2.24465 25.2669 2.68014 25.7023C3.11563 26.1377 3.70626 26.3825 4.32214 26.3825H8.96643" stroke="black" stroke-width="2.49" stroke-linecap="round" stroke-linejoin="round"/>
<path d="M8.9668 22.8993V31.0268C8.9668 31.3347 9.08913 31.6301 9.30688 31.8479C9.5246 32.0655 9.81993 32.1879 10.1279 32.1879H24.0607C24.3686 32.1879 24.664 32.0655 24.8818 31.8479C25.0994 31.6301 25.2218 31.3347 25.2218 31.0268V22.8993H8.9668Z" stroke="black" stroke-width="2.49" stroke-linecap="round" stroke-linejoin="round"/>
<path d="M25.2218 11.2886V3.16107C25.2218 2.85314 25.0994 2.55781 24.8818 2.34007C24.664 2.12233 24.3686 2 24.0607 2H10.1279C9.81993 2 9.5246 2.12233 9.30688 2.34007C9.08913 2.55781 8.9668 2.85314 8.9668 3.16107V11.2886" stroke="black" stroke-width="2.49" stroke-linecap="round" stroke-linejoin="round"/>
<path d="M26.3827 17.0939H24.0605" stroke="black" stroke-width="2.49" stroke-linecap="round" stroke-linejoin="round"/>
</svg>
