<svg width="55" height="55" viewBox="0 0 55 55" fill="none" xmlns="http://www.w3.org/2000/svg">
<path d="M23.8804 38.7493V46.0452C23.8709 46.3194 23.7553 46.5792 23.5579 46.7698C23.3605 46.9603 23.0968 47.0669 22.8225 47.0665H15.1618C13.9023 46.8545 12.762 46.1934 11.9517 45.2061" stroke="black" stroke-width="3.9" stroke-linecap="round" stroke-linejoin="round"/>
<path d="M11.9517 45.2423C11.9517 45.2423 7.9755 41.7766 17.2047 32.5476H21.3269L15.1619 22.3699H3.81689L6.91762 26.3461C6.91762 26.3461 4.83831 26.7109 4.83831 29.5927C5.92895 35.3015 8.36781 40.667 11.9517 45.2423Z" stroke="black" stroke-width="3.9" stroke-linecap="round" stroke-linejoin="round"/>
<path d="M39.7485 25.2153L45.1476 21.5673C45.2681 21.5141 45.3987 21.4866 45.5305 21.4866C45.6626 21.4866 45.7929 21.5141 45.9137 21.5673C46.0546 21.5838 46.1901 21.6317 46.3098 21.7075C46.4299 21.7832 46.5313 21.8849 46.6069 22.0051L50.8018 28.2795C51.0526 28.7839 51.1829 29.3396 51.1829 29.9029C51.1829 30.4661 51.0526 31.0217 50.8018 31.5262" stroke="black" stroke-width="3.9" stroke-linecap="round" stroke-linejoin="round"/>
<path d="M50.9482 31.1614C50.9482 31.1614 49.7809 35.9037 37.7063 34.8093V31.6356L30.6294 40.9011L37.3416 51.2248L37.7063 46.3732C37.7063 46.3732 39.0561 48.0146 41.3542 46.3732C45.2086 41.7476 48.4345 36.6326 50.9482 31.1614Z" stroke="black" stroke-width="3.9" stroke-linecap="round" stroke-linejoin="round"/>
<path d="M17.8614 17.5907L12.9368 15.3289C12.6939 15.2034 12.5067 14.9916 12.4122 14.735C12.3177 14.4784 12.3226 14.1958 12.4261 13.9427L16.5847 5.62548C16.8625 5.13305 17.251 4.71194 17.7195 4.3954C18.1879 4.07886 18.7236 3.87555 19.2841 3.80151" stroke="black" stroke-width="3.9" stroke-linecap="round" stroke-linejoin="round"/>
<path d="M19.2837 3.802C19.2837 3.802 23.7706 3.802 29.4614 14.7457L26.5066 18.3937H38.7637L43.1046 6.9392L37.9975 8.50782C37.9233 7.71632 37.6367 6.95953 37.1679 6.31746C36.6992 5.67535 36.0658 5.17178 35.3345 4.85989C32.8202 4.02751 30.1732 3.6688 27.528 3.802H19.2837Z" stroke="black" stroke-width="3.9" stroke-linecap="round" stroke-linejoin="round"/>
</svg>
