<svg width="34" height="34" viewBox="0 0 34 34" fill="none" xmlns="http://www.w3.org/2000/svg">
<path d="M17.0938 32.1878V19.9966C17.0938 19.2267 17.3996 18.4884 17.9439 17.9441C18.4883 17.3997 19.2266 17.0939 19.9964 17.0939C20.7663 17.0939 21.5046 17.3997 22.0489 17.9441C22.5933 18.4884 22.8991 19.2267 22.8991 19.9966V26.3824H27.5434C28.7751 26.3824 29.9563 26.8717 30.8274 27.7428C31.6984 28.6138 32.1877 29.7951 32.1877 31.0267V32.1878" stroke="black" stroke-width="2.49" stroke-linecap="round" stroke-linejoin="round"/>
<path d="M15.3695 8.02629C12.4749 4.84103 8.59075 2.72501 4.34483 2.02032C4.05593 1.97941 3.76162 2.00043 3.48148 2.08199C3.20131 2.16356 2.94172 2.3038 2.71993 2.49339C2.49416 2.6865 2.3129 2.92623 2.18863 3.19609C2.06436 3.46592 2.00002 3.75951 2.00004 4.05658V20.6141C1.99695 21.1226 2.18233 21.6142 2.52039 21.9941C2.85845 22.3739 3.32522 22.6151 3.83062 22.671C7.14689 23.1208 10.2654 24.4331 12.8869 26.4505" stroke="black" stroke-width="2.49" stroke-linecap="round" stroke-linejoin="round"/>
<path d="M15.3701 14.443V8.02649" stroke="black" stroke-width="2.49" stroke-linecap="round" stroke-linejoin="round"/>
<path d="M26.9081 22.671C27.4134 22.6151 27.8801 22.3739 28.2182 21.9941C28.5563 21.6142 28.7416 21.1226 28.7386 20.6141V4.05658C28.7386 3.75951 28.6743 3.46592 28.55 3.19609C28.4258 2.92623 28.2444 2.6865 28.0187 2.49339C27.797 2.3038 27.5374 2.16356 27.2571 2.08199C26.977 2.00043 26.6828 1.97941 26.3937 2.02032C22.1479 2.72501 18.2637 4.84103 15.3691 8.02629" stroke="black" stroke-width="2.49" stroke-linecap="round" stroke-linejoin="round"/>
</svg>
