<svg width="35" height="35" viewBox="0 0 35 35" fill="none" xmlns="http://www.w3.org/2000/svg">
<path d="M5.8891 10.5334H25.6273V22.1442C25.6273 23.3759 25.138 24.5571 24.267 25.4281C23.3961 26.2992 22.2148 26.7884 20.983 26.7884H9.37231C8.14058 26.7884 6.95928 26.2992 6.08832 25.4281C5.21733 24.5571 4.72803 23.3759 4.72803 22.1442V11.6945C4.72803 11.3866 4.85036 11.0912 5.0681 10.8735C5.28583 10.6558 5.58116 10.5334 5.8891 10.5334Z" stroke="black" stroke-width="2.49" stroke-linecap="round" stroke-linejoin="round"/>
<path d="M2.40601 32.5938H32.5939" stroke="black" stroke-width="2.49" stroke-linecap="round" stroke-linejoin="round"/>
<path d="M25.6274 10.5334H27.9496C29.1812 10.5334 30.3625 11.0227 31.2336 11.8937C32.1046 12.7647 32.5939 13.946 32.5939 15.1777C32.5939 16.4095 32.1046 17.5908 31.2336 18.4617C30.3625 19.3327 29.1812 19.822 27.9496 19.822H25.6274" stroke="black" stroke-width="2.49" stroke-linecap="round" stroke-linejoin="round"/>
<path d="M8.21143 2.40601V4.72815" stroke="black" stroke-width="2.49" stroke-linecap="round" stroke-linejoin="round"/>
<path d="M19.822 2.40601V4.72815" stroke="black" stroke-width="2.49" stroke-linecap="round" stroke-linejoin="round"/>
<path d="M14.0166 2.40601V4.72815" stroke="black" stroke-width="2.49" stroke-linecap="round" stroke-linejoin="round"/>
</svg>
