<svg width="34" height="34" viewBox="0 0 34 34" fill="none" xmlns="http://www.w3.org/2000/svg">
<path d="M5.48334 10.1274H25.2215V21.7382C25.2215 22.9699 24.7323 24.1511 23.8613 25.0221C22.9903 25.8932 21.809 26.3824 20.5773 26.3824H8.96655C7.73482 26.3824 6.55352 25.8932 5.68255 25.0221C4.81156 24.1511 4.32227 22.9699 4.32227 21.7382V11.2885C4.32227 10.9806 4.4446 10.6852 4.66234 10.4675C4.88007 10.2498 5.1754 10.1274 5.48334 10.1274Z" stroke="black" stroke-width="2.49" stroke-linecap="round" stroke-linejoin="round"/>
<path d="M2 32.1879H32.1879" stroke="black" stroke-width="2.49" stroke-linecap="round" stroke-linejoin="round"/>
<path d="M25.2217 10.1274H27.5438C28.7755 10.1274 29.9568 10.6167 30.8278 11.4877C31.6988 12.3587 32.1881 13.54 32.1881 14.7717C32.1881 16.0035 31.6988 17.1848 30.8278 18.0557C29.9568 18.9267 28.7755 19.416 27.5438 19.416H25.2217" stroke="black" stroke-width="2.49" stroke-linecap="round" stroke-linejoin="round"/>
<path d="M7.80566 2V4.32214" stroke="black" stroke-width="2.49" stroke-linecap="round" stroke-linejoin="round"/>
<path d="M19.416 2V4.32214" stroke="black" stroke-width="2.49" stroke-linecap="round" stroke-linejoin="round"/>
<path d="M13.6104 2V4.32214" stroke="black" stroke-width="2.49" stroke-linecap="round" stroke-linejoin="round"/>
</svg>
