<svg width="33" height="33" viewBox="0 0 33 33" fill="none" xmlns="http://www.w3.org/2000/svg">
<path d="M20.8096 6.17986C20.8096 7.28842 21.2499 8.35159 22.0338 9.13546C22.8177 9.91934 23.8809 10.3597 24.9894 10.3597C26.098 10.3597 27.1612 9.91934 27.945 9.13546C28.7289 8.35159 29.1693 7.28842 29.1693 6.17986C29.1693 5.07129 28.7289 4.00813 27.945 3.22425C27.1612 2.44038 26.098 2 24.9894 2C23.8809 2 22.8177 2.44038 22.0338 3.22425C21.2499 4.00813 20.8096 5.07129 20.8096 6.17986Z" stroke="black" stroke-width="2.49" stroke-linecap="round" stroke-linejoin="round"/>
<path d="M31.2588 20.81V18.72C31.2588 15.2572 28.4518 12.4501 24.989 12.4501C22.6277 12.4501 20.5713 13.7554 19.502 15.6838" stroke="black" stroke-width="2.49" stroke-linecap="round" stroke-linejoin="round"/>
<path d="M4.08984 6.17986C4.08984 7.28842 4.53022 8.35159 5.3141 9.13546C6.09797 9.91934 7.16113 10.3597 8.2697 10.3597C9.37827 10.3597 10.4414 9.91934 11.2253 9.13546C12.0092 8.35159 12.4496 7.28842 12.4496 6.17986C12.4496 5.07129 12.0092 4.00813 11.2253 3.22425C10.4414 2.44038 9.37827 2 8.2697 2C7.16113 2 6.09797 2.44038 5.3141 3.22425C4.53022 4.00813 4.08984 5.07129 4.08984 6.17986Z" stroke="black" stroke-width="2.49" stroke-linecap="round" stroke-linejoin="round"/>
<path d="M2 20.81V18.72C2 15.2572 4.80714 12.4501 8.26992 12.4501C10.6312 12.4501 12.6876 13.7554 13.7569 15.6838" stroke="black" stroke-width="2.49" stroke-linecap="round" stroke-linejoin="round"/>
<path d="M12.4521 18.7148C12.4521 19.8233 12.8925 20.8865 13.6764 21.6704C14.4603 22.4543 15.5234 22.8946 16.632 22.8946C17.7406 22.8946 18.8037 22.4543 19.5876 21.6704C20.3715 20.8865 20.8119 19.8233 20.8119 18.7148C20.8119 18.1659 20.7037 17.6223 20.4937 17.1152C20.2836 16.6081 19.9757 16.1473 19.5876 15.7592C19.1995 15.371 18.7387 15.0631 18.2316 14.8531C17.7244 14.643 17.1809 14.5349 16.632 14.5349C16.0831 14.5349 15.5396 14.643 15.0324 14.8531C14.5253 15.0631 14.0645 15.371 13.6764 15.7592C13.2883 16.1473 12.9804 16.6081 12.7703 17.1152C12.5603 17.6223 12.4521 18.1659 12.4521 18.7148Z" stroke="black" stroke-width="2.49" stroke-linecap="round" stroke-linejoin="round"/>
<path d="M22.9021 31.2542C22.9021 27.7914 20.095 24.9844 16.6322 24.9844C13.1694 24.9844 10.3623 27.7914 10.3623 31.2542" stroke="black" stroke-width="2.49" stroke-linecap="round" stroke-linejoin="round"/>
</svg>
