<svg width="34" height="25" viewBox="0 0 34 25" fill="none" xmlns="http://www.w3.org/2000/svg">
<path d="M31.0268 2H3.16107C2.51983 2 2 2.51984 2 3.16107V21.7382C2 22.3794 2.51983 22.8993 3.16107 22.8993H31.0268C31.6679 22.8993 32.1879 22.3794 32.1879 21.7382V3.16107C32.1879 2.51984 31.6679 2 31.0268 2Z" stroke="black" stroke-width="2.49" stroke-linecap="round" stroke-linejoin="round"/>
<path d="M20.5774 6.64429H7.8056C7.16437 6.64429 6.64453 7.16412 6.64453 7.80536V17.0939C6.64453 17.7352 7.16437 18.255 7.8056 18.255H20.5774C21.2186 18.255 21.7385 17.7352 21.7385 17.0939V7.80536C21.7385 7.16412 21.2186 6.64429 20.5774 6.64429Z" stroke="black" stroke-width="2.49" stroke-linecap="round" stroke-linejoin="round"/>
<path d="M26.3828 7.8053H27.5439" stroke="black" stroke-width="2.49" stroke-linecap="round" stroke-linejoin="round"/>
<path d="M26.3828 12.4496H27.5439" stroke="black" stroke-width="2.49" stroke-linecap="round" stroke-linejoin="round"/>
</svg>
