<svg width="35" height="35" viewBox="0 0 35 35" fill="none" xmlns="http://www.w3.org/2000/svg">
<path d="M25.6274 26.7885H30.2717C30.8876 26.7885 31.4783 26.5438 31.9137 26.1084C32.3491 25.673 32.5939 25.0822 32.5939 24.4664V14.0167C32.5939 13.4008 32.3491 12.8102 31.9137 12.3747C31.4783 11.9392 30.8876 11.6946 30.2717 11.6946H4.72815C4.11227 11.6946 3.52163 11.9392 3.08615 12.3747C2.65066 12.8102 2.40601 13.4008 2.40601 14.0167V24.4664C2.40601 25.0822 2.65066 25.673 3.08615 26.1084C3.52163 26.5438 4.11227 26.7885 4.72815 26.7885H9.37243" stroke="black" stroke-width="2.49" stroke-linecap="round" stroke-linejoin="round"/>
<path d="M9.37231 23.3052V31.4327C9.37231 31.7406 9.49465 32.036 9.71239 32.2538C9.93012 32.4714 10.2254 32.5937 10.5334 32.5937H24.4662C24.7742 32.5937 25.0695 32.4714 25.2874 32.2538C25.5049 32.036 25.6273 31.7406 25.6273 31.4327V23.3052H9.37231Z" stroke="black" stroke-width="2.49" stroke-linecap="round" stroke-linejoin="round"/>
<path d="M25.6273 11.6946V3.56708C25.6273 3.25914 25.5049 2.96382 25.2874 2.74608C25.0695 2.52833 24.7742 2.40601 24.4662 2.40601H10.5334C10.2254 2.40601 9.93012 2.52833 9.71239 2.74608C9.49465 2.96382 9.37231 3.25914 9.37231 3.56708V11.6946" stroke="black" stroke-width="2.49" stroke-linecap="round" stroke-linejoin="round"/>
<path d="M26.7885 17.5H24.4663" stroke="black" stroke-width="2.49" stroke-linecap="round" stroke-linejoin="round"/>
</svg>
