<svg width="55" height="55" viewBox="0 0 55 55" fill="none" xmlns="http://www.w3.org/2000/svg">
<path d="M17.2589 31.4921C21.0071 31.4921 24.0456 28.4536 24.0456 24.7054C24.0456 20.9572 21.0071 17.9187 17.2589 17.9187C13.5107 17.9187 10.4722 20.9572 10.4722 24.7054C10.4722 28.4536 13.5107 31.4921 17.2589 31.4921Z" stroke="black" stroke-width="3.9" stroke-linecap="round" stroke-linejoin="round"/>
<path d="M3.86035 51.1465C3.88406 48.8766 4.48275 46.6494 5.6005 44.6736C7.95599 40.5093 12.4798 37.8651 17.2628 37.8547C22.0457 37.8651 26.5695 40.5093 28.925 44.6736C30.0428 46.6494 30.6414 48.8766 30.6652 51.1465" stroke="black" stroke-width="3.9" stroke-linecap="round" stroke-linejoin="round"/>
<path d="M38.0361 6.99833V4.00317" stroke="black" stroke-width="3.9" stroke-linecap="round" stroke-linejoin="round"/>
<path d="M48.2529 10.6743L50.7043 8.95337" stroke="black" stroke-width="3.9" stroke-linecap="round" stroke-linejoin="round"/>
<path d="M27.8128 10.6743L25.3613 8.95337" stroke="black" stroke-width="3.9" stroke-linecap="round" stroke-linejoin="round"/>
<path d="M45.4612 20.4132C45.4765 16.2977 41.9933 12.8731 37.8785 12.9586C33.7637 13.0441 30.4256 16.6102 30.6119 20.7216C30.7318 23.368 32.3503 25.8544 34.7217 27.0351V30.6857C34.7273 30.9015 34.8169 31.1066 34.9716 31.2573C35.1262 31.408 35.3336 31.4922 35.5495 31.4922H40.5158C40.7319 31.4922 40.9392 31.408 41.094 31.2573C41.2484 31.1066 41.3381 30.9015 41.3436 30.6857V26.9715C43.7895 25.7538 45.4272 23.1454 45.4612 20.4132Z" stroke="black" stroke-width="3.9" stroke-linecap="round" stroke-linejoin="round"/>
</svg>
