<svg width="35" height="35" viewBox="0 0 35 35" fill="none" xmlns="http://www.w3.org/2000/svg">
<path d="M9.32718 25.7036C10.791 25.7036 11.9776 24.517 11.9776 23.0533C11.9776 21.5895 10.791 20.4028 9.32718 20.4028C7.8634 20.4028 6.67676 21.5895 6.67676 23.0533C6.67676 24.517 7.8634 25.7036 9.32718 25.7036Z" stroke="black" stroke-width="2.49" stroke-linecap="round" stroke-linejoin="round"/>
<path d="M4.5542 32.5446C4.56263 31.7365 4.77575 30.9437 5.17363 30.2403C6.01209 28.7581 7.6224 27.8169 9.32495 27.8132C11.0275 27.8169 12.6378 28.7581 13.4763 30.2403C13.8741 30.9437 14.0872 31.7365 14.0957 32.5446" stroke="black" stroke-width="2.49" stroke-linecap="round" stroke-linejoin="round"/>
<path d="M25.6866 25.7036C27.1504 25.7036 28.3371 24.517 28.3371 23.0533C28.3371 21.5895 27.1504 20.4028 25.6866 20.4028C24.2228 20.4028 23.0361 21.5895 23.0361 23.0533C23.0361 24.517 24.2228 25.7036 25.6866 25.7036Z" stroke="black" stroke-width="2.49" stroke-linecap="round" stroke-linejoin="round"/>
<path d="M20.9135 32.5446C20.9219 31.7365 21.135 30.9437 21.5329 30.2403C22.3713 28.7581 23.9817 27.8169 25.6841 27.8132C27.3867 27.8169 28.9971 28.7581 29.8354 30.2403C30.2334 30.9437 30.4466 31.7365 30.455 32.5446" stroke="black" stroke-width="2.49" stroke-linecap="round" stroke-linejoin="round"/>
<path d="M17.4977 10.6429C18.8641 10.6429 19.9717 9.53523 19.9717 8.16886C19.9717 6.80249 18.8641 5.69482 17.4977 5.69482C16.1313 5.69482 15.0237 6.80249 15.0237 8.16886C15.0237 9.53523 16.1313 10.6429 17.4977 10.6429Z" stroke="black" stroke-width="2.49" stroke-linecap="round" stroke-linejoin="round"/>
<path d="M12.8739 16.8459C12.8821 16.0624 13.0887 15.2937 13.4745 14.6117C14.2875 13.1745 15.8488 12.2619 17.4996 12.2583C19.1504 12.2619 20.7118 13.1745 21.5248 14.6117C21.9105 15.2937 22.1172 16.0624 22.1254 16.8459" stroke="black" stroke-width="2.49" stroke-linecap="round" stroke-linejoin="round"/>
<path d="M28.6041 2.5105H6.3961C5.47498 2.5105 4.72827 3.25722 4.72827 4.17833V15.178C4.72827 16.0991 5.47498 16.8458 6.3961 16.8458H28.6041C29.525 16.8458 30.2718 16.0991 30.2718 15.178V4.17833C30.2718 3.25722 29.525 2.5105 28.6041 2.5105Z" stroke="black" stroke-width="2.49" stroke-linecap="round" stroke-linejoin="round"/>
</svg>
