<svg width="55" height="55" viewBox="0 0 55 55" fill="none" xmlns="http://www.w3.org/2000/svg">
<path d="M50.0575 51.2251C48.5248 46.4465 45.5147 42.2782 41.461 39.321C37.4068 36.3638 32.5184 34.7703 27.5004 34.7703C22.4823 34.7703 17.5939 36.3638 13.5399 39.321C9.4859 42.2782 6.47571 46.4465 4.94336 51.2251H50.0575Z" stroke="black" stroke-width="3.9" stroke-linecap="round" stroke-linejoin="round"/>
<path d="M27.5002 34.8C36.0314 34.8 42.9474 27.8841 42.9474 19.353C42.9474 10.8218 36.0314 3.90601 27.5002 3.90601C18.9691 3.90601 12.0532 10.8218 12.0532 19.353C12.0532 27.8841 18.9691 34.8 27.5002 34.8Z" stroke="black" stroke-width="3.9" stroke-linecap="round" stroke-linejoin="round"/>
<path d="M32.5444 25.3298C32.5444 25.3298 31.2627 27.8518 27.5005 27.8518C23.7382 27.8518 22.4565 25.3298 22.4565 25.3298" stroke="black" stroke-width="3.9" stroke-linecap="round" stroke-linejoin="round"/>
<path d="M42.6676 16.412C42.6329 16.4122 42.5986 16.4123 42.5643 16.4123C38.0741 16.4123 34.043 14.4479 31.2831 11.3317C28.5233 14.448 24.4921 16.4124 20.002 16.4124C17.3947 16.4124 14.942 15.75 12.8032 14.5843C14.8127 8.3869 20.6331 3.90601 27.5001 3.90601C35.0256 3.90601 41.2941 9.28746 42.6676 16.412Z" stroke="black" stroke-width="3.9" stroke-linecap="round" stroke-linejoin="round"/>
</svg>
