<svg width="55" height="55" viewBox="0 0 55 55" fill="none" xmlns="http://www.w3.org/2000/svg">
<path d="M28.7904 50.8002C27.9518 51.1236 27.0227 51.1236 26.1841 50.8002C19.6402 48.2876 14.0123 43.8495 10.0439 38.0713C6.07551 32.2932 3.95328 25.4472 3.95753 18.4376V7.57773C3.95753 6.61767 4.33891 5.69688 5.01779 5.01803C5.69667 4.33915 6.61742 3.95776 7.57748 3.95776H47.3971C48.357 3.95776 49.2779 4.33915 49.9568 5.01803C50.6357 5.69688 51.0172 6.61767 51.0172 7.57773V18.4376C51.0212 25.4472 48.8991 32.2932 44.9308 38.0713C40.9621 43.8495 35.3344 48.2876 28.7904 50.8002Z" stroke="black" stroke-width="3.9" stroke-linecap="round" stroke-linejoin="round"/>
<path d="M38.4498 16.55L23.8498 32.975L16.5498 27.5" stroke="black" stroke-width="3.9" stroke-linecap="round" stroke-linejoin="round"/>
</svg>
