<svg width="35" height="35" viewBox="0 0 35 35" fill="none" xmlns="http://www.w3.org/2000/svg">
<path d="M21.6798 7.05266C21.6798 8.16123 22.1202 9.22439 22.9041 10.0083C23.6879 10.7921 24.7511 11.2325 25.8597 11.2325C26.9682 11.2325 28.0314 10.7921 28.8153 10.0083C29.5991 9.22439 30.0395 8.16123 30.0395 7.05266C30.0395 5.94409 29.5991 4.88093 28.8153 4.09705C28.0314 3.31318 26.9682 2.8728 25.8597 2.8728C24.7511 2.8728 23.6879 3.31318 22.9041 4.09705C22.1202 4.88093 21.6798 5.94409 21.6798 7.05266Z" stroke="black" stroke-width="2.49" stroke-linecap="round" stroke-linejoin="round"/>
<path d="M32.1294 21.6827V19.5927C32.1294 16.1299 29.3224 13.3228 25.8596 13.3228C23.4983 13.3228 21.4419 14.6281 20.3726 16.5564" stroke="black" stroke-width="2.49" stroke-linecap="round" stroke-linejoin="round"/>
<path d="M4.96045 7.05266C4.96045 8.16123 5.40083 9.22439 6.1847 10.0083C6.96858 10.7921 8.03174 11.2325 9.14031 11.2325C10.2489 11.2325 11.312 10.7921 12.0959 10.0083C12.8798 9.22439 13.3202 8.16123 13.3202 7.05266C13.3202 5.94409 12.8798 4.88093 12.0959 4.09705C11.312 3.31318 10.2489 2.8728 9.14031 2.8728C8.03174 2.8728 6.96858 3.31318 6.1847 4.09705C5.40083 4.88093 4.96045 5.94409 4.96045 7.05266Z" stroke="black" stroke-width="2.49" stroke-linecap="round" stroke-linejoin="round"/>
<path d="M2.87036 21.6827V19.5927C2.87036 16.1299 5.6775 13.3228 9.14028 13.3228C11.5016 13.3228 13.558 14.6281 14.6273 16.5564" stroke="black" stroke-width="2.49" stroke-linecap="round" stroke-linejoin="round"/>
<path d="M13.3224 19.5876C13.3224 20.6961 13.7628 21.7593 14.5466 22.5432C15.3305 23.3271 16.3937 23.7674 17.5022 23.7674C18.6108 23.7674 19.674 23.3271 20.4578 22.5432C21.2417 21.7593 21.6821 20.6961 21.6821 19.5876C21.6821 19.0387 21.574 18.4951 21.3639 17.988C21.1539 17.4809 20.846 17.0201 20.4578 16.632C20.0697 16.2438 19.6089 15.9359 19.1018 15.7259C18.5947 15.5158 18.0512 15.4077 17.5022 15.4077C16.9533 15.4077 16.4098 15.5158 15.9027 15.7259C15.3956 15.9359 14.9348 16.2438 14.5466 16.632C14.1585 17.0201 13.8506 17.4809 13.6406 17.988C13.4305 18.4951 13.3224 19.0387 13.3224 19.5876Z" stroke="black" stroke-width="2.49" stroke-linecap="round" stroke-linejoin="round"/>
<path d="M23.7727 32.127C23.7727 28.6642 20.9656 25.8572 17.5028 25.8572C14.04 25.8572 11.2329 28.6642 11.2329 32.127" stroke="black" stroke-width="2.49" stroke-linecap="round" stroke-linejoin="round"/>
</svg>
