<svg width="35" height="35" viewBox="0 0 35 35" fill="none" xmlns="http://www.w3.org/2000/svg">
<path d="M17.5 32.5939V20.4027C17.5 19.6328 17.8058 18.8945 18.3502 18.3502C18.8945 17.8058 19.6328 17.5 20.4027 17.5C21.1725 17.5 21.9108 17.8058 22.4552 18.3502C22.9995 18.8945 23.3054 19.6328 23.3054 20.4027V26.7886H27.9496C29.1813 26.7886 30.3626 27.2778 31.2336 28.1489C32.1047 29.0199 32.5939 30.2012 32.5939 31.4329V32.5939" stroke="black" stroke-width="2.49" stroke-linecap="round" stroke-linejoin="round"/>
<path d="M15.7756 8.43229C12.8811 5.24703 8.99688 3.13101 4.75096 2.42633C4.46206 2.38541 4.16775 2.40644 3.88761 2.488C3.60744 2.56956 3.34785 2.7098 3.12606 2.8994C2.90029 3.09251 2.71903 3.33223 2.59476 3.60209C2.47049 3.87193 2.40615 4.16552 2.40617 4.46259V21.0201C2.40308 21.5286 2.58846 22.0202 2.92651 22.4001C3.26457 22.7799 3.73135 23.0211 4.23674 23.077C7.55302 23.5268 10.6715 24.8391 13.293 26.8565" stroke="black" stroke-width="2.49" stroke-linecap="round" stroke-linejoin="round"/>
<path d="M15.7766 14.8489V8.43237" stroke="black" stroke-width="2.49" stroke-linecap="round" stroke-linejoin="round"/>
<path d="M27.3143 23.077C27.8196 23.0211 28.2864 22.7799 28.6245 22.4001C28.9626 22.0202 29.1479 21.5286 29.1448 21.0201V4.46259C29.1448 4.16552 29.0805 3.87193 28.9563 3.60209C28.8321 3.33223 28.6507 3.09251 28.425 2.8994C28.2032 2.7098 27.9436 2.56956 27.6633 2.488C27.3833 2.40644 27.0891 2.38541 26.8 2.42633C22.5541 3.13101 18.67 5.24703 15.7754 8.43229" stroke="black" stroke-width="2.49" stroke-linecap="round" stroke-linejoin="round"/>
</svg>
