<svg width="55" height="55" viewBox="0 0 55 55" fill="none" xmlns="http://www.w3.org/2000/svg">
<path d="M18.8115 7.19946C23.6095 7.19946 27.4991 11.089 27.4991 15.887L27.4988 39.504C27.4988 44.9951 23.0473 49.4466 17.5561 49.4466C12.0648 49.4466 7.61323 44.9951 7.61323 39.504C7.61323 39.2226 7.62495 38.9441 7.64787 38.6686C5.57856 36.4455 4.27295 32.0971 4.27295 28.469C4.27295 23.5251 6.69712 18.7182 10.1745 16.8287C10.1411 16.5194 10.124 16.2052 10.124 15.887C10.124 11.089 14.0136 7.19946 18.8115 7.19946Z" stroke="black" stroke-width="3.9" stroke-linecap="round" stroke-linejoin="round"/>
<path d="M14.7654 22.7333C13.4898 22.4425 10.5992 20.5468 10.1631 16.8511" stroke="black" stroke-width="3.9" stroke-linecap="round" stroke-linejoin="round"/>
<path d="M20.0908 32.4815C25.3012 31.8999 27.366 26.4012 27.5002 24.1646" stroke="black" stroke-width="3.9" stroke-linecap="round" stroke-linejoin="round"/>
<path d="M10.3065 33.4561C9.00866 34.4808 7.97392 36.803 7.63867 38.6634" stroke="black" stroke-width="3.9" stroke-linecap="round" stroke-linejoin="round"/>
<path d="M36.1875 7.19946C31.3895 7.19946 27.5 11.089 27.5 15.887L27.5002 39.504C27.5002 44.9951 31.9518 49.4466 37.443 49.4466C42.9343 49.4466 47.3858 44.9951 47.3858 39.504C47.3858 39.2226 47.3741 38.9441 47.3511 38.6686C49.4203 36.4455 50.7259 32.0971 50.7259 28.469C50.7259 23.5251 48.302 18.7182 44.8246 16.8287C44.8578 16.5194 44.875 16.2052 44.875 15.887C44.875 11.089 40.9855 7.19946 36.1875 7.19946Z" stroke="black" stroke-width="3.9" stroke-linecap="round" stroke-linejoin="round"/>
<path d="M40.2339 22.7333C41.5096 22.4425 44.4 20.5468 44.8362 16.8511" stroke="black" stroke-width="3.9" stroke-linecap="round" stroke-linejoin="round"/>
<path d="M34.9084 32.4815C29.6981 31.8999 27.6333 26.4012 27.499 24.1646" stroke="black" stroke-width="3.9" stroke-linecap="round" stroke-linejoin="round"/>
<path d="M44.6929 33.4561C45.9904 34.4808 47.0252 36.803 47.3607 38.6634" stroke="black" stroke-width="3.9" stroke-linecap="round" stroke-linejoin="round"/>
</svg>
