<svg width="35" height="35" viewBox="0 0 35 35" fill="none" xmlns="http://www.w3.org/2000/svg">
<path d="M17.5 29.691C19.1801 29.691 20.542 28.3291 20.542 26.649C20.542 24.9689 19.1801 23.6069 17.5 23.6069C15.82 23.6069 14.458 24.9689 14.458 26.649C14.458 28.3291 15.82 29.691 17.5 29.691Z" stroke="black" stroke-width="2.49" stroke-linecap="round" stroke-linejoin="round"/>
<path d="M11.7644 19.8218C12.5195 19.0466 13.4222 18.4304 14.4193 18.0097C15.4163 17.589 16.4876 17.3723 17.5698 17.3723C18.652 17.3723 19.7232 17.589 20.7202 18.0097C21.7173 18.4304 22.62 19.0466 23.3751 19.8218" stroke="black" stroke-width="2.49" stroke-linecap="round" stroke-linejoin="round"/>
<path d="M6.72534 15.8979C8.13885 14.4761 9.8195 13.3478 11.6706 12.5779C13.5217 11.808 15.5068 11.4116 17.5117 11.4116C19.5165 11.4116 21.5016 11.808 23.3527 12.5779C25.2038 13.3478 26.8846 14.4761 28.2981 15.8979" stroke="black" stroke-width="2.49" stroke-linecap="round" stroke-linejoin="round"/>
<path d="M2.40613 11.5784C4.38791 9.59556 6.74097 8.02265 9.33085 6.9495C11.9207 5.87634 14.6966 5.32397 17.5001 5.32397C20.3035 5.32397 23.0794 5.87634 25.6694 6.9495C28.2592 8.02265 30.6123 9.59556 32.594 11.5784" stroke="black" stroke-width="2.49" stroke-linecap="round" stroke-linejoin="round"/>
</svg>
