<svg width="157" height="106" viewBox="0 0 157 106" fill="none" xmlns="http://www.w3.org/2000/svg">
<g clip-path="url(#clip0_2022_29094)">
<path d="M85.054 64.7608C98.5106 62.7773 152.524 -2.73953 156.813 0.278372C157.141 1.33264 154.975 3.88779 153.576 4.60159L152.652 4.42111C151.533 5.26259 155.79 1.1414 110.088 47.5304C91.1439 66.76 86.4128 65.1465 84.9813 66.016C84.4721 69.3367 83.9484 83.4705 83.261 89.5699C83.1635 89.7185 83.0348 89.8441 82.8838 89.9379C82.7328 90.0317 82.5632 90.0915 82.3868 90.113C82.2103 90.1346 82.0313 90.1174 81.8622 90.0626C81.6931 90.0079 81.5379 89.917 81.4075 89.7961C80.0067 87.6493 79.0143 63.5261 78.0493 60.2862C77.7358 59.2325 77.4173 58.161 77.6894 57.0695C78.1689 56.6267 78.6274 56.7635 79.156 57.0022C80.5137 58.9604 78.7912 62.1329 82.9161 64.6294C83.4291 64.0443 84.658 41.569 84.2922 40.4915C83.6289 42.1616 82.8887 45.8884 80.9307 50.335C78.4367 55.9996 77.5213 56.2728 75.2601 55.5331L73.7515 56.0519C72.5338 58.0452 71.5425 68.7506 65.2894 63.8094C63.2383 74.1528 62.8886 75.1064 61.8843 75.4296C55.5154 77.4805 61.491 28.6036 64.6062 23.3404C65.5092 21.8147 67.7107 21.8153 68.5873 24.6241C70.6508 31.2348 70.383 43.767 69.6611 44.804L68.5636 44.7043C68.5636 41.84 68.9676 24.9334 66.4332 23.439C63.2921 23.9491 58.7745 68.5157 61.3811 72.9407C61.7857 72.9294 61.7841 72.6315 61.8369 72.423C64.7689 60.8152 63.9424 58.3183 63.895 53.8135C63.8762 52.019 64.4392 50.9863 66.0259 51.8488C67.5781 55.3074 64.0766 60.0702 67.7694 64.3627C70.5064 62.8699 71.3512 58.3905 72.8038 52.7264L74.3032 52.485C74.4772 51.7357 74.6399 51.0337 74.8172 50.2725L76.0154 50.3162C76.6006 51.678 75.9691 53.1827 76.7013 54.6259C80.1274 50.5532 82.6602 40.4576 83.7943 35.2692C86.7474 21.7619 85.4931 7.60763 87.3115 1.45655C87.5196 1.27059 87.7841 1.15984 88.0626 1.14207C88.3411 1.12429 88.6175 1.2005 88.8476 1.3585C90.3233 4.17007 87.0243 24.3348 86.4231 37.1477C85.804 50.4298 84.9872 61.8108 85.054 64.7608ZM81.7578 82.0736L82.1538 82.1415C82.49 76.7425 82.8262 71.344 83.1597 65.9842C81.5541 65.0523 81.3623 64.9817 80.4361 64.9844C80.8769 70.6829 81.3174 76.3794 81.7578 82.0736Z" fill="#121212"/>
<path d="M45.4763 75.5601C37.4177 78.2639 29.1652 101.318 36.2696 104.186C47.7456 104.334 52.9351 53.5572 37.2243 41.763C21.6417 30.0653 -7.676 83.4765 6.01063 96.5814C8.64742 99.1058 10.8828 96.7969 12.0493 97.3604C11.4997 98.4201 7.25413 99.623 4.2639 96.2743C-11.3952 78.7391 30.982 11.3071 45.9655 51.9098C53.5784 72.5384 47.8151 105.169 36.8746 105.177C23.7909 105.187 38.0707 72.2383 45.4763 75.5601Z" fill="#121212"/>
<path d="M53.7687 75.3618C54.3441 74.8694 54.7471 74.8613 55.1393 75.3122C54.6862 75.9522 54.6857 75.9597 53.7687 75.3618Z" fill="#121212"/>
</g>
<defs>
<clipPath id="clip0_2022_29094">
<rect width="156" height="105" fill="white" transform="translate(0.845947 0.177246)"/>
</clipPath>
</defs>
</svg>
