<svg width="21" height="21" viewBox="0 0 21 21" fill="none" xmlns="http://www.w3.org/2000/svg">
<g clip-path="url(#clip0_106_9622)">
<path d="M17.6641 9.12318C17.6641 14.502 12.155 17.8158 11.0101 18.4469C10.9466 18.4819 10.8754 18.5003 10.803 18.5003C10.7305 18.5003 10.6593 18.4819 10.5958 18.4469C9.4501 17.8158 3.94263 14.502 3.94263 9.12318C3.94263 4.8352 6.51541 1.83362 10.8034 1.83362C15.0914 1.83362 17.6641 4.8352 17.6641 9.12318Z" stroke="#121212" stroke-width="2" stroke-linecap="round" stroke-linejoin="round"/>
<path d="M7.37305 8.69442C7.37305 9.60421 7.73446 10.4767 8.37778 11.1201C9.0211 11.7634 9.89363 12.1248 10.8034 12.1248C11.7132 12.1248 12.5858 11.7634 13.2291 11.1201C13.8724 10.4767 14.2338 9.60421 14.2338 8.69442C14.2338 7.78462 13.8724 6.91209 13.2291 6.26877C12.5858 5.62545 11.7132 5.26404 10.8034 5.26404C9.89363 5.26404 9.0211 5.62545 8.37778 6.26877C7.73446 6.91209 7.37305 7.78462 7.37305 8.69442V8.69442Z" stroke="#121212" stroke-width="2" stroke-linecap="round" stroke-linejoin="round"/>
</g>
<defs>
<clipPath id="clip0_106_9622">
<rect width="20" height="20" fill="white" transform="translate(0.803223 0.166992)"/>
</clipPath>
</defs>
</svg>
