<svg width="52" height="51" viewBox="0 0 52 51" fill="none" xmlns="http://www.w3.org/2000/svg">
<path d="M39.793 21.1562H11.9492C10.2406 21.1562 8.85547 22.5414 8.85547 24.25V45.9062C8.85547 47.6149 10.2406 49 11.9492 49H39.793C41.5016 49 42.8867 47.6149 42.8867 45.9062V24.25C42.8867 22.5414 41.5016 21.1562 39.793 21.1562Z" stroke="#121212" stroke-width="3.76103" stroke-linecap="round" stroke-linejoin="round"/>
<path d="M15.043 21.1562V13.4219C15.043 10.5501 16.1838 7.7959 18.2145 5.76523C20.2451 3.73457 22.9993 2.59375 25.8711 2.59375C28.7429 2.59375 31.4971 3.73457 33.5277 5.76523C35.5584 7.7959 36.6992 10.5501 36.6992 13.4219V21.1562" stroke="#121212" stroke-width="3.76103" stroke-linecap="round" stroke-linejoin="round"/>
<path d="M26.3867 31.875V38.25" stroke="#121212" stroke-width="3.875" stroke-linecap="round" stroke-linejoin="round"/>
</svg>
