<svg width="95" height="95" viewBox="0 0 95 95" fill="none" xmlns="http://www.w3.org/2000/svg">
<circle cx="47.5" cy="47.5" r="47.5" fill="#D9D9D9"/>
<g clip-path="url(#clip0_319_115)">
<path d="M48.0035 41.4411C47.917 39.8356 47.8194 38.2312 47.7584 36.6246C47.7512 36.4296 47.9414 36.2264 48.0441 36.0293C48.0584 36.0014 48.096 35.986 48.1204 35.9622C49.0968 35.0563 49.3379 34.5538 48.0645 33.361C47.8835 33.1908 47.6719 32.9266 47.6699 32.7048C47.6455 29.2823 47.8631 25.8866 48.9422 22.6065C49.0917 22.1536 49.2931 21.713 49.5179 21.293C49.5952 21.1486 49.8362 20.9794 49.9735 21.0021C51.4005 21.2373 52.7868 21.5685 53.8628 22.6746C55.1159 23.9633 55.4962 25.5121 55.2888 27.2558C55.0203 29.5155 54.1018 31.5543 53.037 33.5014C51.668 36.0045 50.1475 38.4231 48.6859 40.8736C48.5476 41.1058 48.3635 41.309 48.1998 41.5257C48.1347 41.4979 48.0686 41.47 48.0035 41.4411Z" fill="black"/>
<path d="M46.0548 41.6224C45.8717 41.3923 45.772 41.2861 45.6927 41.1653C43.8274 38.3382 42.0536 35.4553 40.587 32.3908C39.7957 30.7379 39.0939 29.0447 38.8763 27.1957C38.5183 24.1519 40.3022 21.7147 43.2731 21.1761C44.6014 20.9347 44.6065 20.9337 45.1079 22.211C45.7578 23.8661 46.0954 25.6036 46.2521 27.3618C46.4036 29.0643 46.4016 30.7802 46.4779 32.4899C46.4962 32.8882 46.365 33.1843 46.0456 33.4144C45.9093 33.5124 45.7934 33.6435 45.6835 33.7735C44.995 34.5938 45.0418 35.2118 45.9032 35.8577C46.3019 36.1559 46.484 36.4871 46.4463 36.9844C46.3395 38.3671 46.2521 39.7507 46.1524 41.1333C46.1443 41.2458 46.1087 41.3562 46.0527 41.6235L46.0548 41.6224Z" fill="black"/>
<path d="M34.6483 25.7529C38.6342 30.9264 41.956 36.4208 44.7397 42.4362C44.4458 42.366 44.2678 42.3588 44.1254 42.2835C40.7243 40.4758 37.3151 38.6835 34.2913 36.2412C32.9661 35.1702 31.9449 33.9207 31.7232 32.1491C31.6195 31.3154 31.7568 30.5106 32.0426 29.7254C32.5908 28.2179 33.5153 26.9684 34.6473 25.754L34.6483 25.7529Z" fill="black"/>
<path d="M49.5209 42.3018C52.2365 36.4205 55.5582 30.9148 59.539 25.7578C60.9253 27.191 62.0563 28.7139 62.394 30.6868C62.7123 32.5481 62.1316 34.1278 60.786 35.4289C58.6583 37.4864 56.1186 38.9288 53.5861 40.3785C52.4673 41.0193 51.3191 41.6064 50.181 42.211C50.0101 42.3018 49.8219 42.3585 49.6419 42.4308C49.6012 42.3874 49.5605 42.3441 49.5209 42.3008V42.3018Z" fill="black"/>
<path d="M48.7459 56.4427C49.4518 56.4427 50.1088 56.421 50.7628 56.4623C50.8869 56.4705 51.0496 56.7089 51.1025 56.873C51.7738 58.9438 52.4277 61.0208 53.0878 63.0947C53.1183 63.1897 53.158 63.2805 53.2383 63.4899C53.4835 62.7491 53.696 62.1135 53.9035 61.4769C54.408 59.9281 54.9216 58.3835 55.4037 56.8276C55.5064 56.4953 55.6661 56.4179 55.9814 56.419C57.2568 56.4221 57.2588 56.4117 57.6565 57.6334C58.2352 59.4102 58.8109 61.188 59.3886 62.9647C59.4344 63.1061 59.4903 63.2444 59.5767 63.4827C59.6713 63.2165 59.7374 63.0452 59.7934 62.8708C60.427 60.8774 61.0678 58.886 61.6851 56.8884C61.7879 56.5562 61.9231 56.4117 62.2832 56.4344C62.8365 56.4685 63.3928 56.4437 64.0132 56.4437C63.8759 56.8637 63.7651 57.2196 63.644 57.5715C62.6392 60.507 61.6251 63.4383 60.6345 66.379C60.5104 66.7453 60.3548 66.8856 59.9602 66.8784C58.698 66.8567 58.7 66.8732 58.283 65.6454C57.7043 63.9408 57.1215 62.2383 56.5398 60.5348C56.5021 60.4265 56.4543 60.3212 56.3658 60.1025C55.9987 61.1684 55.6651 62.1341 55.3345 63.1009C54.9521 64.2204 54.5626 65.3369 54.1964 66.4615C54.0947 66.7742 53.9371 66.8773 53.6126 66.8763C52.3037 66.8743 52.3057 66.8846 51.8806 65.6443C50.892 62.7584 49.9003 59.8724 48.9107 56.9864C48.8558 56.8276 48.812 56.6645 48.7439 56.4437L48.7459 56.4427Z" fill="black"/>
<path d="M43.7094 43.7335C43.5965 43.7458 43.4836 43.7675 43.3697 43.7685C40.9826 43.8005 38.5965 43.8459 36.2095 43.8542C34.1733 43.8614 32.3364 43.3176 30.9064 41.7359C30.3959 41.1715 29.9707 40.5668 29.8233 39.794C29.6219 38.7364 29.3676 37.6871 29.2232 36.6212C29.1591 36.1497 29.3096 35.6482 29.3768 35.0322C34.3391 37.7758 39.1691 40.4843 43.7877 43.558C43.7622 43.6158 43.7358 43.6736 43.7104 43.7324L43.7094 43.7335Z" fill="black"/>
<path d="M64.8137 35.001C64.8737 35.6036 65.0222 36.1143 64.953 36.5931C64.7801 37.792 64.5818 38.9982 64.2563 40.161C63.8902 41.4683 62.8853 42.2917 61.7675 42.9449C60.7677 43.5299 59.6785 43.793 58.5159 43.7847C56.0089 43.7662 53.5028 43.7734 50.9957 43.7693C50.8289 43.7693 50.6621 43.7693 50.4953 43.7693C50.4689 43.727 50.4434 43.6847 50.417 43.6424C50.5614 43.5134 50.6896 43.3576 50.8523 43.2596C54.0134 41.3383 57.1704 39.4099 60.3477 37.5145C61.7716 36.6653 63.2362 35.8863 64.8147 35.001H64.8137Z" fill="black"/>
<path d="M17 56.4483H19.0555V60.5642H23.7432V56.4607H25.8251V66.8345H23.7544V62.6608H19.0809V66.8272H17V56.4473V56.4483Z" fill="black"/>
<path d="M73.2391 56.4834V58.3407H67.7916V60.4424H71.505V62.3358H67.7998V64.905H73.4049V66.8252H65.729V56.4834H73.2381H73.2391Z" fill="black"/>
<path d="M35.5036 56.4405H37.5469C37.5764 56.4879 37.61 56.5168 37.61 56.5447C37.5896 58.7765 37.6558 61.0145 37.5205 63.2391C37.3852 65.4574 35.8433 66.8576 33.6505 66.9814C33.1796 67.0082 32.6965 67.0113 32.2317 66.9412C30.2901 66.6461 28.9608 65.4017 28.8357 63.4114C28.6913 61.1218 28.8021 58.8157 28.8021 56.4776H30.8292V57.0431C30.8292 58.7094 30.8281 60.3768 30.8302 62.0432C30.8302 62.3001 30.8322 62.5601 30.8637 62.815C31.0855 64.6041 32.6253 65.4905 34.2608 64.7599C35.1721 64.3524 35.469 63.5393 35.4833 62.6158C35.5128 60.7607 35.4985 58.9044 35.5026 57.0493C35.5026 56.8635 35.5026 56.6778 35.5026 56.4395L35.5036 56.4405Z" fill="black"/>
<path d="M49.5219 66.8646C48.811 66.8646 48.1855 66.8831 47.563 66.8491C47.4318 66.8419 47.2609 66.6654 47.1928 66.5241C46.9548 66.0309 46.7758 65.5077 46.5246 65.0228C46.4452 64.8701 46.2123 64.7112 46.0465 64.7081C44.7254 64.6823 43.4032 64.7029 42.082 64.6854C41.7881 64.6813 41.665 64.8051 41.5653 65.0568C41.369 65.55 41.13 66.0267 40.9388 66.521C40.8351 66.7892 40.6815 66.879 40.4038 66.8697C39.8465 66.8501 39.2881 66.8635 38.6504 66.8635C38.7348 66.6438 38.7918 66.4735 38.863 66.3105C40.2197 63.182 41.5857 60.0588 42.9252 56.9231C43.095 56.5248 43.3066 56.4062 43.7185 56.4134C45.0254 56.4382 45.0254 56.4216 45.54 57.6144C46.791 60.5086 48.042 63.4018 49.293 66.296C49.3602 66.4508 49.4202 66.6087 49.5229 66.8635L49.5219 66.8646ZM42.5295 62.7342H45.599C45.0824 61.525 44.5921 60.3776 44.05 59.1085C43.509 60.3993 43.0279 61.5456 42.5295 62.7342Z" fill="black"/>
<path d="M50.6164 44.585C54.3226 44.7161 58.0288 44.8471 61.8337 44.9812C61.2275 46.0254 60.5806 46.8952 59.6846 47.57C58.0512 48.801 56.4137 48.6483 54.7792 47.603C53.4377 46.7446 52.1155 45.8572 50.7832 44.9843C50.6977 44.9286 50.6011 44.8915 50.5085 44.845C50.5441 44.7584 50.5797 44.6707 50.6153 44.584L50.6164 44.585Z" fill="black"/>
<path d="M43.6737 44.5713C43.5303 44.788 43.4947 44.8973 43.4215 44.9438C41.7138 46.0189 40.0418 47.1611 38.2772 48.13C37.0577 48.7996 35.8026 48.4457 34.6859 47.677C33.7064 47.0033 32.9843 46.0922 32.3364 44.9685C36.1352 44.8354 39.8353 44.7054 43.6727 44.5713H43.6737Z" fill="black"/>
<path d="M78 56.4658V66.8406C77.3674 66.8406 76.7469 66.8582 76.1296 66.819C76.0492 66.8138 75.9292 66.5094 75.9282 66.3433C75.915 63.9732 75.919 61.6022 75.919 59.2321C75.919 58.3241 75.919 57.4161 75.919 56.4668H78V56.4658Z" fill="black"/>
</g>
<defs>
<clipPath id="clip0_319_115">
<rect width="61" height="46" fill="white" transform="translate(17 21)"/>
</clipPath>
</defs>
</svg>
