<svg width="95" height="95" viewBox="0 0 95 95" fill="none" xmlns="http://www.w3.org/2000/svg">
<circle cx="47.5" cy="47.5" r="47.5" fill="#D9D9D9"/>
<g clip-path="url(#clip0_319_117)">
<path d="M47.4909 39.5019C48.2088 37.5326 48.7737 35.8323 49.4444 34.1717C50.4279 31.7348 51.6702 29.4413 53.4797 27.4698C56.5293 24.1486 60.0335 24.1883 62.9637 27.5845C65.4664 30.4844 66.8483 33.9335 67.9871 37.4863C70.1431 44.2191 71.2054 51.1459 71.642 58.1742C71.7996 60.7037 71.8356 63.242 71.9931 65.7715C72.0517 66.6933 71.7523 67.0417 70.8048 66.9976C69.5692 66.9403 68.3292 66.9535 67.0936 66.9844C66.3891 67.002 66.1033 66.7771 66.0741 66.0427C65.8783 61.0499 65.7522 56.0527 65.3899 51.0709C64.9375 44.8343 64.107 38.6352 62.068 32.6721C61.6111 31.3335 60.9202 30.0279 60.1077 28.8591C59.0725 27.3661 57.443 27.3176 56.3852 28.804C55.4557 30.1095 54.6883 31.5915 54.1639 33.0999C52.4242 38.1015 51.6117 43.3061 51.1864 48.5503C50.8083 53.2343 50.6485 57.9383 50.4662 62.6355C50.4279 63.6037 50.2254 64.0403 49.1541 63.9653C47.9973 63.8837 46.8292 63.9168 45.6679 63.9609C44.8352 63.9918 44.5156 63.7603 44.4661 62.8539C44.1285 56.7672 43.8517 50.674 43.2823 44.6072C42.8794 40.3311 42.0444 36.0859 40.4038 32.0656C39.8974 30.8263 39.1794 29.62 38.3332 28.5724C37.4082 27.4257 36.1006 27.4301 35.1419 28.5526C34.3879 29.4347 33.6542 30.469 33.3369 31.5562C32.3331 35.0075 31.3181 38.4809 30.6879 42.0115C29.2971 49.8095 28.8965 57.7045 28.8829 65.6127C28.8829 66.6624 28.5746 67.0704 27.4786 66.9932C26.36 66.9138 25.228 66.9359 24.1049 66.9866C23.261 67.0241 22.9661 66.6933 22.9999 65.895C23.1192 63.1406 23.1304 60.3817 23.3262 57.6339C23.7718 51.3554 24.7013 45.1431 26.4703 39.0785C27.5551 35.3604 28.8672 31.7216 31.2213 28.5504C31.748 27.8425 32.3534 27.1721 33.0128 26.5788C35.2566 24.5566 37.8696 24.4794 40.2327 26.3473C42.8344 28.4026 44.268 31.232 45.4946 34.1717C46.1855 35.8257 46.7549 37.5304 47.4886 39.5041L47.4909 39.5019Z" fill="black"/>
</g>
<defs>
<clipPath id="clip0_319_117">
<rect width="49" height="42" fill="white" transform="translate(23 25)"/>
</clipPath>
</defs>
</svg>
