<svg width="95" height="95" viewBox="0 0 95 95" fill="none" xmlns="http://www.w3.org/2000/svg">
<circle cx="47.5" cy="47.5" r="47.5" fill="#D9D9D9"/>
<g clip-path="url(#clip0_319_118)">
<path d="M60.4387 51.6087C60.5669 51.3387 60.6581 51.1564 60.7418 50.97C62.2688 47.5705 63.7991 44.1727 65.3138 40.7674C65.4608 40.4366 65.6366 40.3219 65.9906 40.3295C67.1529 40.3548 68.316 40.3387 69.4783 40.3396C69.6254 40.3396 69.7716 40.3396 69.9071 40.3396C70.0591 41.0585 70.0484 41.072 69.3945 41.0846C68.3111 41.1057 67.9752 41.4255 67.8971 42.5198C67.8766 42.8126 67.8643 43.1079 67.8643 43.4015C67.8618 46.515 67.8602 49.6284 67.8651 52.7418C67.8651 53.1055 67.8947 53.4708 67.939 53.8311C68.0154 54.4546 68.3078 54.7474 68.9198 54.825C69.1498 54.8537 69.3847 54.8655 69.6155 54.8529C69.8759 54.8394 69.9794 54.9238 69.9778 55.2073C69.9753 55.4857 69.9129 55.608 69.6122 55.6064C67.6565 55.5954 65.7007 55.5962 63.7449 55.6047C63.4607 55.6064 63.3654 55.5085 63.3613 55.2165C63.3564 54.901 63.4968 54.8267 63.7605 54.8504C63.8829 54.8613 64.0069 54.8554 64.1293 54.8512C65.0099 54.8183 65.359 54.4859 65.4378 53.5831C65.4682 53.2346 65.4773 52.8827 65.4781 52.5334C65.4805 49.8123 65.4781 47.0921 65.4781 44.371C65.4781 44.2385 65.4781 44.1069 65.3853 43.9525C65.3327 44.0386 65.2703 44.1204 65.2292 44.2124C63.5872 47.8658 61.9477 51.5209 60.3057 55.1752C60.2112 55.3853 60.1554 55.6114 59.835 55.6123C59.5188 55.6123 59.4539 55.3996 59.3586 55.1845C57.7265 51.526 56.0951 47.8667 54.4622 44.2082C54.4293 44.1348 54.3874 44.0656 54.256 43.9998C54.2494 44.1078 54.2363 44.2166 54.2363 44.3246C54.2363 47.2701 54.2371 50.2148 54.2404 53.1603C54.2421 54.5356 54.5361 54.8461 55.8783 54.8495C56.1929 54.8504 56.3687 54.9052 56.3366 55.2857C56.3169 55.5211 56.2389 55.6038 56.0146 55.6038C54.3735 55.5988 52.7323 55.5962 51.0903 55.6038C50.8143 55.6047 50.7864 55.4553 50.7856 55.2309C50.7847 55.009 50.8028 54.8546 51.0829 54.8504C51.4222 54.8461 51.768 54.831 52.0974 54.7584C52.5237 54.6647 52.7865 54.3669 52.8366 53.9104C52.8703 53.6041 52.8991 53.2962 52.8999 52.9882C52.904 49.6647 52.9023 46.3403 52.9023 43.0168C52.9023 42.9468 52.9032 42.8767 52.9015 42.8067C52.8654 41.5849 52.4908 41.1892 51.294 41.104C51.1462 41.093 50.9983 41.0762 50.8579 41.0635C50.6919 40.3877 50.7256 40.3404 51.3581 40.3404C52.5343 40.3404 53.7106 40.3522 54.8869 40.3328C55.2171 40.3278 55.3887 40.424 55.5333 40.748C57.1005 44.2672 58.6875 47.7781 60.2695 51.2906C60.3032 51.3657 60.3459 51.4357 60.4379 51.6104L60.4387 51.6087Z" fill="black"/>
<path d="M50.3707 51.578C49.9888 52.723 49.6273 53.8384 49.2437 54.9454C48.9793 55.709 49.1641 55.5993 48.3435 55.6001C44.9108 55.6044 41.4773 55.6018 38.0447 55.6027C37.4245 55.6027 37.4179 55.5951 37.5338 54.8492C37.7761 54.8492 38.0315 54.8627 38.2854 54.8467C39.1708 54.7927 39.5298 54.4493 39.5659 53.5507C39.6013 52.6546 39.5906 51.756 39.5914 50.8591C39.5939 48.2367 39.5939 45.6144 39.5914 42.992C39.5914 42.7127 39.5733 42.4309 39.5388 42.1533C39.4534 41.4623 39.1979 41.199 38.5186 41.1164C38.1958 41.0767 37.8681 41.0809 37.5132 41.064V40.3612C37.6701 40.3536 37.8163 40.3409 37.9625 40.3409C41.4913 40.3401 45.0201 40.3494 48.548 40.3291C48.9825 40.3266 49.0713 40.4768 49.077 40.8767C49.0901 41.7728 49.1501 42.6688 49.1895 43.5649C49.1978 43.7455 49.238 43.9623 48.9571 43.9471C48.7222 43.9345 48.4035 44.0813 48.3492 43.6586C48.3476 43.6451 48.3443 43.6307 48.341 43.6172C47.9188 41.8707 47.5541 41.5762 45.793 41.5728C44.6718 41.5703 43.5498 41.5813 42.4285 41.5669C42.1189 41.5627 41.9932 41.6428 41.9965 41.9879C42.0121 43.5303 42.0096 45.0735 41.9965 46.6159C41.994 46.9247 42.0835 47.0327 42.394 47.0268C43.3239 47.0091 44.2537 47.0268 45.1844 47.0192C46.469 47.0091 46.9512 46.5518 47.0719 45.2254C47.0917 45.0043 47.1114 44.8634 47.3841 44.8525C47.7159 44.8398 47.8383 44.9385 47.8342 45.2988C47.817 46.869 47.8268 48.4401 47.8252 50.0103C47.8252 50.2035 47.8654 50.4178 47.5599 50.4178C47.3019 50.4178 47.0629 50.4431 47.0563 50.0584C47.0531 49.8517 46.9882 49.645 46.9455 49.4391C46.7836 48.6687 46.4066 48.2747 45.6312 48.2393C44.5116 48.1886 43.3896 48.2055 42.2684 48.2156C42.1796 48.2156 42.0162 48.3869 42.0154 48.4797C42.0014 50.2044 41.9981 51.9298 42.0129 53.6545C42.017 54.1379 42.1854 54.3489 42.6585 54.3497C44.0787 54.3539 45.5006 54.3413 46.9183 54.2628C47.6461 54.2223 48.1529 53.6941 48.5784 53.1288C48.8528 52.7635 49.0918 52.3686 49.3251 51.9729C49.6339 51.4489 49.6824 51.4185 50.3707 51.578Z" fill="black"/>
<path d="M14.5655 40.3644V41.0925C14.2928 41.0925 14.0373 41.0782 13.7835 41.0951C13.0213 41.1474 12.6754 41.4722 12.5629 42.2434C12.5268 42.4915 12.5087 42.7454 12.5087 42.9969C12.5046 45.2683 12.489 47.5405 12.5161 49.811C12.5243 50.5358 12.6023 51.2681 12.7321 51.982C13.0229 53.5868 14.0907 54.5174 15.6851 54.6229C16.9271 54.7056 18.0762 54.4356 19.0865 53.6576C19.6549 53.2197 20.055 52.6553 20.1724 51.933C20.2841 51.2437 20.3852 50.5442 20.3934 49.8481C20.4205 47.5067 20.4065 45.1653 20.4041 42.8231C20.4024 41.4267 20.0813 41.1044 18.7013 41.0841C18.5945 41.0824 18.4869 41.0714 18.3489 41.0622V40.3703H23.7809C23.9443 41.047 23.9238 41.0757 23.279 41.0849C22.2991 41.0984 21.7906 41.5507 21.7742 42.5666C21.7364 44.8649 21.7627 47.165 21.7306 49.4642C21.72 50.2464 21.6551 51.0336 21.5417 51.8065C21.2592 53.7243 20.1609 55 18.3908 55.5839C16.6281 56.1661 14.8169 56.1425 13.0755 55.4818C11.5247 54.8937 10.5694 53.6939 10.3008 52.014C10.1537 51.0926 10.1118 50.146 10.0987 49.2102C10.0699 47.1912 10.0897 45.1721 10.0897 43.153C10.0897 43.0408 10.0913 42.9285 10.0897 42.8163C10.0584 41.4351 9.74138 41.1052 8.4066 41.0875C8.15278 41.0841 8 41.0605 8 40.7306C8 40.4057 8.11335 40.3323 8.40824 40.334C10.35 40.345 12.2919 40.3399 14.2337 40.3408C14.3273 40.3408 14.4209 40.3534 14.5663 40.3635L14.5655 40.3644Z" fill="black"/>
<path d="M85.9531 55.6007C85.6188 55.6007 85.3075 55.6007 84.9953 55.6007C83.4495 55.6007 81.9044 55.6015 80.3585 55.6007C80.1285 55.6007 79.8977 55.6496 79.8895 55.2623C79.8821 54.9088 80.0349 54.832 80.3256 54.8261C80.4875 54.8227 80.6517 54.7873 80.8086 54.7409C81.2596 54.6084 81.46 54.3173 81.3319 53.8575C81.1668 53.2669 80.9409 52.694 80.7298 52.1177C80.5852 51.7245 80.4119 51.3423 80.2665 50.9491C80.1844 50.7272 80.071 50.6183 79.818 50.62C78.2311 50.631 76.6449 50.6175 75.058 50.6369C74.9126 50.6386 74.6965 50.7846 74.6358 50.9204C74.276 51.722 73.9318 52.5328 73.623 53.3571C73.2681 54.303 73.494 54.6599 74.4838 54.8067C74.5922 54.8227 74.7023 54.8388 74.8107 54.8345C75.1278 54.8219 75.1426 55.021 75.1475 55.2733C75.1524 55.545 75.03 55.6032 74.7984 55.6024C73.3626 55.5973 71.9259 55.6057 70.4901 55.5889C70.3833 55.588 70.2076 55.4378 70.187 55.3324C70.1492 55.1332 70.0934 54.8573 70.4392 54.8303C71.2869 54.7645 71.7526 54.2017 72.0664 53.4753C72.8862 51.5785 73.6961 49.6784 74.4986 47.7741C75.5344 45.3162 76.5644 42.8558 77.5846 40.3904C77.7045 40.101 77.8581 40.0006 78.1645 39.9981C78.4717 39.9955 78.5522 40.1677 78.6459 40.4022C80.3445 44.6269 82.0448 48.8507 83.7591 53.0686C83.9201 53.4651 84.1156 53.8853 84.4056 54.179C84.6898 54.4667 85.0964 54.6742 85.4849 54.7957C86.0385 54.9687 86.0525 54.9215 85.9547 55.5998L85.9531 55.6007ZM77.5501 44.1434C77.5123 44.1459 77.4745 44.1493 77.4368 44.1518C76.7238 45.8714 76.0108 47.591 75.2765 49.362H79.6225C78.9153 47.5808 78.2327 45.8621 77.5501 44.1434Z" fill="black"/>
<path d="M36.0913 51.4792C36.2121 51.5518 36.3123 51.6235 36.4224 51.6741C36.6811 51.7923 36.6614 51.9425 36.5341 52.1711C35.0687 54.7994 32.9191 56.1156 29.916 55.9376C26.6123 55.741 23.969 53.4249 23.376 50.0702C22.87 47.2099 23.3866 44.5951 25.3252 42.3862C27.3877 40.0338 30.9403 39.3326 33.7191 40.6953C33.8054 40.7375 33.89 40.7839 33.9754 40.8278C34.6514 41.1737 34.9545 41.0691 35.1779 40.3375C35.2814 39.9992 35.4778 40.0068 35.7349 40.0102C36.0445 40.0135 35.9862 40.238 35.9985 40.4236C36.1012 41.9618 36.2047 43.4991 36.2992 45.0381C36.3098 45.2093 36.4174 45.4591 36.1037 45.4937C35.8416 45.5232 35.6527 45.492 35.5484 45.1613C35.3767 44.617 35.1664 44.0779 34.9052 43.5725C34.0411 41.8976 32.6538 41.0995 30.8171 41.1442C29.0346 41.188 27.6563 41.9997 26.9039 43.6636C25.7556 46.2024 25.6316 48.8493 26.5647 51.4801C27.8313 55.05 32.7466 55.6229 34.9356 52.9102C35.3094 52.447 35.6839 51.983 36.0905 51.4792H36.0913Z" fill="black"/>
</g>
<defs>
<clipPath id="clip0_319_118">
<rect width="78" height="16" fill="white" transform="translate(8 40)"/>
</clipPath>
</defs>
</svg>
