<svg width="95" height="95" viewBox="0 0 95 95" fill="none" xmlns="http://www.w3.org/2000/svg">
<circle cx="47.5" cy="47.5" r="47.5" fill="#D9D9D9"/>
<g clip-path="url(#clip0_319_119)">
<path d="M46.3613 57.2295C46.397 57.3245 46.4684 57.3897 46.5754 57.4223C46.6825 57.4549 46.8526 57.4712 47.0859 57.4685C47.1079 57.4685 47.1161 57.4875 47.1161 57.5282C47.1161 57.5689 47.1052 57.5907 47.0859 57.5907C46.8664 57.5907 46.6907 57.5907 46.5589 57.5852L45.7959 57.5798L45.0548 57.5961C44.923 57.6042 44.7446 57.6097 44.5195 57.6097C44.4976 57.6097 44.4893 57.5907 44.4893 57.5499C44.4893 57.5092 44.5003 57.4875 44.5195 57.4875C44.7529 57.4875 44.923 57.4685 45.0301 57.4332C45.1371 57.3978 45.2085 57.3327 45.2497 57.2322C45.2908 57.1344 45.31 56.9823 45.3073 56.7787L45.2689 52.0587C45.2689 51.855 45.2442 51.7056 45.203 51.6106C45.1618 51.5155 45.0877 51.4504 44.9807 51.4123C44.8736 51.377 44.7034 51.358 44.4701 51.3607C44.4509 51.3607 44.4399 51.3417 44.4399 51.301C44.4399 51.2602 44.4509 51.2385 44.4701 51.2385L45.0054 51.244C45.3073 51.2548 45.5543 51.2602 45.7465 51.2575C45.9606 51.2575 46.2158 51.2467 46.5205 51.2304L47.0365 51.2168C47.0557 51.2168 47.0667 51.2358 47.0667 51.2765C47.0667 51.3173 47.0557 51.339 47.0365 51.339C46.8087 51.339 46.644 51.3634 46.537 51.4042C46.4299 51.4449 46.3586 51.5155 46.3229 51.616C46.2872 51.7138 46.268 51.8659 46.2707 52.0695L46.3092 56.7705C46.3092 56.9823 46.3284 57.1344 46.3641 57.2295H46.3613Z" fill="black"/>
<path d="M42.6917 42.5787C42.7851 42.5434 42.9278 42.5271 43.1199 42.5244C43.5536 42.5216 43.8967 42.6411 44.1547 42.8883C44.41 43.1354 44.5747 43.5183 44.6488 44.0425C44.657 44.0615 44.679 44.0723 44.7174 44.0723C44.7558 44.0723 44.7751 44.0615 44.7751 44.0425C44.7751 43.7763 44.7806 43.4314 44.797 43.0023C44.8135 42.5732 44.8327 42.2555 44.8519 42.0437C44.8519 42.0165 44.8354 42.0029 44.7998 42.0029C44.7641 42.0029 44.7449 42.0165 44.7394 42.0437C44.7064 42.1469 44.6296 42.2148 44.5088 42.2501C44.388 42.2854 44.1987 42.3044 43.9379 42.3044L43.238 42.3207C42.7851 42.337 42.3541 42.3478 41.9507 42.3505C41.1601 42.356 40.4712 42.3505 39.8783 42.337C39.494 42.3397 39.3019 42.2664 39.2992 42.117C39.2992 42.0844 39.2799 42.0654 39.2415 42.0654C39.2031 42.0654 39.1839 42.0817 39.1866 42.117C39.1866 42.3288 39.1729 42.6411 39.1427 43.0594C39.1125 43.4776 39.0823 43.8198 39.0576 44.0859C39.0576 44.1076 39.0768 44.1158 39.1153 44.1158C39.1537 44.1158 39.1729 44.1076 39.1729 44.0941C39.3129 43.5753 39.5187 43.1897 39.7877 42.9317C40.0567 42.6737 40.4026 42.5434 40.8198 42.5406C41.0064 42.5406 41.1437 42.5542 41.2315 42.5895C41.3221 42.6221 41.3825 42.6792 41.4182 42.7606C41.4538 42.8421 41.4703 42.9697 41.4731 43.149L41.5115 47.869C41.5115 48.0726 41.4923 48.2247 41.4483 48.3225C41.4044 48.4203 41.3193 48.4881 41.1931 48.5234C41.0668 48.5588 40.8692 48.5778 40.6002 48.5778C40.5865 48.5778 40.581 48.5995 40.581 48.6402C40.581 48.681 40.5892 48.7027 40.6029 48.7C40.8582 48.7 41.0558 48.6918 41.2013 48.6864L42.0055 48.6701H42.8509C42.9882 48.6782 43.1776 48.681 43.4191 48.6782C43.4383 48.6782 43.4493 48.6565 43.4493 48.6158C43.4493 48.575 43.4383 48.556 43.4191 48.556C43.1501 48.556 42.9553 48.5425 42.8317 48.5099C42.7082 48.4773 42.6259 48.4121 42.582 48.3171C42.5408 48.222 42.5188 48.0699 42.5161 47.8581L42.4777 43.1571C42.4777 42.9725 42.4914 42.8394 42.5216 42.7552C42.5518 42.671 42.6122 42.6113 42.7055 42.576L42.6917 42.5787Z" fill="black"/>
<path d="M29.5551 57.4993C29.5551 57.54 29.5441 57.5618 29.5249 57.5618L27.8643 57.5753C27.7051 57.5753 27.4114 57.3065 26.9777 56.7661C26.544 56.2256 26.017 55.4679 25.3994 54.493C25.2485 54.5065 25.1305 54.5147 25.0481 54.5174C24.8971 54.5174 24.7187 54.512 24.5129 54.5011L24.5321 56.7742C24.5321 56.986 24.554 57.1381 24.5925 57.2332C24.6309 57.3282 24.7023 57.3934 24.8093 57.426C24.9164 57.4586 25.0865 57.4749 25.3198 57.4721C25.3336 57.4721 25.3418 57.4912 25.3418 57.5319C25.3418 57.5726 25.3363 57.5944 25.3226 57.5944C25.0948 57.5944 24.9218 57.5944 24.7956 57.5889L24.0325 57.5835L23.2914 57.5998C23.1597 57.6079 22.9813 57.6134 22.7562 57.6134C22.7342 57.6134 22.726 57.5944 22.726 57.5536C22.726 57.5129 22.737 57.4912 22.7562 57.4912C22.9895 57.4912 23.1597 57.4721 23.2667 57.4368C23.3738 57.4015 23.4451 57.3364 23.4863 57.2359C23.5275 57.1381 23.5467 56.986 23.5439 56.7823L23.5055 52.0624C23.5055 51.8587 23.4836 51.7093 23.4451 51.6143C23.4067 51.5192 23.3326 51.454 23.2228 51.416C23.113 51.3807 22.9428 51.3617 22.7178 51.3644C22.704 51.3644 22.6958 51.3454 22.6958 51.3047C22.6958 51.2639 22.7013 51.2422 22.715 51.2422L23.2503 51.2476C23.5522 51.2585 23.7965 51.2639 23.9831 51.2612C24.2109 51.2612 24.458 51.2476 24.7242 51.2259C24.8121 51.2178 24.9218 51.2096 25.0481 51.2042C25.1744 51.196 25.3171 51.1906 25.4763 51.1906C26.0747 51.1852 26.5358 51.2992 26.8652 51.5274C27.1945 51.7555 27.3592 52.0787 27.362 52.4915C27.3647 52.8662 27.2632 53.203 27.0546 53.5044C26.846 53.8059 26.5687 54.0449 26.2201 54.2241C26.7911 55.0415 27.2659 55.6798 27.6474 56.1414C28.029 56.6004 28.3666 56.9317 28.6603 57.1381C28.954 57.3445 29.2422 57.445 29.5222 57.4423C29.5414 57.4423 29.5523 57.4613 29.5523 57.502L29.5551 57.4993ZM25.1085 54.2594C25.5559 54.2567 25.8743 54.1426 26.0637 53.9199C26.2531 53.6973 26.3464 53.3415 26.3437 52.8527C26.3382 52.3014 26.2421 51.9184 26.05 51.7039C25.8578 51.4866 25.5861 51.3807 25.2293 51.3834C24.9603 51.3834 24.7709 51.435 24.6583 51.5355C24.5458 51.636 24.4909 51.8152 24.4937 52.0732L24.5101 54.2241C24.6748 54.2513 24.8752 54.2621 25.1085 54.2594Z" fill="black"/>
<path d="M43.9185 59.4107C43.9322 59.4488 43.9294 59.4705 43.9075 59.4759C43.5726 59.6144 43.1719 59.7339 42.7053 59.8371C42.2386 59.9403 41.6265 59.9946 40.8717 60.0001C38.1983 60.0218 35.3135 59.2098 32.2146 57.5695C31.6656 57.4988 31.177 57.3115 30.7571 57.0046C30.3344 56.6977 30.0105 56.3093 29.7799 55.8395C29.5494 55.3697 29.4313 54.8619 29.4286 54.3187C29.4231 53.618 29.596 53.0179 29.9501 52.5154C30.3042 52.013 30.7598 51.6328 31.317 51.3775C31.8742 51.1223 32.4451 50.9919 33.0298 50.9865C33.6831 50.981 34.2567 51.1277 34.7535 51.4264C35.2503 51.7252 35.6346 52.1217 35.9009 52.6159C36.1699 53.1102 36.3071 53.637 36.3098 54.1938C36.3126 54.6826 36.2138 55.1443 36.0052 55.5788C35.7993 56.0133 35.5111 56.3854 35.1433 56.7031C34.7755 57.0182 34.3528 57.2544 33.8807 57.4065C34.4955 57.8084 35.2503 58.1832 36.1479 58.5254C37.0427 58.8676 37.9759 59.1419 38.9421 59.3456C39.9083 59.5492 40.8004 59.647 41.6183 59.6416C42.5653 59.6334 43.3173 59.5438 43.8745 59.37C43.8883 59.3618 43.902 59.3781 43.9157 59.4162L43.9185 59.4107ZM30.8669 55.6929C31.0865 56.2143 31.3884 56.6217 31.7727 56.915C32.1569 57.2083 32.5879 57.3522 33.0682 57.3495C33.4799 57.3468 33.8477 57.2327 34.1744 57.01C34.4983 56.7873 34.7535 56.4587 34.9402 56.0296C35.1268 55.6005 35.2174 55.09 35.2119 54.4979C35.2064 53.8733 35.0966 53.3139 34.8853 52.8169C34.6712 52.3226 34.3693 51.937 33.9795 51.6627C33.5897 51.3884 33.1313 51.2499 32.6098 51.2553C31.9428 51.2608 31.4268 51.4998 31.0645 51.975C30.6994 52.4503 30.521 53.1048 30.5293 53.9412C30.5348 54.5876 30.6473 55.1714 30.8669 55.6929Z" fill="black"/>
<path d="M42.4364 51.5004C42.2745 51.3048 42.0412 51.2071 41.7392 51.2098C41.7255 51.2098 41.7173 51.1908 41.7173 51.15C41.7173 51.1093 41.7228 51.0876 41.7365 51.0876L42.2114 51.093C42.4721 51.1039 42.678 51.1093 42.8289 51.1093C42.9525 51.1093 43.1391 51.1012 43.3861 51.0849L43.839 51.0713C43.839 51.0713 43.861 51.0903 43.861 51.131C43.861 51.1718 43.8555 51.1935 43.8418 51.1935C43.5728 51.1935 43.3669 51.2967 43.2214 51.4949C43.076 51.6932 43.0046 51.9702 43.0074 52.3232L43.0293 55.1775C43.0321 55.6663 42.9305 56.0954 42.7246 56.4593C42.5188 56.826 42.2251 57.1084 41.8463 57.3067C41.4675 57.5076 41.0256 57.6081 40.5233 57.6135C40.021 57.6163 39.5736 57.5239 39.1811 57.3338C38.7886 57.1437 38.4812 56.8667 38.2616 56.5055C38.042 56.1443 37.9294 55.7179 37.9267 55.2291L37.8993 51.9458C37.8993 51.7421 37.8746 51.5927 37.8334 51.4977C37.7922 51.4026 37.7181 51.3374 37.611 51.2994C37.504 51.2641 37.3366 51.2451 37.1115 51.2478C37.0923 51.2478 37.0813 51.2288 37.0813 51.1881C37.0813 51.1473 37.0923 51.1256 37.1115 51.1256L37.6467 51.131C37.9487 51.1419 38.1929 51.1473 38.3796 51.1446C38.5855 51.1446 38.8407 51.1338 39.1427 51.1175L39.6587 51.1039C39.6806 51.1039 39.6889 51.1229 39.6889 51.1636C39.6889 51.2044 39.6779 51.2261 39.6587 51.2261C39.4309 51.2261 39.2634 51.2505 39.1536 51.2913C39.0438 51.332 38.9697 51.4026 38.934 51.5031C38.8956 51.6009 38.8792 51.7529 38.8819 51.9566L38.9039 54.8625C38.9093 55.6718 39.085 56.2747 39.4281 56.6685C39.7712 57.0622 40.2488 57.2578 40.8609 57.2551C41.4456 57.2496 41.9012 57.0677 42.2278 56.7092C42.5545 56.3507 42.7164 55.8429 42.7109 55.1911L42.689 52.326C42.689 51.9729 42.6039 51.6986 42.4392 51.5031L42.4364 51.5004Z" fill="black"/>
<path d="M48.6535 51.8419C48.3845 52.0999 48.1786 52.4855 48.0386 53.0042C48.0386 53.0178 48.0194 53.0259 47.981 53.0259C47.9426 53.0259 47.9233 53.0151 47.9233 52.9961C47.948 52.7299 47.9755 52.3877 48.0084 51.9695C48.0386 51.5513 48.0551 51.2363 48.0523 51.0271C48.0523 50.9946 48.0716 50.9755 48.1072 50.9755C48.1457 50.9755 48.1649 50.9918 48.1649 51.0271C48.1649 51.1765 48.3598 51.2498 48.744 51.2471C49.3342 51.2634 50.0259 51.2688 50.8164 51.2607C51.2226 51.258 51.6508 51.2471 52.1037 51.2308L52.8036 51.2145C53.0644 51.2145 53.2565 51.1928 53.3745 51.1602C53.4953 51.1249 53.5722 51.057 53.6051 50.9538C53.6106 50.9267 53.6326 50.9131 53.6655 50.9131C53.6984 50.9131 53.7176 50.9267 53.7176 50.9538C53.6984 51.1657 53.682 51.4834 53.6627 51.9125C53.6463 52.3416 53.638 52.6865 53.6408 52.9526C53.6408 52.9743 53.6216 52.9825 53.5831 52.9825C53.5447 52.9825 53.5228 52.9716 53.5145 52.9526C53.4404 52.4285 53.2757 52.0456 53.0205 51.7984C52.7652 51.5513 52.4193 51.4318 51.9857 51.4345C51.7935 51.4345 51.6508 51.4535 51.5575 51.4888C51.4642 51.5241 51.4038 51.5839 51.3736 51.6681C51.3434 51.7523 51.3297 51.888 51.3297 52.07L51.3681 56.771C51.3681 56.9828 51.3928 57.1349 51.434 57.2299C51.4751 57.325 51.5602 57.3874 51.6837 57.4227C51.8072 57.4553 52.0049 57.4716 52.2711 57.4689C52.2931 57.4689 52.3013 57.4879 52.3013 57.5287C52.3013 57.5694 52.2903 57.5911 52.2711 57.5911C52.0296 57.5911 51.8429 57.5911 51.7029 57.5857H50.8575L50.0533 57.5993C49.9078 57.6074 49.7102 57.6128 49.4549 57.6128C49.4412 57.6128 49.433 57.5938 49.433 57.5531C49.433 57.5124 49.4385 57.4906 49.4522 57.4906C49.7212 57.4906 49.9188 57.4689 50.0451 57.4363C50.1713 57.401 50.2564 57.3331 50.3003 57.2354C50.3443 57.1376 50.3662 56.9855 50.3635 56.7818L50.3251 52.0618C50.3251 51.8853 50.3058 51.755 50.2702 51.6735C50.2345 51.592 50.1713 51.535 50.0835 51.5024C49.9929 51.4698 49.8557 51.4535 49.6718 51.4535C49.2518 51.4562 48.9087 51.5866 48.6397 51.8446L48.6535 51.8419Z" fill="black"/>
<path d="M59.2236 55.965C59.2429 55.965 59.2621 55.9705 59.2813 55.9786C59.2978 55.9895 59.306 55.9976 59.306 56.003C59.2401 56.519 59.2099 56.9943 59.2154 57.4207C59.2154 57.475 59.2072 57.513 59.1852 57.5374C59.166 57.5619 59.1248 57.5728 59.0617 57.5755L54.5877 57.6108C54.5684 57.6108 54.5575 57.5918 54.5575 57.551C54.5575 57.5103 54.5684 57.4886 54.5877 57.4886C54.821 57.4886 54.9911 57.4696 55.0982 57.4342C55.2052 57.3989 55.2766 57.3338 55.3123 57.2333C55.348 57.1355 55.3672 56.9834 55.3644 56.7798L55.326 52.0598C55.326 51.8561 55.3041 51.7067 55.2656 51.6117C55.2272 51.5166 55.1531 51.4514 55.0433 51.4134C54.9335 51.3781 54.7633 51.3591 54.5382 51.3618C54.5163 51.3618 54.5081 51.3428 54.5081 51.3021C54.5081 51.2613 54.519 51.2396 54.5382 51.2396L58.8256 51.207C58.8943 51.207 58.93 51.2369 58.93 51.2967L58.9601 52.6219C58.9601 52.6355 58.9409 52.6464 58.9025 52.6518C58.8641 52.66 58.8421 52.6518 58.8366 52.6328C58.6664 51.8588 58.1861 51.4759 57.3956 51.4813H56.9839C56.7368 51.4868 56.5612 51.5329 56.4596 51.6225C56.3581 51.7122 56.3059 51.8615 56.3087 52.0734L56.3251 54.1536L57.3133 54.1455C58.0681 54.14 58.4441 53.8848 58.4414 53.3823C58.4414 53.3606 58.4606 53.3525 58.499 53.3525C58.5374 53.3525 58.5567 53.3633 58.5567 53.3823V54.2704L58.5676 54.7484C58.5841 54.9656 58.5923 55.1422 58.5923 55.2779C58.5923 55.2915 58.5731 55.2997 58.532 55.2997C58.4908 55.2997 58.4688 55.2942 58.4688 55.2807C58.4633 54.6968 58.0763 54.4062 57.3078 54.4116L56.3279 54.4198L56.3471 56.7336C56.3471 56.959 56.3937 57.1138 56.4788 57.2007C56.5667 57.2876 56.7176 57.3311 56.9372 57.3283H57.4423C58.3618 57.3175 58.9437 56.8721 59.1825 55.984C59.1825 55.9705 59.1962 55.9623 59.2236 55.9623V55.965Z" fill="black"/>
<path d="M65.9374 51.3075C65.9923 51.3347 66.028 51.3591 66.0417 51.3836C66.0554 51.408 66.0691 51.4596 66.0829 51.5411L66.2174 52.8854C66.2174 52.9044 66.2009 52.9207 66.1652 52.9261C66.1295 52.9343 66.1076 52.9234 66.0939 52.8962C65.9099 52.3395 65.641 51.9186 65.2841 51.628C64.9273 51.3374 64.4881 51.1962 63.9666 51.1989C63.4643 51.2016 63.0169 51.3292 62.6244 51.5818C62.2319 51.8344 61.9272 52.1929 61.7104 52.66C61.4935 53.1271 61.3892 53.6702 61.3947 54.2894C61.4002 54.9005 61.521 55.4463 61.7571 55.9243C61.9931 56.4023 62.317 56.7716 62.7232 57.0323C63.1295 57.293 63.5878 57.4234 64.0984 57.418C64.6007 57.4152 65.0151 57.2795 65.3473 57.016C65.6794 56.7526 65.9676 56.3317 66.2174 55.7586C66.2229 55.7369 66.2448 55.7315 66.2778 55.7369C66.3134 55.7423 66.3299 55.7532 66.3299 55.7668L66.2064 56.9916C66.2009 57.0731 66.1872 57.1247 66.1707 57.1437C66.1542 57.1654 66.1186 57.1871 66.0637 57.217C65.4461 57.4723 64.7928 57.6053 64.0984 57.6108C63.3628 57.6162 62.7068 57.4831 62.1276 57.2143C61.5484 56.9427 61.0955 56.5598 60.7689 56.0628C60.4423 55.5658 60.2749 54.9955 60.2721 54.3492C60.2666 53.711 60.4313 53.1379 60.7634 52.6328C61.0955 52.1277 61.5539 51.7312 62.1358 51.4433C62.7177 51.1554 63.3683 51.0115 64.0901 51.0061C64.8532 51.0006 65.468 51.1011 65.9374 51.3075Z" fill="black"/>
<path d="M67.9247 51.8419C67.6557 52.0999 67.4498 52.4855 67.3099 53.0042C67.3099 53.0178 67.2906 53.0259 67.2522 53.0259C67.2138 53.0259 67.1946 53.0151 67.1946 52.9961C67.2193 52.7299 67.2467 52.3877 67.2797 51.9695C67.3099 51.5513 67.3263 51.2363 67.3236 51.0271C67.3236 50.9946 67.3428 50.9755 67.3785 50.9755C67.4169 50.9755 67.4361 50.9918 67.4361 51.0271C67.4361 51.1765 67.631 51.2498 68.0153 51.2471C68.6054 51.2634 69.2971 51.2688 70.0876 51.2607C70.4938 51.258 70.922 51.2471 71.3749 51.2308L72.0749 51.2145C72.3356 51.2145 72.5278 51.1928 72.6458 51.1602C72.7666 51.1249 72.8434 51.057 72.8763 50.9538C72.8818 50.9267 72.9038 50.9131 72.9367 50.9131C72.9697 50.9131 72.9889 50.9267 72.9889 50.9538C72.9697 51.1657 72.9505 51.4834 72.934 51.9125C72.9175 52.3416 72.9093 52.6865 72.912 52.9526C72.912 52.9743 72.8928 52.9825 72.8544 52.9825C72.816 52.9825 72.794 52.9716 72.7885 52.9526C72.7144 52.4285 72.5497 52.0456 72.2944 51.7984C72.0392 51.5513 71.6933 51.4318 71.2596 51.4345C71.0675 51.4345 70.9248 51.4535 70.8315 51.4888C70.7381 51.5241 70.6777 51.5839 70.6476 51.6681C70.6174 51.7523 70.6036 51.888 70.6036 52.07L70.6421 56.771C70.6421 56.9828 70.6668 57.1349 70.7079 57.2299C70.7491 57.325 70.8315 57.3874 70.9577 57.4227C71.0812 57.4553 71.2789 57.4716 71.5451 57.4689C71.5643 57.4689 71.5753 57.4879 71.5753 57.5287C71.5753 57.5694 71.5643 57.5911 71.5451 57.5911C71.3036 57.5911 71.1169 57.5911 70.9769 57.5857H70.1315L69.3273 57.5993C69.1818 57.6074 68.9842 57.6128 68.7289 57.6128C68.7152 57.6128 68.707 57.5938 68.707 57.5531C68.707 57.5124 68.7125 57.4906 68.7262 57.4906C68.9952 57.4906 69.1901 57.4689 69.3191 57.4363C69.4453 57.401 69.5304 57.3331 69.5743 57.2354C69.6182 57.1376 69.6402 56.9855 69.6375 56.7818L69.599 52.0618C69.599 51.8853 69.5798 51.755 69.5441 51.6735C69.5085 51.592 69.4453 51.535 69.3575 51.5024C69.2669 51.4698 69.1297 51.4535 68.9458 51.4535C68.5258 51.4562 68.1827 51.5866 67.9137 51.8446L67.9247 51.8419Z" fill="black"/>
<path d="M14.9113 48.0592C14.7878 48.2547 14.6643 48.3905 14.5326 48.4638C14.4035 48.5399 14.2416 48.5779 14.0495 48.5806C14.0165 48.5806 13.9973 48.6023 13.9973 48.6431C13.9973 48.6838 14.0138 48.7028 14.0495 48.7028C14.1949 48.7028 14.3761 48.6947 14.5957 48.6784C14.8427 48.6621 15.0596 48.6539 15.2435 48.6539C15.4356 48.6539 15.6634 48.6566 15.9242 48.6702C16.1575 48.6811 16.3359 48.6865 16.4594 48.6865C16.4923 48.6865 16.5116 48.6648 16.5116 48.624C16.5116 48.5833 16.4951 48.5643 16.4594 48.5643C16.1492 48.5643 15.9104 48.5073 15.7375 48.3851C15.5646 48.2628 15.4768 48.0836 15.4768 47.8473C15.4768 47.7278 15.4987 47.6002 15.5454 47.459H15.2297C15.1117 47.7143 15.0047 47.9152 14.9141 48.0619L14.9113 48.0592Z" fill="black"/>
<path d="M19.3826 47.7328C19.5007 47.9772 19.561 48.1483 19.561 48.2515C19.561 48.3547 19.5171 48.4281 19.4238 48.4715C19.3305 48.5177 19.185 48.5394 18.9874 48.5421C18.9599 48.5421 18.9462 48.5638 18.9462 48.6046C18.9462 48.6453 18.9599 48.667 18.9874 48.6643C19.1191 48.6643 19.3003 48.6562 19.5336 48.6399C19.7669 48.6236 19.97 48.6154 20.1402 48.6154C20.2719 48.6154 20.4806 48.6209 20.7688 48.6317C21.057 48.6426 21.2683 48.648 21.3973 48.648C21.4303 48.648 21.4495 48.6263 21.4495 48.5856C21.4495 48.5448 21.433 48.5258 21.3973 48.5258C21.2107 48.5258 21.0378 48.4389 20.8758 48.2597C20.7139 48.0804 20.508 47.7464 20.2637 47.2603L17.7001 42.2389C17.6918 42.2198 17.6644 42.209 17.6177 42.209C17.5683 42.209 17.5381 42.2198 17.5244 42.2416L15.9022 45.9323H14.6972C14.5216 45.9323 14.3569 46.03 14.269 46.1876L18.8446 46.7253L19.3826 47.7355V47.7328ZM16.2975 45.9323H16.2041L17.2554 43.5478L18.4604 45.9133L16.2975 45.9296V45.9323Z" fill="black"/>
<path d="M28.7399 42.1358L28.287 42.1493C28.0537 42.1656 27.867 42.1738 27.7298 42.1738C27.5843 42.1738 27.4031 42.1683 27.1835 42.1575L26.7608 42.1493C26.7471 42.1493 26.7416 42.1711 26.7416 42.2118C26.7416 42.2525 26.7499 42.2743 26.7636 42.2715C27.0326 42.2715 27.2384 42.3639 27.3839 42.5567C27.5294 42.7495 27.6035 43.0265 27.6063 43.385L27.6364 46.9942L23.8925 42.7006L23.6427 42.3775C23.5878 42.296 23.5467 42.2417 23.5165 42.2145C23.489 42.1874 23.4479 42.1738 23.393 42.1738C23.2749 42.1738 23.1761 42.1792 23.0938 42.1874L22.435 42.2036C22.2703 42.2036 22.1441 42.2036 22.0535 42.1955L21.6418 42.1874C21.628 42.1874 21.6226 42.2091 21.6226 42.2498C21.6226 42.2906 21.6308 42.3123 21.6445 42.3096C21.8092 42.3096 21.9684 42.3476 22.1249 42.4291C22.2813 42.5105 22.4542 42.6517 22.6491 42.8527L22.6848 47.3201C22.6875 47.6813 22.6079 47.9556 22.4487 48.1484C22.2895 48.3412 22.0617 48.4363 21.7653 48.439C21.7433 48.439 21.7351 48.4607 21.7351 48.5015C21.7351 48.5422 21.7461 48.5639 21.7653 48.5612C21.9711 48.5612 22.1303 48.5558 22.2401 48.5476L22.8495 48.5313L23.3957 48.5368C23.4918 48.5422 23.6318 48.5449 23.8184 48.5449C23.8321 48.5449 23.8376 48.5232 23.8376 48.4825C23.8376 48.4417 23.8294 48.4227 23.8157 48.4227C23.5412 48.4227 23.3298 48.3304 23.1844 48.143C23.0389 47.9529 22.9648 47.6786 22.962 47.3174L22.9291 43.1677L27.8066 48.6861C27.8203 48.6997 27.845 48.7024 27.878 48.697C27.9109 48.6889 27.9301 48.6753 27.9301 48.6563L27.889 43.385C27.8862 43.0238 27.9603 42.7468 28.1086 42.5513C28.2568 42.3557 28.4709 42.258 28.7453 42.2552C28.7591 42.2552 28.7646 42.2335 28.7646 42.1928C28.7646 42.152 28.7563 42.1303 28.7426 42.133L28.7399 42.1358Z" fill="black"/>
<path d="M36.2714 48.5231C36.0848 48.5231 35.9118 48.4362 35.7499 48.257C35.588 48.0777 35.3821 47.7437 35.1378 47.2576L32.5714 42.2389C32.5632 42.2198 32.5357 42.209 32.4891 42.209C32.4397 42.209 32.4095 42.2198 32.3957 42.2416L30.2191 47.1951C30.0489 47.578 29.9062 47.8659 29.7827 48.0614C29.6592 48.257 29.5356 48.3928 29.4039 48.4661C29.2749 48.5421 29.1129 48.5801 28.9208 48.5829C28.8851 48.5829 28.8687 48.6046 28.8687 48.6453C28.8687 48.6861 28.8851 48.7051 28.9208 48.7051C29.0663 48.7051 29.2474 48.6969 29.467 48.6806C29.7141 48.6643 29.9309 48.6562 30.1175 48.6562C30.3097 48.6562 30.5375 48.6589 30.7983 48.6725C31.0316 48.6833 31.21 48.6888 31.3335 48.6888C31.3664 48.6888 31.3856 48.667 31.3856 48.6263C31.3856 48.5856 31.3692 48.5666 31.3335 48.5666C31.0233 48.5666 30.7845 48.5095 30.6116 48.3873C30.4387 48.2651 30.3509 48.0859 30.3509 47.8496C30.3509 47.6867 30.392 47.502 30.4799 47.2983L30.9657 46.193L33.4607 46.174L34.2567 47.7383C34.3747 47.9827 34.4351 48.1538 34.4351 48.257C34.4351 48.3602 34.3912 48.4335 34.2979 48.4769C34.2046 48.5231 34.0591 48.5448 33.8615 48.5475C33.834 48.5475 33.8203 48.5693 33.8203 48.61C33.8203 48.6507 33.834 48.6725 33.8615 48.6698C33.9932 48.6698 34.1744 48.6616 34.4077 48.6453C34.641 48.629 34.8441 48.6209 35.0143 48.6209C35.146 48.6209 35.3546 48.6263 35.6429 48.6372C35.9311 48.648 36.1424 48.6535 36.2714 48.6535C36.3044 48.6535 36.3236 48.6317 36.3236 48.591C36.3236 48.5503 36.3071 48.5313 36.2714 48.5313V48.5231ZM31.0755 45.9323L32.1295 43.5478L33.3345 45.9133L31.0782 45.9296L31.0755 45.9323Z" fill="black"/>
<path d="M22.3198 57.4313C22.1331 57.4313 21.9602 57.3444 21.7982 57.1652C21.6363 56.9859 21.4304 56.6519 21.1861 56.1658L18.6197 51.1471C18.6115 51.1281 18.5841 51.1172 18.5374 51.1172C18.488 51.1172 18.4578 51.1281 18.4441 51.1498L16.2674 56.1033C16.0973 56.4862 15.9545 56.7741 15.831 56.9696C15.7102 57.1652 15.584 57.301 15.4522 57.3743C15.3232 57.4503 15.1613 57.4883 14.9691 57.4911C14.9362 57.4911 14.917 57.5128 14.917 57.5535C14.917 57.5943 14.9335 57.6133 14.9691 57.6133C15.1146 57.6133 15.2958 57.6051 15.5154 57.5888C15.7624 57.5725 15.9792 57.5644 16.1659 57.5644C16.358 57.5644 16.5858 57.5671 16.8466 57.5807C17.0799 57.5915 17.2583 57.597 17.3818 57.597C17.4148 57.597 17.434 57.5752 17.434 57.5345C17.434 57.4938 17.4175 57.4748 17.3818 57.4748C17.0717 57.4748 16.8329 57.4177 16.6599 57.2955C16.487 57.1733 16.3992 56.9941 16.3992 56.7578C16.3992 56.5949 16.4404 56.4102 16.5282 56.2065L17.014 55.1012L19.5091 55.0822L20.3051 56.6465C20.4231 56.8909 20.4835 57.062 20.4835 57.1652C20.4835 57.2684 20.4396 57.3417 20.3462 57.3851C20.2529 57.4313 20.1074 57.453 19.9098 57.4558C19.8824 57.4558 19.8686 57.4775 19.8686 57.5182C19.8686 57.5589 19.8824 57.5807 19.9098 57.578C20.0416 57.578 20.2227 57.5698 20.456 57.5535C20.6893 57.5372 20.8925 57.5291 21.0626 57.5291C21.1944 57.5291 21.403 57.5345 21.6912 57.5454C21.9794 57.5562 22.1907 57.5617 22.3198 57.5617C22.3527 57.5617 22.3719 57.5399 22.3719 57.4992C22.3719 57.4585 22.3554 57.4395 22.3198 57.4395V57.4313ZM17.1266 54.8432L18.1806 52.4588L19.3855 54.8242L17.1293 54.8405L17.1266 54.8432Z" fill="black"/>
<path d="M80.0348 57.4313C79.8482 57.4313 79.6753 57.3444 79.5133 57.1652C79.3514 56.9859 79.1455 56.6519 78.9012 56.1658L76.3348 51.1471C76.3266 51.1281 76.2992 51.1172 76.2525 51.1172C76.2031 51.1172 76.1729 51.1281 76.1592 51.1498L73.9825 56.1033C73.8123 56.4862 73.6696 56.7741 73.5461 56.9696C73.4253 57.1652 73.2991 57.301 73.1673 57.3743C73.0383 57.4503 72.8764 57.4883 72.6842 57.4911C72.6513 57.4911 72.6321 57.5128 72.6321 57.5535C72.6321 57.5943 72.6485 57.6133 72.6842 57.6133C72.8297 57.6133 73.0109 57.6051 73.2304 57.5888C73.4775 57.5725 73.6943 57.5644 73.881 57.5644C74.0731 57.5644 74.3009 57.5671 74.5617 57.5807C74.795 57.5915 74.9734 57.597 75.0969 57.597C75.1299 57.597 75.1491 57.5752 75.1491 57.5345C75.1491 57.4938 75.1326 57.4748 75.0969 57.4748C74.7868 57.4748 74.548 57.4177 74.375 57.2955C74.2021 57.1733 74.1143 56.9941 74.1143 56.7578C74.1143 56.5949 74.1554 56.4102 74.2433 56.2065L74.7291 55.1012L77.2242 55.0822L78.0201 56.6465C78.1382 56.8909 78.1986 57.062 78.1986 57.1652C78.1986 57.2684 78.1546 57.3417 78.0613 57.3851C77.968 57.4313 77.8225 57.453 77.6249 57.4558C77.5974 57.4558 77.5837 57.4775 77.5837 57.5182C77.5837 57.5589 77.5974 57.5807 77.6249 57.578C77.7566 57.578 77.9378 57.5698 78.1711 57.5535C78.4044 57.5372 78.6075 57.5291 78.7777 57.5291C78.9095 57.5291 79.1181 57.5345 79.4063 57.5454C79.6945 57.5562 79.9058 57.5617 80.0348 57.5617C80.0678 57.5617 80.087 57.5399 80.087 57.4992C80.087 57.4585 80.0705 57.4395 80.0348 57.4395V57.4313ZM74.8389 54.8432L75.8929 52.4588L77.0979 54.8242L74.8417 54.8405L74.8389 54.8432Z" fill="black"/>
<path d="M51.8841 48.5231C51.6975 48.5231 51.5246 48.4362 51.3626 48.257C51.2007 48.0777 50.9948 47.7437 50.7505 47.2576L48.1869 42.2389C48.1787 42.2198 48.1512 42.209 48.1045 42.209C48.0551 42.209 48.0249 42.2198 48.0112 42.2416L45.8346 47.1951C45.6671 47.578 45.5217 47.8659 45.3982 48.0614C45.2774 48.257 45.1511 48.3928 45.0194 48.4661C44.8904 48.5421 44.7284 48.5801 44.5363 48.5829C44.5033 48.5829 44.4841 48.6046 44.4841 48.6453C44.4841 48.6861 44.5006 48.7051 44.5363 48.7051C44.6818 48.7051 44.8629 48.6969 45.0825 48.6806C45.3295 48.6643 45.5464 48.6562 45.7303 48.6562C45.9224 48.6562 46.1502 48.6589 46.411 48.6725C46.6443 48.6833 46.8227 48.6888 46.9462 48.6888C46.9819 48.6888 46.9984 48.667 46.9984 48.6263C46.9984 48.5856 46.9819 48.5666 46.9462 48.5666C46.6361 48.5666 46.3973 48.5095 46.2243 48.3873C46.0514 48.2651 45.9636 48.0859 45.9636 47.8496C45.9636 47.6867 46.0048 47.502 46.0926 47.2983L46.5784 46.193L49.0735 46.174L49.8695 47.7383C49.9875 47.9827 50.0479 48.1538 50.0479 48.257C50.0479 48.3602 50.004 48.4335 49.9106 48.4769C49.8173 48.5231 49.6718 48.5448 49.4742 48.5475C49.4468 48.5475 49.433 48.5693 49.433 48.61C49.433 48.6507 49.4468 48.6725 49.4742 48.6698C49.606 48.6698 49.7871 48.6616 50.0204 48.6453C50.2537 48.629 50.4568 48.6209 50.627 48.6209C50.7588 48.6209 50.9674 48.6263 51.2556 48.6372C51.5438 48.648 51.7551 48.6535 51.8841 48.6535C51.9171 48.6535 51.9363 48.6317 51.9363 48.591C51.9363 48.5503 51.9198 48.5313 51.8841 48.5313V48.5231ZM46.691 45.9323L47.745 43.5478L48.9499 45.9133L46.6937 45.9296L46.691 45.9323Z" fill="black"/>
<path d="M57.8238 42.2715L57.4011 42.2851C57.2089 42.3014 57.047 42.3095 56.918 42.3095C56.6984 42.3095 56.4568 42.3068 56.1961 42.2959L55.702 42.2905C55.6828 42.2905 55.6718 42.3122 55.6718 42.353C55.6718 42.3937 55.6828 42.4154 55.702 42.4127C55.9573 42.4127 56.1467 42.4616 56.2757 42.5621C56.4047 42.6626 56.4678 42.8092 56.4706 42.9993C56.4706 43.1297 56.4431 43.2736 56.38 43.4393L54.906 47.3146L52.9572 43.2709C52.8886 43.1297 52.8529 42.9993 52.8502 42.8852C52.8502 42.5865 53.0643 42.4344 53.4952 42.4317C53.5144 42.4317 53.5254 42.41 53.5254 42.3693C53.5254 42.3285 53.5144 42.3068 53.4952 42.3095C53.3223 42.3095 53.1823 42.3149 53.0725 42.3231C52.6882 42.3394 52.2545 42.3502 51.7742 42.353C51.5821 42.353 51.4091 42.3502 51.2582 42.3367L50.9892 42.3285C50.9672 42.3285 50.959 42.3502 50.959 42.391C50.959 42.4317 50.97 42.4534 50.9892 42.4507C51.1621 42.4507 51.3103 42.505 51.4338 42.6218C51.5574 42.7359 51.6836 42.9178 51.8099 43.1704L54.4614 48.6671C54.4696 48.6942 54.5053 48.7078 54.5739 48.7078C54.6425 48.7078 54.681 48.6942 54.6864 48.6671L56.6435 43.4827C56.7698 43.1351 56.9372 42.8689 57.143 42.6843C57.3489 42.4996 57.574 42.4046 57.821 42.4046C57.8402 42.4046 57.8512 42.3828 57.8512 42.3421C57.8512 42.3014 57.8402 42.2823 57.821 42.2823L57.8238 42.2715Z" fill="black"/>
<path d="M62.9566 47.0704C62.9401 47.0595 62.9209 47.0541 62.8989 47.0568C62.8715 47.0568 62.8578 47.065 62.8578 47.0786C62.6162 47.9639 62.0371 48.412 61.1176 48.4174H60.6125C60.3929 48.4228 60.2392 48.3794 60.1541 48.2925C60.0663 48.2056 60.0224 48.0481 60.0224 47.8254L60.0032 45.5116L60.9831 45.5034C61.7516 45.498 62.1386 45.7859 62.1441 46.3725C62.1441 46.386 62.1661 46.3915 62.2072 46.3915C62.2484 46.3915 62.2704 46.3833 62.2676 46.3697C62.2676 46.234 62.2594 46.0574 62.2429 45.8402L62.2292 45.3622V44.4741C62.232 44.4551 62.2127 44.4443 62.1743 44.4443C62.1359 44.4443 62.1167 44.4551 62.1167 44.4741C62.1194 44.9766 61.7434 45.2318 60.9885 45.2373L60.0004 45.2454L59.9839 43.1652C59.9839 42.9533 60.0334 42.804 60.1349 42.7143C60.2365 42.6247 60.4121 42.5786 60.6592 42.5786H61.0709C61.8614 42.5704 62.3417 42.9533 62.5119 43.7273C62.5202 43.749 62.5421 43.7545 62.5778 43.7463C62.6162 43.7382 62.6354 43.73 62.6354 43.7165L62.6052 42.3912C62.6052 42.3287 62.5696 42.2988 62.5009 42.2988L58.2135 42.3314C58.1916 42.3314 58.1833 42.3531 58.1833 42.3939C58.1833 42.4346 58.1943 42.4563 58.2135 42.4536C58.4414 42.4536 58.6088 42.4699 58.7186 42.5052C58.8284 42.5405 58.9025 42.6084 58.9409 42.7035C58.9793 42.7985 58.9986 42.9479 59.0013 43.1516L59.0397 47.8716C59.0397 48.0752 59.0233 48.2273 58.9876 48.3251C58.9519 48.4228 58.8778 48.4907 58.7735 48.526C58.6664 48.5614 58.4963 48.5804 58.2629 48.5804C58.2437 48.5804 58.2328 48.6021 58.2328 48.6428C58.2328 48.6836 58.2437 48.7053 58.2629 48.7026L62.737 48.6673C62.8001 48.6673 62.8413 48.6537 62.8605 48.6292C62.8797 48.6048 62.8907 48.5668 62.8907 48.5125C62.888 48.0834 62.9182 47.6108 62.9813 47.0948C62.9813 47.0894 62.973 47.0786 62.9566 47.0704Z" fill="black"/>
<path d="M68.8058 46.8829C68.7701 46.8802 68.7509 46.8883 68.7454 46.9101C68.6384 47.3663 68.4188 47.7302 68.0839 48.0018C67.7491 48.2734 67.3373 48.4091 66.8515 48.4146L66.2339 48.42C66.0336 48.42 65.8908 48.4091 65.8002 48.382C65.7097 48.3548 65.6493 48.3005 65.6191 48.219C65.5889 48.1376 65.5724 48.0045 65.5697 47.8225L65.5313 43.1515C65.5313 42.9478 65.5477 42.7957 65.5834 42.6979C65.6191 42.6002 65.6905 42.5295 65.7975 42.4915C65.9045 42.4535 66.0692 42.4345 66.2971 42.4318C66.3163 42.4318 66.3272 42.4101 66.3272 42.3693C66.3272 42.3286 66.3163 42.3096 66.2971 42.3096L65.781 42.3231C65.4791 42.3394 65.2238 42.3476 65.018 42.3503C64.8258 42.3503 64.5788 42.3476 64.2769 42.3367L63.7526 42.3313C63.7389 42.3313 63.7334 42.353 63.7334 42.3938C63.7334 42.4345 63.7416 42.4562 63.7554 42.4535C63.9832 42.4535 64.1506 42.4698 64.2604 42.5051C64.3702 42.5404 64.4443 42.6083 64.4827 42.7034C64.5212 42.7984 64.5404 42.9478 64.5431 43.1515L64.5815 47.8714C64.5815 48.0751 64.5651 48.2272 64.5294 48.325C64.491 48.4227 64.4196 48.4906 64.3153 48.5259C64.2082 48.5612 64.0381 48.5802 63.8048 48.5802C63.791 48.5802 63.7856 48.602 63.7856 48.6427C63.7856 48.6834 63.7938 48.7052 63.8075 48.7024L68.6301 48.6644C68.6933 48.6644 68.7344 48.6508 68.7537 48.6264C68.7729 48.602 68.7839 48.5639 68.7839 48.5096C68.7811 48.0887 68.8058 47.5564 68.8635 46.9182C68.8635 46.8992 68.847 46.8856 68.8113 46.8829H68.8058Z" fill="black"/>
<path d="M74.3806 46.8831C74.3449 46.8804 74.3257 46.8886 74.3202 46.9103C74.2131 47.3665 73.9936 47.7304 73.6587 48.002C73.3238 48.2736 72.9121 48.4094 72.4263 48.4148L71.8087 48.4202C71.6083 48.4202 71.4656 48.4094 71.375 48.3822C71.2844 48.3551 71.224 48.3007 71.1938 48.2193C71.1609 48.1378 71.1444 48.0047 71.1444 47.8228L71.106 43.1517C71.106 42.948 71.1225 42.7959 71.1582 42.6981C71.1939 42.6004 71.2652 42.5298 71.3723 42.4918C71.4793 42.4537 71.644 42.4347 71.8718 42.432C71.891 42.432 71.902 42.4103 71.902 42.3695C71.902 42.3288 71.891 42.3071 71.8718 42.3098L71.3558 42.3234C71.0539 42.3397 70.7986 42.3478 70.5927 42.3505C70.4006 42.3505 70.1536 42.3478 69.8516 42.337L69.3246 42.3315C69.3109 42.3315 69.3054 42.3532 69.3054 42.394C69.3054 42.4347 69.3137 42.4564 69.3274 42.4537C69.5552 42.4537 69.7226 42.47 69.8324 42.5053C69.9422 42.5406 70.0163 42.6085 70.0548 42.7036C70.0932 42.7986 70.1124 42.948 70.1151 43.1517L70.1536 47.8717C70.1536 48.0753 70.1371 48.2274 70.1014 48.3252C70.063 48.423 69.9916 48.4908 69.8873 48.5262C69.7803 48.5615 69.6101 48.5805 69.3768 48.5805C69.3631 48.5805 69.3576 48.6022 69.3576 48.6429C69.3576 48.6837 69.3658 48.7054 69.3795 48.7027L74.2022 48.6647C74.2653 48.6647 74.3065 48.6511 74.3257 48.6266C74.3449 48.6022 74.3559 48.5642 74.3559 48.5099C74.3531 48.0889 74.3778 47.5566 74.4355 46.9184C74.4355 46.8994 74.419 46.8858 74.3833 46.8831H74.3806Z" fill="black"/>
<path d="M80.1337 45.9241L78.248 42.2389C78.2398 42.2198 78.2123 42.209 78.1657 42.209C78.1163 42.209 78.0861 42.2198 78.0723 42.2416L76.1016 46.7226H76.4035L79.2828 46.4646L79.9278 47.7301C80.0459 47.9745 80.1062 48.1456 80.1062 48.2488C80.1062 48.352 80.0623 48.4253 79.969 48.4688C79.8757 48.515 79.7302 48.5367 79.5326 48.5394C79.5051 48.5394 79.4914 48.5611 79.4914 48.6019C79.4914 48.6426 79.5051 48.6643 79.5326 48.6616C79.6643 48.6616 79.8455 48.6535 80.0788 48.6372C80.3121 48.6209 80.5152 48.6127 80.6854 48.6127C80.8172 48.6127 81.0258 48.6182 81.314 48.629C81.6022 48.6399 81.8135 48.6453 81.9425 48.6453C81.9755 48.6453 81.9947 48.6236 81.9947 48.5829C81.9947 48.5421 81.9782 48.5231 81.9425 48.5231C81.7559 48.5231 81.583 48.4362 81.421 48.257C81.2591 48.0777 81.0532 47.7437 80.8089 47.2576L80.356 46.3722L81.292 46.1631C81.4649 46.1631 81.6214 46.0735 81.7092 45.9268H80.1282L80.1337 45.9241ZM76.7521 45.9323L77.8061 43.5478L79.0111 45.9133L76.7548 45.9296L76.7521 45.9323Z" fill="black"/>
<path d="M77.0101 48.5614C76.7 48.5614 76.4612 48.5043 76.2882 48.3821C76.1153 48.2599 76.0275 48.0807 76.0275 47.8444C76.0275 47.7249 76.0494 47.5973 76.0961 47.4561H75.7805C75.6624 47.7113 75.5554 47.9123 75.4648 48.059C75.344 48.2545 75.2178 48.3903 75.086 48.4636C74.957 48.5396 74.7951 48.5777 74.6029 48.5804C74.5672 48.5804 74.5508 48.6021 74.5508 48.6428C74.5508 48.6836 74.5672 48.7026 74.6029 48.7026C74.7484 48.7026 74.9296 48.6944 75.1491 48.6781C75.3962 48.6618 75.613 48.6537 75.7969 48.6537C75.9891 48.6537 76.2169 48.6564 76.4776 48.67C76.7109 48.6809 76.8894 48.6863 77.0129 48.6863C77.0458 48.6863 77.065 48.6646 77.065 48.6238C77.065 48.5831 77.0486 48.5641 77.0129 48.5641L77.0101 48.5614Z" fill="black"/>
</g>
<defs>
<clipPath id="clip0_319_119">
<rect width="68" height="18" fill="white" transform="translate(14 42)"/>
</clipPath>
</defs>
</svg>
