<svg width="95" height="95" viewBox="0 0 95 95" fill="none" xmlns="http://www.w3.org/2000/svg">
<circle cx="47.5" cy="47.5" r="47.5" fill="#D9D9D9"/>
<path d="M13 42.0051H13.2986C15.0571 42.0051 16.8157 41.9902 18.5738 42.0114C19.4103 42.0216 20.252 42.0605 21.0202 42.4697C21.8774 42.927 22.3734 43.8695 22.312 44.8365C22.2603 45.6521 21.9118 46.2631 21.2085 46.6792C21.1459 46.7163 21.0925 46.7695 21.0058 46.8375C21.0971 46.8821 21.1591 46.9158 21.224 46.9438C22.289 47.405 22.8126 48.2309 22.8637 49.3683C22.9504 51.3047 21.5197 52.4569 19.9247 52.7147C19.5797 52.7702 19.2237 52.7753 18.8723 52.7764C17.0374 52.7822 15.2024 52.7793 13.368 52.7793H13V42.0051ZM16.26 50.2296C17.0552 50.2296 17.8343 50.2662 18.6088 50.2188C19.3276 50.1748 19.598 49.7924 19.5544 49.0414C19.5251 48.5413 19.1008 48.2109 18.4836 48.2104C17.844 48.2092 17.2044 48.2098 16.5643 48.2104C16.4632 48.2104 16.3622 48.2189 16.26 48.2235V50.2291V50.2296ZM16.2433 44.5959C16.2433 45.0857 16.2387 45.5875 16.2502 46.0888C16.2514 46.1425 16.3478 46.2402 16.3995 46.2402C17.0953 46.2385 17.7941 46.2528 18.4871 46.2002C18.947 46.1648 19.2111 45.8019 19.2099 45.3526C19.2093 44.932 18.9946 44.6416 18.5089 44.609C17.7723 44.5599 17.0305 44.5965 16.2439 44.5965L16.2433 44.5959Z" fill="black"/>
<path d="M68.7996 45.8289V42.0515C68.9092 42.0418 69 42.0275 69.0907 42.0275C69.8744 42.0258 70.6581 42.0315 71.4418 42.0235C71.6496 42.0212 71.7484 42.0635 71.7478 42.3036C71.7409 45.7089 71.7432 49.1147 71.742 52.52C71.742 52.5943 71.7294 52.668 71.7208 52.7606H68.923V51.9079C68.8306 51.9799 68.7881 51.9999 68.7657 52.033C68.2817 52.736 67.5577 52.9606 66.7602 52.9966C65.1635 53.0687 64.0824 52.1399 63.5623 50.6533C63.0903 49.305 63.1374 47.9465 63.6736 46.6199C64.1364 45.4745 65.1848 44.8081 66.4244 44.7864C67.3057 44.7715 68.0561 45.0207 68.6377 45.7009C68.6652 45.7334 68.7054 45.7552 68.7996 45.8289ZM66.1694 48.8524C66.2343 49.2164 66.2693 49.5765 66.3646 49.9194C66.5323 50.5224 66.9307 50.8362 67.4802 50.8528C68.1204 50.8716 68.5332 50.615 68.7416 49.9966C69 49.229 68.9954 48.4483 68.71 47.6853C68.5205 47.1789 68.0744 46.8931 67.5612 46.908C66.9761 46.9251 66.538 47.2263 66.383 47.7699C66.2825 48.1208 66.2395 48.4883 66.1694 48.8524Z" fill="black"/>
<path d="M41.869 52.7606H38.9616C38.9559 52.6332 38.9467 52.5223 38.9467 52.4108C38.9455 51.0883 38.9467 49.7657 38.9455 48.4431C38.9455 48.3386 38.9484 48.2334 38.9358 48.1299C38.8502 47.4281 38.5712 47.1354 37.9712 47.1114C37.3873 47.0886 36.9108 47.4589 36.7868 48.0591C36.7374 48.2991 36.7156 48.5495 36.7138 48.7946C36.7064 50.0029 36.7104 51.2111 36.7104 52.42C36.7104 52.5228 36.7104 52.6257 36.7104 52.7532H33.7656V44.9796H36.6025V46.0032C36.6926 45.9278 36.7402 45.9009 36.7701 45.8615C37.2776 45.1813 37.989 44.8675 38.8072 44.7978C39.5501 44.735 40.2729 44.8173 40.9074 45.2768C41.5217 45.722 41.8639 46.3376 41.8777 47.0669C41.9127 48.9215 41.8891 50.7773 41.888 52.6326C41.888 52.6692 41.8777 52.7052 41.869 52.7606Z" fill="black"/>
<path d="M48.5611 52.7569C48.5301 52.5357 48.5002 52.3242 48.4663 52.0819C48.4026 52.1213 48.3538 52.1425 48.317 52.1762C47.4914 52.9255 46.4987 53.0644 45.4389 52.9621C44.9078 52.9112 44.4037 52.7735 43.9771 52.4425C43.2152 51.8527 43.0304 51.0445 43.1802 50.1484C43.3151 49.3419 43.8571 48.8561 44.5914 48.5646C45.459 48.2205 46.3862 48.1651 47.2951 48.0193C47.5196 47.9833 47.7418 47.929 47.9611 47.8685C48.2418 47.7907 48.3991 47.5747 48.4198 47.3083C48.4416 47.0311 48.3159 46.7785 48.0489 46.6516C47.5735 46.4253 47.0786 46.4144 46.6308 46.6934C46.439 46.8128 46.3254 47.0546 46.1422 47.2832H43.5591C43.4552 46.5545 43.9295 45.6709 44.7074 45.3239C45.2201 45.0953 45.7845 44.9421 46.3414 44.8604C46.9408 44.773 47.5598 44.7735 48.1672 44.7993C48.8987 44.8301 49.629 44.9164 50.2829 45.3034C50.814 45.6177 51.1085 46.0818 51.1791 46.6831C51.2176 47.0117 51.2331 47.3438 51.2354 47.6747C51.2423 48.6926 51.2394 49.71 51.2371 50.7279C51.236 51.412 51.2429 52.0945 51.5678 52.7563H48.5611V52.7569ZM48.4244 49.2767C48.1058 49.3773 47.8216 49.4716 47.5345 49.5568C47.2348 49.6454 46.9259 49.706 46.6337 49.814C46.3856 49.9054 46.2025 50.0723 46.1721 50.3718C46.1393 50.693 46.261 50.9211 46.5206 51.0948C46.8576 51.3206 47.5006 51.3137 47.8491 51.0703C48.4876 50.6256 48.4411 49.9672 48.4238 49.2773L48.4244 49.2767Z" fill="black"/>
<path d="M28.1042 44.7695C28.8597 44.7707 29.5883 44.893 30.2698 45.2199C31.2751 45.7017 31.9107 46.4927 32.2064 47.5604C32.5446 48.7835 32.4648 49.9712 31.8378 51.0846C31.1902 52.2351 30.1366 52.7775 28.8551 52.9489C27.9991 53.0632 27.1654 52.9832 26.3502 52.7066C24.9613 52.2356 23.9715 50.8754 23.8687 49.4128C23.8038 48.4892 23.8997 47.613 24.3338 46.7928C24.9458 45.6354 25.9511 45.0353 27.2251 44.8473C27.5157 44.8044 27.8108 44.7947 28.1042 44.7695ZM26.7515 48.8258C26.829 49.2573 26.868 49.6557 26.9771 50.034C27.1155 50.5141 27.4611 50.8045 27.9715 50.8468C28.4957 50.8902 28.9562 50.7456 29.1801 50.2278C29.5676 49.3322 29.5665 48.4149 29.1801 47.5227C28.9889 47.082 28.583 46.9031 28.1036 46.914C27.6018 46.9254 27.1936 47.1214 27.0282 47.6107C26.8933 48.0096 26.8376 48.4349 26.7521 48.8264L26.7515 48.8258Z" fill="black"/>
<path d="M81.7498 49.5436H76.0061C75.8948 50.11 76.3409 50.8261 76.9207 51.0164C77.5753 51.2313 78.1764 51.1336 78.7012 50.6638C78.7591 50.6118 78.8447 50.5603 78.9176 50.5598C79.7771 50.5523 80.6366 50.5552 81.5259 50.5552C81.3284 51.1753 80.9667 51.652 80.489 52.0412C79.796 52.6059 78.9842 52.8637 78.1012 52.9563C76.8846 53.0837 75.7426 52.8831 74.7252 52.1944C73.7486 51.5337 73.2767 50.5741 73.1567 49.415C73.0528 48.4165 73.225 47.4843 73.7635 46.6367C74.4118 45.617 75.3424 45.0061 76.5516 44.8455C77.6602 44.698 78.7402 44.7906 79.7484 45.3141C80.8255 45.8737 81.3451 46.8316 81.5696 47.9678C81.6677 48.4651 81.689 48.9777 81.7516 49.5436H81.7498ZM78.8763 48.0067C78.8717 47.1762 78.2602 46.6424 77.3772 46.6653C76.6922 46.683 76.0165 47.1516 75.9993 48.0067H78.8757H78.8763Z" fill="black"/>
<path d="M56.3468 52.7612H53.3986V46.768H52.178V44.9716H53.3596C53.4049 44.5532 53.4107 44.1617 53.4945 43.7873C53.7127 42.8128 54.3718 42.207 55.3748 42.1133C56.112 42.0447 56.8578 42.067 57.6002 42.0567C57.7098 42.055 57.8206 42.0961 57.9401 42.1196C57.9446 42.2196 57.9521 42.3036 57.9527 42.3882C57.9538 42.9477 57.9527 43.5078 57.9527 44.048C57.6283 44.0325 57.324 43.9897 57.0237 44.0091C56.4266 44.048 56.2435 44.3103 56.3445 44.9567H57.835V46.7702C57.4411 46.7702 57.061 46.7851 56.6827 46.7651C56.4215 46.7514 56.3394 46.8314 56.3411 47.0994C56.3526 48.8684 56.3468 50.6373 56.3468 52.4063V52.7618V52.7612Z" fill="black"/>
<path d="M58.9014 44.9717H61.7899V52.7613H58.9014V44.9717Z" fill="black"/>
<path d="M58.8889 44.0578V42.0482C58.9871 42.0397 59.0778 42.0254 59.1685 42.0254C59.9517 42.0237 60.7348 42.0328 61.5173 42.0197C61.759 42.0157 61.8297 42.0974 61.8228 42.33C61.8078 42.8238 61.8251 43.3188 61.8107 43.8126C61.8084 43.8961 61.7148 44.0469 61.6614 44.0481C60.7468 44.0629 59.8322 44.0584 58.8889 44.0584V44.0578Z" fill="black"/>
</svg>
