<svg width="46" height="45" viewBox="0 0 46 45" fill="none" xmlns="http://www.w3.org/2000/svg">
<path d="M27.909 38.903L27.9275 38.9141C29.5243 39.9312 31.4203 40.3731 33.3023 40.1667C35.1842 39.9604 36.9395 39.1182 38.278 37.7792L39.4406 36.6148C39.9603 36.0949 40.2523 35.3898 40.2523 34.6547C40.2523 33.9195 39.9603 33.2144 39.4406 32.6945L34.5407 27.7928C34.2832 27.5352 33.9775 27.3308 33.641 27.1914C33.3045 27.0519 32.9439 26.9802 32.5796 26.9802C32.2154 26.9802 31.8547 27.0519 31.5183 27.1914C31.1818 27.3308 30.8761 27.5352 30.6186 27.7928C30.0987 28.3126 29.3936 28.6046 28.6585 28.6046C27.9233 28.6046 27.2182 28.3126 26.6983 27.7928L18.8541 19.9523C18.5965 19.6948 18.3921 19.3891 18.2527 19.0526C18.1132 18.7161 18.0415 18.3555 18.0415 17.9912C18.0415 17.627 18.1132 17.2663 18.2527 16.9299C18.3921 16.5934 18.5965 16.2877 18.8541 16.0302C19.3739 15.5103 19.6659 14.8052 19.6659 14.0701C19.6659 13.3349 19.3739 12.6298 18.8541 12.1099L13.9524 7.20822C13.4325 6.68847 12.7274 6.39648 11.9923 6.39648C11.2571 6.39648 10.5521 6.68847 10.0322 7.20822L8.86772 8.37266C7.52879 9.71116 6.68657 11.4664 6.48022 13.3484C6.27388 15.2303 6.71576 17.1264 7.73286 18.7232L7.74395 18.7417C13.116 26.6886 19.9611 33.5324 27.909 38.903V38.903Z" stroke="#121212" stroke-width="2.5" stroke-linecap="round" stroke-linejoin="round"/>
</svg>
