<svg width="55" height="55" viewBox="0 0 55 55" fill="none" xmlns="http://www.w3.org/2000/svg">
<g clip-path="url(#clip0_2026_37626)">
<path d="M36.8856 16.0537L26.7606 29.5537L20.0106 22.8037" stroke="#121212" stroke-width="3.375" stroke-linecap="round" stroke-linejoin="round"/>
<path d="M48.6981 22.804C48.6973 18.9726 47.6096 15.22 45.5613 11.9821C43.5129 8.74417 40.588 6.15381 37.1262 4.51186C33.6645 2.86991 29.8079 2.24375 26.0045 2.7061C22.2011 3.16845 18.6069 4.70034 15.6393 7.12384C12.6717 9.54735 10.4526 12.763 9.23966 16.3974C8.02671 20.0317 7.86971 23.9356 8.78689 27.6556C9.70407 31.3757 11.6578 34.7592 14.4212 37.4131C17.1845 40.0671 20.6441 41.8827 24.3981 42.649L28.4481 53.179L32.4981 42.649C37.072 41.7153 41.1829 39.23 44.135 35.6137C47.0871 31.9974 48.6991 27.4722 48.6981 22.804V22.804Z" stroke="#121212" stroke-width="3.375" stroke-linecap="round" stroke-linejoin="round"/>
</g>
<defs>
<clipPath id="clip0_2026_37626">
<rect width="54" height="54" fill="white" transform="translate(0.885742 0.866211)"/>
</clipPath>
</defs>
</svg>
