<svg width="21" height="20" viewBox="0 0 21 20" fill="none" xmlns="http://www.w3.org/2000/svg">
<path d="M1.36426 16.875H18.8643" stroke="#121212" stroke-width="1.6" stroke-linecap="round" stroke-linejoin="round"/>
<path d="M11.3643 16.875V3.125C11.3643 2.95924 11.2984 2.80027 11.1812 2.68306C11.064 2.56585 10.905 2.5 10.7393 2.5H3.23926C3.0735 2.5 2.91453 2.56585 2.79732 2.68306C2.68011 2.80027 2.61426 2.95924 2.61426 3.125V16.875" stroke="#121212" stroke-width="1.6" stroke-linecap="round" stroke-linejoin="round"/>
<path d="M17.6143 16.875V8.125C17.6143 7.95924 17.5484 7.80027 17.4312 7.68306C17.314 7.56585 17.155 7.5 16.9893 7.5H11.3643" stroke="#121212" stroke-width="1.6" stroke-linecap="round" stroke-linejoin="round"/>
<path d="M5.11426 5.625H7.61426" stroke="#121212" stroke-width="1.6" stroke-linecap="round" stroke-linejoin="round"/>
<path d="M6.36426 10.625H8.86426" stroke="#121212" stroke-width="1.6" stroke-linecap="round" stroke-linejoin="round"/>
<path d="M5.11426 13.75H7.61426" stroke="#121212" stroke-width="1.6" stroke-linecap="round" stroke-linejoin="round"/>
<path d="M13.8643 13.75H15.1143" stroke="#121212" stroke-width="1.6" stroke-linecap="round" stroke-linejoin="round"/>
<path d="M13.8643 10.625H15.1143" stroke="#121212" stroke-width="1.6" stroke-linecap="round" stroke-linejoin="round"/>
</svg>
