<svg width="116" height="27" viewBox="0 0 116 27" fill="none" xmlns="http://www.w3.org/2000/svg">
<path d="M108.635 8.60938C111.746 8.60938 114.3 11.2797 114.3 14.7395C114.3 18.1993 111.746 20.8696 108.635 20.8696C106.939 20.8696 105.709 20.2427 104.873 19.1746V25.1886H101.877V8.93446H104.873V10.3044C105.709 9.23632 106.939 8.60938 108.635 8.60938ZM108.077 18.0136C109.935 18.0136 111.305 16.69 111.305 14.7395C111.305 12.789 109.935 11.4655 108.077 11.4655C106.243 11.4655 104.873 12.789 104.873 14.7395C104.873 16.69 106.243 18.0136 108.077 18.0136Z" fill="#A3A3A3"/>
<path d="M96.1385 8.93457H99.1339V20.5447H96.1385V19.2443C95.4419 20.2893 94.2344 20.8698 92.6787 20.8698C90.2173 20.8698 88.29 19.1515 88.29 16.0632V8.93457H91.2854V15.6917C91.2854 17.2706 92.2375 18.0833 93.5842 18.0833C95.0471 18.0833 96.1385 17.2242 96.1385 15.204V8.93457Z" fill="#A3A3A3"/>
<path d="M86.1824 11.8137H83.5585V16.6435C83.5585 17.8974 84.4641 17.9206 86.1824 17.8278V20.5445C81.9796 21.0089 80.5631 19.7783 80.5631 16.6435V11.8137H78.543V8.93442H80.5631V6.58918L83.5585 5.68359V8.93442H86.1824V11.8137Z" fill="#A3A3A3"/>
<path d="M73.9427 10.9313C74.5464 9.35231 76.0093 8.70215 77.4721 8.70215V12.0459C75.9164 11.8601 73.9427 12.5567 73.9427 14.9948V20.5445H70.9473V8.93435H73.9427V10.9313Z" fill="#A3A3A3"/>
<path d="M65.2355 8.93446H68.2309V20.5446H65.2355V19.1746C64.3996 20.2195 63.1457 20.8696 61.4506 20.8696C58.3623 20.8696 55.8081 18.1993 55.8081 14.7395C55.8081 11.2797 58.3623 8.60938 61.4506 8.60938C63.1457 8.60938 64.3996 9.25954 65.2355 10.3044V8.93446ZM62.0079 18.0136C63.8655 18.0136 65.2355 16.69 65.2355 14.7395C65.2355 12.789 63.8655 11.4655 62.0079 11.4655C60.1735 11.4655 58.8035 12.789 58.8035 14.7395C58.8035 16.69 60.1735 18.0136 62.0079 18.0136Z" fill="#A3A3A3"/>
<path d="M54.6629 11.8137H52.039V16.6435C52.039 17.8974 52.9446 17.9206 54.6629 17.8278V20.5445C50.46 21.0089 49.0436 19.7783 49.0436 16.6435V11.8137H47.0234V8.93442H49.0436V6.58918L52.039 5.68359V8.93442H54.6629V11.8137Z" fill="#A3A3A3"/>
<path d="M40.4448 12.2317C40.4448 13.95 46.4356 12.8819 46.4356 17.1544C46.4356 19.6622 44.2529 20.8696 41.7683 20.8696C39.4463 20.8696 37.728 19.8944 36.8921 18.1064L39.4928 16.6436C39.8178 17.5956 40.6073 18.1529 41.7683 18.1529C42.7204 18.1529 43.3705 17.8278 43.3705 17.1544C43.3705 15.4593 37.3797 16.3881 37.3797 12.3014C37.3797 9.93293 39.3999 8.60938 41.7916 8.60938C43.6724 8.60938 45.2978 9.46852 46.2034 11.0707L43.6492 12.4639C43.3009 11.7209 42.6507 11.2797 41.7916 11.2797C41.0485 11.2797 40.4448 11.6048 40.4448 12.2317Z" fill="#A3A3A3"/>
<path d="M9.20119 16.0174L3.95529 21.3171C3.22641 22.0534 2.03509 22.0482 1.3127 21.3055C0.605948 20.5788 0.615097 19.4188 1.33322 18.7034L8.36651 11.6966C9.1281 10.9379 10.3595 10.9366 11.1226 11.6938L14.4501 14.9955L20.0327 9.33994H16.238C15.2505 9.33994 14.4501 8.53948 14.4501 7.55205C14.4501 6.56463 15.2505 5.76416 16.238 5.76416H24.3175C25.397 5.76416 26.272 6.63921 26.272 7.71864V15.7253C26.272 16.753 25.4389 17.5861 24.4112 17.5861C23.3834 17.5861 22.5503 16.753 22.5503 15.7253V11.9306L16.076 18.3757C15.1723 19.2753 13.7153 19.2881 12.796 18.4044L10.2986 16.0037C9.99053 15.7076 9.50179 15.7137 9.20119 16.0174Z" fill="#A3A3A3"/>
</svg>
