<svg width="80" height="80" viewBox="0 0 80 80" fill="none" xmlns="http://www.w3.org/2000/svg">
<path d="M29.5994 34.7997C36.7795 34.7997 42.6002 28.9791 42.6002 21.7989C42.6002 14.6188 36.7795 8.79819 29.5994 8.79819C22.4193 8.79819 16.5987 14.6188 16.5987 21.7989C16.5987 28.9791 22.4193 34.7997 29.5994 34.7997Z" stroke="black" stroke-width="5.71" stroke-linecap="round" stroke-linejoin="round"/>
<path d="M6.19806 71.2018H53.0008V68.3825C52.9594 64.4186 51.914 60.53 49.9623 57.0803C48.0106 53.6296 45.2162 50.7306 41.8408 48.6532C38.4649 46.5757 34.6172 45.3876 30.658 45.2003C30.3046 45.1833 29.9518 45.1748 29.5994 45.1743C29.2471 45.1748 28.8942 45.1833 28.5413 45.2003C24.5817 45.3876 20.734 46.5757 17.3585 48.6532C13.9826 50.7306 11.1882 53.6296 9.23652 57.0803C7.28482 60.53 6.23945 64.4186 6.19806 68.3825V71.2018Z" stroke="black" stroke-width="5.71" stroke-linecap="round" stroke-linejoin="round"/>
<path d="M50.4006 34.7997C57.5807 34.7997 63.4014 28.9791 63.4014 21.7989C63.4014 14.6188 57.5807 8.79819 50.4006 8.79819" stroke="black" stroke-width="5.71" stroke-linecap="round" stroke-linejoin="round"/>
<path d="M63.4013 71.2023H73.8019V68.3825C73.7606 64.4186 72.7152 60.53 70.7635 57.0803C68.8118 53.6295 66.0174 50.7306 62.6415 48.6532C60.4595 47.3101 58.0801 46.339 55.6009 45.7697" stroke="black" stroke-width="5.71" stroke-linecap="round" stroke-linejoin="round"/>
</svg>
