<svg width="126" height="31" viewBox="0 0 126 31" fill="none" xmlns="http://www.w3.org/2000/svg">
<path d="M118.02 23.6711C116.729 23.6711 115.596 23.3968 114.623 22.8482C113.65 22.2819 112.897 21.4945 112.367 20.4858C111.836 19.4772 111.57 18.2915 111.57 16.929C111.57 15.5841 111.836 14.4073 112.367 13.3987C112.897 12.3723 113.65 11.576 114.623 11.0097C115.596 10.4258 116.729 10.1338 118.02 10.1338C119.33 10.1338 120.462 10.4258 121.418 11.0097C122.391 11.5937 123.143 12.3988 123.674 13.4252C124.205 14.4339 124.471 15.5929 124.471 16.9024C124.471 17.0971 124.462 17.2917 124.444 17.4864C124.444 17.6633 124.426 17.8138 124.391 17.9376H114.41V15.3363H121.763L121.232 16.5839C121.232 15.4868 120.967 14.5931 120.436 13.903C119.923 13.2129 119.118 12.8678 118.02 12.8678C117.065 12.8678 116.295 13.1686 115.711 13.7703C115.127 14.3542 114.835 15.1417 114.835 16.1327V17.5395C114.835 18.5835 115.127 19.4064 115.711 20.008C116.313 20.592 117.127 20.884 118.153 20.884C119.056 20.884 119.763 20.6982 120.277 20.3266C120.79 19.9549 121.232 19.4949 121.604 18.9463L124.019 20.3266C123.435 21.406 122.639 22.2377 121.63 22.8217C120.639 23.3879 119.436 23.6711 118.02 23.6711Z" fill="#A3A3A3"/>
<path d="M106.051 10.4258L106.926 14.0092V23.4056H103.449V10.4258H106.051ZM106.21 15.7876L105.573 15.4956V12.8412L105.812 12.5493C106.006 12.2307 106.298 11.8857 106.688 11.5141C107.095 11.1424 107.555 10.8239 108.068 10.5585C108.599 10.2754 109.147 10.1338 109.714 10.1338C109.997 10.1338 110.253 10.1515 110.483 10.1869C110.713 10.2223 110.89 10.2842 111.014 10.3727V13.5314H110.165C109.015 13.5314 108.13 13.7172 107.51 14.0888C106.891 14.4427 106.458 15.009 106.21 15.7876Z" fill="#A3A3A3"/>
<path d="M93.0775 23.7242C92.1042 23.7242 91.3256 23.5737 90.7417 23.2729C90.1577 22.9721 89.7065 22.5739 89.3879 22.0784C89.0871 21.5653 88.8836 20.9813 88.7774 20.3266C88.6712 19.6718 88.6182 18.9905 88.6182 18.2827V10.4258H92.0954V18.3092C92.0954 19.1056 92.2635 19.6364 92.5997 19.9019C92.9536 20.1673 93.3695 20.3 93.8473 20.3C94.2897 20.3 94.7321 20.2204 95.1744 20.0611C95.6168 19.9019 96.0327 19.6718 96.422 19.371C96.829 19.0525 97.1652 18.6897 97.4307 18.2827L97.8554 20.1142H97.006V10.4258H100.483V23.4056H97.8819L97.1652 20.9371L98.2801 20.9636C97.8377 21.4768 97.3333 21.9457 96.7671 22.3704C96.2185 22.7951 95.6257 23.1313 94.9886 23.3791C94.3693 23.6091 93.7322 23.7242 93.0775 23.7242Z" fill="#A3A3A3"/>
<path d="M84.0322 23.6443C82.7051 23.6443 81.6522 23.2992 80.8735 22.6091C80.1126 21.9013 79.7322 20.7776 79.7322 19.2381V10.5848L79.6791 10.4256L80.3958 7.37305H83.2094V18.6806C83.2094 19.2469 83.3421 19.6628 83.6075 19.9282C83.8907 20.1759 84.2446 20.2998 84.6693 20.2998C84.9524 20.2998 85.209 20.2821 85.439 20.2467C85.6691 20.1936 85.8726 20.1405 86.0496 20.0875V23.3258C85.7664 23.432 85.4656 23.5116 85.1471 23.5647C84.8285 23.6178 84.4569 23.6443 84.0322 23.6443ZM77.7148 13.6374V10.4256H86.0496V13.6374H77.7148Z" fill="#A3A3A3"/>
<path d="M71.7741 10.1338C72.6588 10.1338 73.3667 10.2842 73.8975 10.585C74.4461 10.8859 74.8531 11.2929 75.1185 11.806C75.4017 12.3192 75.5875 12.9032 75.676 13.5579C75.7644 14.195 75.8087 14.8586 75.8087 15.5487V23.4056H72.3315V15.5222C72.3315 14.7258 72.1722 14.195 71.8537 13.9295C71.5529 13.6641 71.1635 13.5314 70.6858 13.5314C70.2434 13.5314 69.7921 13.6199 69.332 13.7968C68.8719 13.9561 68.4384 14.195 68.0314 14.5135C67.6421 14.8143 67.3059 15.1594 67.0227 15.5487L66.5715 13.7437H67.4474V23.4056H63.9702V10.4258H66.5715L67.2882 12.9209L66.1733 12.8678C66.6334 12.3369 67.1555 11.868 67.7394 11.461C68.3411 11.054 68.9781 10.7354 69.6506 10.5054C70.323 10.2577 71.0308 10.1338 71.7741 10.1338Z" fill="#A3A3A3"/>
<path d="M55.394 23.6711C54.1022 23.6711 52.9696 23.3968 51.9964 22.8482C51.0231 22.2819 50.271 21.4945 49.7402 20.4858C49.2093 19.4772 48.9438 18.2915 48.9438 16.929C48.9438 15.5841 49.2093 14.4073 49.7402 13.3987C50.271 12.3723 51.0231 11.576 51.9964 11.0097C52.9696 10.4258 54.1022 10.1338 55.394 10.1338C56.7034 10.1338 57.836 10.4258 58.7915 11.0097C59.7648 11.5937 60.5169 12.3988 61.0478 13.4252C61.5786 14.4339 61.8441 15.5929 61.8441 16.9024C61.8441 17.0971 61.8352 17.2917 61.8175 17.4864C61.8175 17.6633 61.7998 17.8138 61.7644 17.9376H51.784V15.3363H59.1366L58.6057 16.5839C58.6057 15.4868 58.3403 14.5931 57.8094 13.903C57.2963 13.2129 56.4911 12.8678 55.394 12.8678C54.4384 12.8678 53.6686 13.1686 53.0847 13.7703C52.5007 14.3542 52.2087 15.1417 52.2087 16.1327V17.5395C52.2087 18.5835 52.5007 19.4064 53.0847 20.008C53.6863 20.592 54.5003 20.884 55.5267 20.884C56.4292 20.884 57.137 20.6982 57.6502 20.3266C58.1633 19.9549 58.6057 19.4949 58.9774 18.9463L61.3928 20.3266C60.8089 21.406 60.0126 22.2377 59.0039 22.8217C58.0129 23.3879 56.8096 23.6711 55.394 23.6711Z" fill="#A3A3A3"/>
<path d="M48.4117 10.4258L43.6604 23.4056H40.3159L35.3257 10.4258H38.9887L42.3863 20.3531H41.5634L44.8283 10.4258H48.4117Z" fill="#A3A3A3"/>
<path fill-rule="evenodd" clip-rule="evenodd" d="M10.347 2.93018C9.89462 2.93018 9.52792 3.29688 9.52792 3.74923V11.5304H9.52782C4.77812 11.5304 0.927734 15.3807 0.927734 20.1304C0.927734 24.8801 4.77812 28.7305 9.52781 28.7305H17.3088C17.7612 28.7305 18.1279 28.3638 18.1279 27.9115V20.1303H18.128C22.8777 20.1303 26.7281 16.2799 26.7281 11.5303C26.7281 6.78056 22.8777 2.93018 18.128 2.93018H10.347ZM18.1279 20.1303V12.3494C18.1279 11.8971 17.7612 11.5304 17.3088 11.5304H9.52792V19.3113C9.52792 19.7636 9.89462 20.1303 10.347 20.1303H18.1279Z" fill="#A3A3A3"/>
<path d="M10.2546 2.93018C9.85322 2.93018 9.52783 3.25556 9.52783 3.65694L9.52783 11.5303H17.4011C17.8025 11.5303 18.1279 11.8556 18.1279 12.257L18.1279 20.1303C22.8776 20.1303 26.728 16.2799 26.728 11.5303C26.728 6.78056 22.8776 2.93018 18.1279 2.93018H10.2546Z" fill="#A3A3A3"/>
</svg>
