<svg width="256" height="256" viewBox="0 0 256 256" fill="none" xmlns="http://www.w3.org/2000/svg">
<rect width="256" height="256" rx="38" fill="white"/>
<path d="M164.57 141.285C164.57 143.71 163.607 146.035 161.892 147.75C160.177 149.464 157.852 150.428 155.427 150.428H100.57C98.1457 150.428 95.8202 149.464 94.1056 147.75C92.391 146.035 91.4277 143.71 91.4277 141.285C91.4277 138.86 92.391 136.535 94.1056 134.82C95.8202 133.105 98.1457 132.142 100.57 132.142H155.427C157.852 132.142 160.177 133.105 161.892 134.82C163.607 136.535 164.57 138.86 164.57 141.285Z" stroke="#121212" stroke-width="12.7999" stroke-linecap="round" stroke-linejoin="round"/>
<path d="M128 150.427V196.141" stroke="#121212" stroke-width="12.7999" stroke-linecap="round" stroke-linejoin="round"/>
<path d="M88.1558 196.141C90.9737 187.898 96.3692 180.781 103.545 175.842C110.72 170.902 119.294 168.403 128 168.713C136.705 168.405 145.279 170.905 152.454 175.844C159.629 180.783 165.024 187.899 167.844 196.141" stroke="#121212" stroke-width="12.7999" stroke-linecap="round" stroke-linejoin="round"/>
<path d="M73.1436 113.856V132.141C73.1436 136.991 75.0701 141.642 78.4993 145.071C81.9285 148.5 86.5795 150.427 91.4291 150.427H100.572" stroke="#121212" stroke-width="12.7999" stroke-linecap="round" stroke-linejoin="round"/>
<path d="M64 113.856H82.2855" stroke="#121212" stroke-width="12.7999" stroke-linecap="round" stroke-linejoin="round"/>
<path d="M182.858 113.856V132.141C182.858 136.991 180.932 141.642 177.503 145.071C174.074 148.5 169.423 150.427 164.573 150.427H155.43" stroke="#121212" stroke-width="12.7999" stroke-linecap="round" stroke-linejoin="round"/>
<path d="M192 113.856H173.714" stroke="#121212" stroke-width="12.7999" stroke-linecap="round" stroke-linejoin="round"/>
<path d="M155.428 86.4283C155.428 79.1539 152.538 72.1774 147.394 67.0336C142.25 61.8898 135.274 59 128 59C120.725 59 113.749 61.8898 108.605 67.0336C103.461 72.1774 100.571 79.1539 100.571 86.4283V132.142H155.428V86.4283Z" stroke="#121212" stroke-width="12.7999" stroke-linecap="round" stroke-linejoin="round"/>
</svg>
