<svg width="80" height="80" viewBox="0 0 80 80" fill="none" xmlns="http://www.w3.org/2000/svg">
<path d="M40 67.8582C43.8392 67.8582 46.9514 64.746 46.9514 60.9068C46.9514 57.0676 43.8392 53.9553 40 53.9553C36.1608 53.9553 33.0486 57.0676 33.0486 60.9068C33.0486 64.746 36.1608 67.8582 40 67.8582Z" stroke="black" stroke-width="5.71" stroke-linecap="round" stroke-linejoin="round"/>
<path d="M26.8931 45.3058C28.6186 43.5344 30.6815 42.1264 32.9599 41.1651C35.2383 40.2037 37.6862 39.7085 40.1592 39.7085C42.6322 39.7085 45.0801 40.2037 47.3585 41.1651C49.6369 42.1264 51.6997 43.5344 53.4253 45.3058" stroke="black" stroke-width="5.71" stroke-linecap="round" stroke-linejoin="round"/>
<path d="M15.3781 36.3391C18.6082 33.0902 22.4487 30.5119 26.6788 28.7525C30.9089 26.9932 35.4451 26.0874 40.0265 26.0874C44.6078 26.0874 49.144 26.9932 53.3741 28.7525C57.6041 30.5119 61.4449 33.0902 64.6749 36.3391" stroke="black" stroke-width="5.71" stroke-linecap="round" stroke-linejoin="round"/>
<path d="M5.50821 26.4684C10.0369 21.9374 15.4139 18.3431 21.3322 15.8908C27.2504 13.4384 33.5938 12.1762 40 12.1762C46.4062 12.1762 52.7496 13.4384 58.668 15.8908C64.5863 18.3431 69.9633 21.9374 74.4918 26.4684" stroke="black" stroke-width="5.71" stroke-linecap="round" stroke-linejoin="round"/>
</svg>
